<?xml version="1.0" encoding="us-ascii" standalone="no"?><svg xmlns="http://www.w3.org/2000/svg" xmlns:xlink="http://www.w3.org/1999/xlink" contentStyleType="text/css" height="1235px" preserveAspectRatio="none" style="width:1689px;height:1235px;background:#FFFFFF;" version="1.1" viewBox="0 0 1689 1235" width="1689px" zoomAndPan="magnify"><defs/><g><rect fill="#FFFFFF" height="1138.8652" style="stroke:#181818;stroke-width:1.0;" width="10" x="41" y="48.6211"/><rect fill="#FFFFFF" height="1115.5742" style="stroke:#181818;stroke-width:1.0;" width="10" x="282" y="71.9121"/><rect fill="#FFFFFF" height="949.7793" style="stroke:#181818;stroke-width:1.0;" width="10" x="476" y="103.2031"/><rect fill="#FFFFFF" height="93.873" style="stroke:#181818;stroke-width:1.0;" width="10" x="663" y="428.4531"/><rect fill="#FFFFFF" height="31.291" style="stroke:#181818;stroke-width:1.0;" width="10" x="771" y="990.4004"/><rect fill="#FFFFFF" height="31.291" style="stroke:#181818;stroke-width:1.0;" width="10" x="861" y="134.4941"/><rect fill="#FFFFFF" height="31.291" style="stroke:#181818;stroke-width:1.0;" width="10" x="861" y="927.8184"/><rect fill="#FFFFFF" height="120.5039" style="stroke:#181818;stroke-width:1.0;" width="10" x="1020" y="165.7852"/><rect fill="#FFFFFF" height="634.8691" style="stroke:#181818;stroke-width:1.0;" width="10" x="1020" y="553.6172"/><rect fill="#FFFFFF" height="93.873" style="stroke:#181818;stroke-width:1.0;" width="10" x="1236" y="584.9082"/><rect fill="#FFFFFF" height="125.1641" style="stroke:#181818;stroke-width:1.0;" width="10" x="1236" y="771.3633"/><rect fill="#FFFFFF" height="31.291" style="stroke:#181818;stroke-width:1.0;" width="10" x="1317.5" y="802.6543"/><rect fill="#FFFFFF" height="31.291" style="stroke:#181818;stroke-width:1.0;" width="10" x="1399" y="833.9453"/><rect fill="#FFFFFF" height="31.291" style="stroke:#181818;stroke-width:1.0;" width="10" x="1487" y="459.7441"/><rect fill="#FFFFFF" height="31.291" style="stroke:#181818;stroke-width:1.0;" width="10" x="1487" y="833.9453"/><rect fill="#FFFFFF" height="31.291" style="stroke:#181818;stroke-width:1.0;" width="10" x="1553" y="616.1992"/><rect fill="#FFFFFF" height="30" style="stroke:#181818;stroke-width:1.0;" width="10" x="1643" y="710.0723"/><rect fill="none" height="98.5039" style="stroke:#000000;stroke-width:1.5;" width="626.5" x="436.5" y="180.7852"/><rect fill="none" height="98.5039" style="stroke:#000000;stroke-width:1.5;" width="329" x="10" y="1081.9824"/><line style="stroke:#181818;stroke-width:0.5;stroke-dasharray:5.0,5.0;" x1="46" x2="46" y1="38.6211" y2="1197.4863"/><line style="stroke:#181818;stroke-width:0.5;stroke-dasharray:5.0,5.0;" x1="287" x2="287" y1="38.6211" y2="1197.4863"/><line style="stroke:#181818;stroke-width:0.5;stroke-dasharray:5.0,5.0;" x1="480.5" x2="480.5" y1="38.6211" y2="1197.4863"/><line style="stroke:#181818;stroke-width:0.5;stroke-dasharray:5.0,5.0;" x1="667.5" x2="667.5" y1="38.6211" y2="1197.4863"/><line style="stroke:#181818;stroke-width:0.5;stroke-dasharray:5.0,5.0;" x1="775.5" x2="775.5" y1="38.6211" y2="1197.4863"/><line style="stroke:#181818;stroke-width:0.5;stroke-dasharray:5.0,5.0;" x1="865.5" x2="865.5" y1="38.6211" y2="1197.4863"/><line style="stroke:#181818;stroke-width:0.5;stroke-dasharray:5.0,5.0;" x1="1025" x2="1025" y1="38.6211" y2="1197.4863"/><line style="stroke:#181818;stroke-width:0.5;stroke-dasharray:5.0,5.0;" x1="1241" x2="1241" y1="38.6211" y2="1197.4863"/><line style="stroke:#181818;stroke-width:0.5;stroke-dasharray:5.0,5.0;" x1="1322" x2="1322" y1="38.6211" y2="1197.4863"/><line style="stroke:#181818;stroke-width:0.5;stroke-dasharray:5.0,5.0;" x1="1404" x2="1404" y1="38.6211" y2="1197.4863"/><line style="stroke:#181818;stroke-width:0.5;stroke-dasharray:5.0,5.0;" x1="1492" x2="1492" y1="38.6211" y2="1197.4863"/><line style="stroke:#181818;stroke-width:0.5;stroke-dasharray:5.0,5.0;" x1="1558" x2="1558" y1="38.6211" y2="1197.4863"/><line style="stroke:#181818;stroke-width:0.5;stroke-dasharray:5.0,5.0;" x1="1648" x2="1648" y1="38.6211" y2="1197.4863"/><rect fill="#E2E2F0" height="32.6211" rx="2.5" ry="2.5" style="stroke:#181818;stroke-width:0.5;" width="52" x="20" y="5"/><text fill="#000000" font-family="sans-serif" font-size="14" lengthAdjust="spacing" textLength="38" x="27" y="27.1074">Route</text><rect fill="#E2E2F0" height="32.6211" rx="2.5" ry="2.5" style="stroke:#181818;stroke-width:0.5;" width="52" x="20" y="1196.4863"/><text fill="#000000" font-family="sans-serif" font-size="14" lengthAdjust="spacing" textLength="38" x="27" y="1218.5938">Route</text><rect fill="#E2E2F0" height="32.6211" rx="2.5" ry="2.5" style="stroke:#181818;stroke-width:0.5;" width="84" x="245" y="5"/><text fill="#000000" font-family="sans-serif" font-size="14" lengthAdjust="spacing" textLength="70" x="252" y="27.1074">XController</text><rect fill="#E2E2F0" height="32.6211" rx="2.5" ry="2.5" style="stroke:#181818;stroke-width:0.5;" width="84" x="245" y="1196.4863"/><text fill="#000000" font-family="sans-serif" font-size="14" lengthAdjust="spacing" textLength="70" x="252" y="1218.5938">XController</text><rect fill="#E2E2F0" height="32.6211" rx="2.5" ry="2.5" style="stroke:#181818;stroke-width:0.5;" width="69" x="446.5" y="5"/><text fill="#000000" font-family="sans-serif" font-size="14" lengthAdjust="spacing" textLength="55" x="453.5" y="27.1074">XService</text><rect fill="#E2E2F0" height="32.6211" rx="2.5" ry="2.5" style="stroke:#181818;stroke-width:0.5;" width="69" x="446.5" y="1196.4863"/><text fill="#000000" font-family="sans-serif" font-size="14" lengthAdjust="spacing" textLength="55" x="453.5" y="1218.5938">XService</text><rect fill="#E2E2F0" height="32.6211" rx="2.5" ry="2.5" style="stroke:#181818;stroke-width:0.5;" width="95" x="620.5" y="5"/><text fill="#000000" font-family="sans-serif" font-size="14" lengthAdjust="spacing" textLength="81" x="627.5" y="27.1074">CreateXDTO</text><rect fill="#E2E2F0" height="32.6211" rx="2.5" ry="2.5" style="stroke:#181818;stroke-width:0.5;" width="95" x="620.5" y="1196.4863"/><text fill="#000000" font-family="sans-serif" font-size="14" lengthAdjust="spacing" textLength="81" x="627.5" y="1218.5938">CreateXDTO</text><rect fill="#E2E2F0" height="32.6211" rx="2.5" ry="2.5" style="stroke:#181818;stroke-width:0.5;" width="101" x="725.5" y="5"/><text fill="#000000" font-family="sans-serif" font-size="14" lengthAdjust="spacing" textLength="87" x="732.5" y="27.1074">PresentXDTO</text><rect fill="#E2E2F0" height="32.6211" rx="2.5" ry="2.5" style="stroke:#181818;stroke-width:0.5;" width="101" x="725.5" y="1196.4863"/><text fill="#000000" font-family="sans-serif" font-size="14" lengthAdjust="spacing" textLength="87" x="732.5" y="1218.5938">PresentXDTO</text><rect fill="#E2E2F0" height="32.6211" rx="2.5" ry="2.5" style="stroke:#181818;stroke-width:0.5;" width="59" x="836.5" y="5"/><text fill="#000000" font-family="sans-serif" font-size="14" lengthAdjust="spacing" textLength="45" x="843.5" y="27.1074">IXRepo</text><rect fill="#E2E2F0" height="32.6211" rx="2.5" ry="2.5" style="stroke:#181818;stroke-width:0.5;" width="59" x="836.5" y="1196.4863"/><text fill="#000000" font-family="sans-serif" font-size="14" lengthAdjust="spacing" textLength="45" x="843.5" y="1218.5938">IXRepo</text><rect fill="#E2E2F0" height="32.6211" rx="2.5" ry="2.5" style="stroke:#181818;stroke-width:0.5;" width="56" x="997" y="5"/><text fill="#000000" font-family="sans-serif" font-size="14" lengthAdjust="spacing" textLength="42" x="1004" y="27.1074">XRepo</text><rect fill="#E2E2F0" height="32.6211" rx="2.5" ry="2.5" style="stroke:#181818;stroke-width:0.5;" width="56" x="997" y="1196.4863"/><text fill="#000000" font-family="sans-serif" font-size="14" lengthAdjust="spacing" textLength="42" x="1004" y="1218.5938">XRepo</text><rect fill="#E2E2F0" height="32.6211" rx="2.5" ry="2.5" style="stroke:#181818;stroke-width:0.5;" width="70" x="1206" y="5"/><text fill="#000000" font-family="sans-serif" font-size="14" lengthAdjust="spacing" textLength="56" x="1213" y="27.1074">XMapper</text><rect fill="#E2E2F0" height="32.6211" rx="2.5" ry="2.5" style="stroke:#181818;stroke-width:0.5;" width="70" x="1206" y="1196.4863"/><text fill="#000000" font-family="sans-serif" font-size="14" lengthAdjust="spacing" textLength="56" x="1213" y="1218.5938">XMapper</text><rect fill="#E2E2F0" height="32.6211" rx="2.5" ry="2.5" style="stroke:#181818;stroke-width:0.5;" width="73" x="1286" y="5"/><text fill="#000000" font-family="sans-serif" font-size="14" lengthAdjust="spacing" textLength="59" x="1293" y="27.1074">IXFactory</text><rect fill="#E2E2F0" height="32.6211" rx="2.5" ry="2.5" style="stroke:#181818;stroke-width:0.5;" width="73" x="1286" y="1196.4863"/><text fill="#000000" font-family="sans-serif" font-size="14" lengthAdjust="spacing" textLength="59" x="1293" y="1218.5938">IXFactory</text><rect fill="#E2E2F0" height="32.6211" rx="2.5" ry="2.5" style="stroke:#181818;stroke-width:0.5;" width="70" x="1369" y="5"/><text fill="#000000" font-family="sans-serif" font-size="14" lengthAdjust="spacing" textLength="56" x="1376" y="27.1074">XFactory</text><rect fill="#E2E2F0" height="32.6211" rx="2.5" ry="2.5" style="stroke:#181818;stroke-width:0.5;" width="70" x="1369" y="1196.4863"/><text fill="#000000" font-family="sans-serif" font-size="14" lengthAdjust="spacing" textLength="56" x="1376" y="1218.5938">XFactory</text><rect fill="#E2E2F0" height="32.6211" rx="2.5" ry="2.5" style="stroke:#181818;stroke-width:0.5;" width="22" x="1481" y="5"/><text fill="#000000" font-family="sans-serif" font-size="14" lengthAdjust="spacing" textLength="8" x="1488" y="27.1074">X</text><rect fill="#E2E2F0" height="32.6211" rx="2.5" ry="2.5" style="stroke:#181818;stroke-width:0.5;" width="22" x="1481" y="1196.4863"/><text fill="#000000" font-family="sans-serif" font-size="14" lengthAdjust="spacing" textLength="8" x="1488" y="1218.5938">X</text><rect fill="#E2E2F0" height="32.6211" rx="2.5" ry="2.5" style="stroke:#181818;stroke-width:0.5;" width="90" x="1513" y="5"/><text fill="#000000" font-family="sans-serif" font-size="14" lengthAdjust="spacing" textLength="76" x="1520" y="27.1074">XDataModel</text><rect fill="#E2E2F0" height="32.6211" rx="2.5" ry="2.5" style="stroke:#181818;stroke-width:0.5;" width="90" x="1513" y="1196.4863"/><text fill="#000000" font-family="sans-serif" font-size="14" lengthAdjust="spacing" textLength="76" x="1520" y="1218.5938">XDataModel</text><rect fill="#E2E2F0" height="32.6211" rx="2.5" ry="2.5" style="stroke:#181818;stroke-width:0.5;" width="70" x="1613" y="5"/><text fill="#000000" font-family="sans-serif" font-size="14" lengthAdjust="spacing" textLength="56" x="1620" y="27.1074">XContext</text><rect fill="#E2E2F0" height="32.6211" rx="2.5" ry="2.5" style="stroke:#181818;stroke-width:0.5;" width="70" x="1613" y="1196.4863"/><text fill="#000000" font-family="sans-serif" font-size="14" lengthAdjust="spacing" textLength="56" x="1620" y="1218.5938">XContext</text><rect fill="#FFFFFF" height="1138.8652" style="stroke:#181818;stroke-width:1.0;" width="10" x="41" y="48.6211"/><rect fill="#FFFFFF" height="1115.5742" style="stroke:#181818;stroke-width:1.0;" width="10" x="282" y="71.9121"/><rect fill="#FFFFFF" height="949.7793" style="stroke:#181818;stroke-width:1.0;" width="10" x="476" y="103.2031"/><rect fill="#FFFFFF" height="93.873" style="stroke:#181818;stroke-width:1.0;" width="10" x="663" y="428.4531"/><rect fill="#FFFFFF" height="31.291" style="stroke:#181818;stroke-width:1.0;" width="10" x="771" y="990.4004"/><rect fill="#FFFFFF" height="31.291" style="stroke:#181818;stroke-width:1.0;" width="10" x="861" y="134.4941"/><rect fill="#FFFFFF" height="31.291" style="stroke:#181818;stroke-width:1.0;" width="10" x="861" y="927.8184"/><rect fill="#FFFFFF" height="120.5039" style="stroke:#181818;stroke-width:1.0;" width="10" x="1020" y="165.7852"/><rect fill="#FFFFFF" height="634.8691" style="stroke:#181818;stroke-width:1.0;" width="10" x="1020" y="553.6172"/><rect fill="#FFFFFF" height="93.873" style="stroke:#181818;stroke-width:1.0;" width="10" x="1236" y="584.9082"/><rect fill="#FFFFFF" height="125.1641" style="stroke:#181818;stroke-width:1.0;" width="10" x="1236" y="771.3633"/><rect fill="#FFFFFF" height="31.291" style="stroke:#181818;stroke-width:1.0;" width="10" x="1317.5" y="802.6543"/><rect fill="#FFFFFF" height="31.291" style="stroke:#181818;stroke-width:1.0;" width="10" x="1399" y="833.9453"/><rect fill="#FFFFFF" height="31.291" style="stroke:#181818;stroke-width:1.0;" width="10" x="1487" y="459.7441"/><rect fill="#FFFFFF" height="31.291" style="stroke:#181818;stroke-width:1.0;" width="10" x="1487" y="833.9453"/><rect fill="#FFFFFF" height="31.291" style="stroke:#181818;stroke-width:1.0;" width="10" x="1553" y="616.1992"/><rect fill="#FFFFFF" height="30" style="stroke:#181818;stroke-width:1.0;" width="10" x="1643" y="710.0723"/><polygon fill="#181818" points="270,67.9121,280,71.9121,270,75.9121,274,71.9121" style="stroke:#181818;stroke-width:1.0;"/><line style="stroke:#181818;stroke-width:1.0;" x1="51" x2="276" y1="71.9121" y2="71.9121"/><text fill="#000000" font-family="sans-serif" font-size="13" lengthAdjust="spacing" textLength="150" x="58" y="66.6494">PostX(CreateXDTO xDTO)</text><polygon fill="#181818" points="464,99.2031,474,103.2031,464,107.2031,468,103.2031" style="stroke:#181818;stroke-width:1.0;"/><line style="stroke:#181818;stroke-width:1.0;" x1="292" x2="470" y1="103.2031" y2="103.2031"/><text fill="#000000" font-family="sans-serif" font-size="13" lengthAdjust="spacing" textLength="165" x="299" y="97.9404">Add(xDTO, _errorMessages)</text><polygon fill="#181818" points="849,130.4941,859,134.4941,849,138.4941,853,134.4941" style="stroke:#181818;stroke-width:1.0;"/><line style="stroke:#181818;stroke-width:1.0;" x1="486" x2="855" y1="134.4941" y2="134.4941"/><text fill="#000000" font-family="sans-serif" font-size="13" lengthAdjust="spacing" textLength="109" x="493" y="129.2314">GetXByIdAsync(id)</text><polygon fill="#181818" points="1008,161.7852,1018,165.7852,1008,169.7852,1012,165.7852" style="stroke:#181818;stroke-width:1.0;"/><line style="stroke:#181818;stroke-width:1.0;" x1="866" x2="1014" y1="165.7852" y2="165.7852"/><text fill="#000000" font-family="sans-serif" font-size="13" lengthAdjust="spacing" textLength="130" x="873" y="160.5225">implements XExists(y)</text><path d="M436.5,180.7852 L497.5,180.7852 L497.5,190.0762 L487.5,200.0762 L436.5,200.0762 L436.5,180.7852 " fill="#EEEEEE" style="stroke:#000000;stroke-width:1.5;"/><rect fill="none" height="98.5039" style="stroke:#000000;stroke-width:1.5;" width="626.5" x="436.5" y="180.7852"/><text fill="#000000" font-family="sans-serif" font-size="13" font-weight="bold" lengthAdjust="spacing" textLength="16" x="451.5" y="195.8135">alt</text><text fill="#000000" font-family="sans-serif" font-size="11" font-weight="bold" lengthAdjust="spacing" textLength="52" x="512.5" y="194.6553">[X exists]</text><polygon fill="#181818" points="497,219.3672,487,223.3672,497,227.3672,493,223.3672" style="stroke:#181818;stroke-width:1.0;"/><line style="stroke:#181818;stroke-width:1.0;stroke-dasharray:2.0,2.0;" x1="491" x2="1019" y1="223.3672" y2="223.3672"/><text fill="#000000" font-family="sans-serif" font-size="13" lengthAdjust="spacing" textLength="97" x="503" y="218.1045">X can be created</text><line style="stroke:#000000;stroke-width:1.0;stroke-dasharray:2.0,2.0;" x1="436.5" x2="1063" y1="232.3672" y2="232.3672"/><text fill="#000000" font-family="sans-serif" font-size="11" font-weight="bold" lengthAdjust="spacing" textLength="43" x="441.5" y="244.2373">[failure]</text><polygon fill="#181818" points="497,267.2891,487,271.2891,497,275.2891,493,271.2891" style="stroke:#181818;stroke-width:1.0;"/><line style="stroke:#181818;stroke-width:1.0;stroke-dasharray:2.0,2.0;" x1="491" x2="1019" y1="271.2891" y2="271.2891"/><text fill="#000000" font-family="sans-serif" font-size="13" lengthAdjust="spacing" textLength="92" x="503" y="266.0264">X already exists</text><path d="M491,291.2891 L491,318.2891 L720,318.2891 L720,301.2891 L710,291.2891 L491,291.2891 " fill="#FEFFDD" style="stroke:#181818;stroke-width:0.5;"/><path d="M710,291.2891 L710,301.2891 L720,301.2891 L710,291.2891 " fill="#FEFFDD" style="stroke:#181818;stroke-width:0.5;"/><text fill="#000000" font-family="sans-serif" font-size="13" lengthAdjust="spacing" textLength="208" x="497" y="310.3174">see generate_id.puml for Staff entity</text><path d="M491,328.5801 L491,355.5801 L607,355.5801 L607,338.5801 L597,328.5801 L491,328.5801 " fill="#FEFFDD" style="stroke:#181818;stroke-width:0.5;"/><path d="M597,328.5801 L597,338.5801 L607,338.5801 L597,328.5801 " fill="#FEFFDD" style="stroke:#181818;stroke-width:0.5;"/><text fill="#000000" font-family="sans-serif" font-size="13" lengthAdjust="spacing" textLength="95" x="497" y="347.6084">for Patient entity</text><line style="stroke:#181818;stroke-width:1.0;" x1="486" x2="528" y1="384.1621" y2="384.1621"/><line style="stroke:#181818;stroke-width:1.0;" x1="528" x2="528" y1="384.1621" y2="397.1621"/><line style="stroke:#181818;stroke-width:1.0;" x1="487" x2="528" y1="397.1621" y2="397.1621"/><polygon fill="#181818" points="497,393.1621,487,397.1621,497,401.1621,493,397.1621" style="stroke:#181818;stroke-width:1.0;"/><text fill="#000000" font-family="sans-serif" font-size="13" lengthAdjust="spacing" textLength="90" x="493" y="378.8994">GenerateXId(...)</text><polygon fill="#181818" points="651,424.4531,661,428.4531,651,432.4531,655,428.4531" style="stroke:#181818;stroke-width:1.0;"/><line style="stroke:#181818;stroke-width:1.0;" x1="486" x2="657" y1="428.4531" y2="428.4531"/><text fill="#000000" font-family="sans-serif" font-size="13" lengthAdjust="spacing" textLength="158" x="493" y="423.1904">ToDomain(staffDTO, staffId)</text><polygon fill="#181818" points="1475,455.7441,1485,459.7441,1475,463.7441,1479,459.7441" style="stroke:#181818;stroke-width:1.0;"/><line style="stroke:#181818;stroke-width:1.0;" x1="673" x2="1481" y1="459.7441" y2="459.7441"/><text fill="#000000" font-family="sans-serif" font-size="13" lengthAdjust="spacing" textLength="73" x="680" y="454.4814">new Staff(...)</text><polygon fill="#181818" points="684,487.0352,674,491.0352,684,495.0352,680,491.0352" style="stroke:#181818;stroke-width:1.0;"/><line style="stroke:#181818;stroke-width:1.0;stroke-dasharray:2.0,2.0;" x1="678" x2="1491" y1="491.0352" y2="491.0352"/><text fill="#000000" font-family="sans-serif" font-size="13" lengthAdjust="spacing" textLength="24" x="690" y="485.7725">staff</text><polygon fill="#181818" points="497,518.3262,487,522.3262,497,526.3262,493,522.3262" style="stroke:#181818;stroke-width:1.0;"/><line style="stroke:#181818;stroke-width:1.0;stroke-dasharray:2.0,2.0;" x1="491" x2="667" y1="522.3262" y2="522.3262"/><text fill="#000000" font-family="sans-serif" font-size="13" lengthAdjust="spacing" textLength="24" x="503" y="517.0635">staff</text><polygon fill="#181818" points="1008,549.6172,1018,553.6172,1008,557.6172,1012,553.6172" style="stroke:#181818;stroke-width:1.0;"/><line style="stroke:#181818;stroke-width:1.0;" x1="486" x2="1014" y1="553.6172" y2="553.6172"/><text fill="#000000" font-family="sans-serif" font-size="13" lengthAdjust="spacing" textLength="55" x="493" y="548.3545">Add(staff)</text><polygon fill="#181818" points="1224,580.9082,1234,584.9082,1224,588.9082,1228,584.9082" style="stroke:#181818;stroke-width:1.0;"/><line style="stroke:#181818;stroke-width:1.0;" x1="1030" x2="1230" y1="584.9082" y2="584.9082"/><text fill="#000000" font-family="sans-serif" font-size="13" lengthAdjust="spacing" textLength="108" x="1037" y="579.6455">ToDataModel(staff)</text><polygon fill="#181818" points="1541,612.1992,1551,616.1992,1541,620.1992,1545,616.1992" style="stroke:#181818;stroke-width:1.0;"/><line style="stroke:#181818;stroke-width:1.0;" x1="1246" x2="1547" y1="616.1992" y2="616.1992"/><text fill="#000000" font-family="sans-serif" font-size="13" lengthAdjust="spacing" textLength="147" x="1253" y="610.9365">new StaffDataModel(staff)</text><polygon fill="#181818" points="1257,643.4902,1247,647.4902,1257,651.4902,1253,647.4902" style="stroke:#181818;stroke-width:1.0;"/><line style="stroke:#181818;stroke-width:1.0;stroke-dasharray:2.0,2.0;" x1="1251" x2="1557" y1="647.4902" y2="647.4902"/><text fill="#000000" font-family="sans-serif" font-size="13" lengthAdjust="spacing" textLength="86" x="1263" y="642.2275">staffDataModel</text><polygon fill="#181818" points="1041,674.7813,1031,678.7813,1041,682.7813,1037,678.7813" style="stroke:#181818;stroke-width:1.0;"/><line style="stroke:#181818;stroke-width:1.0;stroke-dasharray:2.0,2.0;" x1="1035" x2="1240" y1="678.7813" y2="678.7813"/><text fill="#000000" font-family="sans-serif" font-size="13" lengthAdjust="spacing" textLength="86" x="1047" y="673.5186">staffDataModel</text><polygon fill="#181818" points="1631,706.0723,1641,710.0723,1631,714.0723,1635,710.0723" style="stroke:#181818;stroke-width:1.0;"/><line style="stroke:#181818;stroke-width:1.0;" x1="1030" x2="1637" y1="710.0723" y2="710.0723"/><text fill="#000000" font-family="sans-serif" font-size="13" lengthAdjust="spacing" textLength="116" x="1037" y="704.8096">save staffDataModel</text><polygon fill="#181818" points="1224,767.3633,1234,771.3633,1224,775.3633,1228,771.3633" style="stroke:#181818;stroke-width:1.0;"/><line style="stroke:#181818;stroke-width:1.0;" x1="1030" x2="1230" y1="771.3633" y2="771.3633"/><text fill="#000000" font-family="sans-serif" font-size="13" lengthAdjust="spacing" textLength="187" x="1037" y="766.1006">ToDomain(staffDataModelSaved)</text><polygon fill="#181818" points="1305.5,798.6543,1315.5,802.6543,1305.5,806.6543,1309.5,802.6543" style="stroke:#181818;stroke-width:1.0;"/><line style="stroke:#181818;stroke-width:1.0;" x1="1246" x2="1311.5" y1="802.6543" y2="802.6543"/><text fill="#000000" font-family="sans-serif" font-size="13" lengthAdjust="spacing" textLength="52" x="1253" y="797.3916">NewX(...)</text><polygon fill="#181818" points="1387,829.9453,1397,833.9453,1387,837.9453,1391,833.9453" style="stroke:#181818;stroke-width:1.0;"/><line style="stroke:#181818;stroke-width:1.0;" x1="1322.5" x2="1393" y1="833.9453" y2="833.9453"/><text fill="#000000" font-family="sans-serif" font-size="13" lengthAdjust="spacing" textLength="52" x="1329.5" y="828.6826">NewX(...)</text><polygon fill="#181818" points="1480,861.2363,1490,865.2363,1480,869.2363,1484,865.2363" style="stroke:#181818;stroke-width:1.0;"/><line style="stroke:#181818;stroke-width:1.0;" x1="1404" x2="1486" y1="865.2363" y2="865.2363"/><text fill="#000000" font-family="sans-serif" font-size="13" lengthAdjust="spacing" textLength="54" x="1411" y="859.9736">new X(...)</text><polygon fill="#181818" points="1041,892.5273,1031,896.5273,1041,900.5273,1037,896.5273" style="stroke:#181818;stroke-width:1.0;"/><line style="stroke:#181818;stroke-width:1.0;stroke-dasharray:2.0,2.0;" x1="1035" x2="1240" y1="896.5273" y2="896.5273"/><text fill="#000000" font-family="sans-serif" font-size="13" lengthAdjust="spacing" textLength="59" x="1047" y="891.2646">staffSaved</text><polygon fill="#181818" points="882,923.8184,872,927.8184,882,931.8184,878,927.8184" style="stroke:#181818;stroke-width:1.0;"/><line style="stroke:#181818;stroke-width:1.0;stroke-dasharray:2.0,2.0;" x1="876" x2="1019" y1="927.8184" y2="927.8184"/><text fill="#000000" font-family="sans-serif" font-size="13" lengthAdjust="spacing" textLength="59" x="888" y="922.5557">staffSaved</text><polygon fill="#181818" points="497,955.1094,487,959.1094,497,963.1094,493,959.1094" style="stroke:#181818;stroke-width:1.0;"/><line style="stroke:#181818;stroke-width:1.0;stroke-dasharray:2.0,2.0;" x1="491" x2="865" y1="959.1094" y2="959.1094"/><text fill="#000000" font-family="sans-serif" font-size="13" lengthAdjust="spacing" textLength="59" x="503" y="953.8467">staffSaved</text><polygon fill="#181818" points="759,986.4004,769,990.4004,759,994.4004,763,990.4004" style="stroke:#181818;stroke-width:1.0;"/><line style="stroke:#181818;stroke-width:1.0;" x1="486" x2="765" y1="990.4004" y2="990.4004"/><text fill="#000000" font-family="sans-serif" font-size="13" lengthAdjust="spacing" textLength="107" x="493" y="985.1377">ToDTO(staffSaved)</text><polygon fill="#181818" points="497,1017.6914,487,1021.6914,497,1025.6914,493,1021.6914" style="stroke:#181818;stroke-width:1.0;"/><line style="stroke:#181818;stroke-width:1.0;stroke-dasharray:2.0,2.0;" x1="491" x2="775" y1="1021.6914" y2="1021.6914"/><text fill="#000000" font-family="sans-serif" font-size="13" lengthAdjust="spacing" textLength="50" x="503" y="1016.4287">staffDTO</text><polygon fill="#181818" points="303,1048.9824,293,1052.9824,303,1056.9824,299,1052.9824" style="stroke:#181818;stroke-width:1.0;"/><line style="stroke:#181818;stroke-width:1.0;" x1="297" x2="480" y1="1052.9824" y2="1052.9824"/><text fill="#000000" font-family="sans-serif" font-size="13" lengthAdjust="spacing" textLength="97" x="309" y="1047.7197">present staffDTO</text><polygon fill="#181818" points="62,1062.9824,52,1066.9824,62,1070.9824,58,1066.9824" style="stroke:#181818;stroke-width:1.0;"/><line style="stroke:#181818;stroke-width:1.0;stroke-dasharray:2.0,2.0;" x1="56" x2="281" y1="1066.9824" y2="1066.9824"/><path d="M10,1081.9824 L71,1081.9824 L71,1091.2734 L61,1101.2734 L10,1101.2734 L10,1081.9824 " fill="#EEEEEE" style="stroke:#000000;stroke-width:1.5;"/><rect fill="none" height="98.5039" style="stroke:#000000;stroke-width:1.5;" width="329" x="10" y="1081.9824"/><text fill="#000000" font-family="sans-serif" font-size="13" font-weight="bold" lengthAdjust="spacing" textLength="16" x="25" y="1097.0107">alt</text><text fill="#000000" font-family="sans-serif" font-size="11" font-weight="bold" lengthAdjust="spacing" textLength="102" x="86" y="1095.8525">[caso de sucesso]</text><polygon fill="#181818" points="62,1120.5645,52,1124.5645,62,1128.5645,58,1124.5645" style="stroke:#181818;stroke-width:1.0;"/><line style="stroke:#181818;stroke-width:1.0;stroke-dasharray:2.0,2.0;" x1="56" x2="281" y1="1124.5645" y2="1124.5645"/><text fill="#000000" font-family="sans-serif" font-size="13" lengthAdjust="spacing" textLength="167" x="68" y="1119.3018">Envia um c&#243;digo 201 (POST)</text><line style="stroke:#000000;stroke-width:1.0;stroke-dasharray:2.0,2.0;" x1="10" x2="339" y1="1133.5645" y2="1133.5645"/><text fill="#000000" font-family="sans-serif" font-size="11" font-weight="bold" lengthAdjust="spacing" textLength="112" x="15" y="1145.4346">[caso de insucesso]</text><polygon fill="#181818" points="62,1168.4863,52,1172.4863,62,1176.4863,58,1172.4863" style="stroke:#181818;stroke-width:1.0;"/><line style="stroke:#181818;stroke-width:1.0;stroke-dasharray:2.0,2.0;" x1="56" x2="281" y1="1172.4863" y2="1172.4863"/><text fill="#000000" font-family="sans-serif" font-size="13" lengthAdjust="spacing" textLength="207" x="68" y="1167.2236">Envia um c&#243;digo 404 (NOT FOUND)</text><!--SRC=[bLNDRXen4BxxANnSf1QbLKuSAgKXgJWae42blLNkUY2MblNADYGyLn-XBzRns6RjXHpAWVLwlc_i-UPdUs6SQbGlEiTVzC415vORls1zPghlTUUCRbim7j0uqvRsDPYZQeXjZqrXkpSW7DJppT9RfTE5TMN0GkUIkG-l-5QW5lKBzDe3bC55UNOoNLgUHD-76-zfDVBvA1gdpOdSRiEwv6U0gtOArudjjjoU2oUUj8IMxCqhxCMbcl3kICgmP0pzgoCA5TLdzE2Vlv7OVCPNshgwoiHynx_9GAESC08Z2PE0d3ifAm_xn7-1CTeyWRLY1pQZ-MnvC798McJz05T_FotadJrrJQLaXWxg1o0o8a7j-nRsc3RBwuTtPPsjJXCcOKGR8lHlJBHUGI0yu_WBNi-NhtaZEluR8wEO9OFM0kP1jGS3rmcYHQWy9QVGIPPV8vpRQRzKkrV7zJPIBG3VGGS6OR-KdFQ7VSktsl2rpox7q9GxNQTwr4euXPY4YthYmuiPlDOBMKsdqmbBLcm4P6_qNE-5wYeg8qeLhHQe-Y2ORnhc2TwhDyzu1s_XSj7ha52gHqOF4WTvixIRYP5st5d2QoWwETxOonTgYd3veK7PL1QXsIYur0c9ScR4XcJXIO5HesIHVKoEFSN2a-wVphG5imWuajA9vuX6b9oJRfaYYzsA7764CN5enTJJcQUqTqMZl02IipNwBqeWtcIGAqsi6N-6jpfKmT1mQLonjFAKAuoyIHFdl7DsCYgQp6LMZPSU4_-owaOvu3495FN7-gSPLQ0_64v5IL_u3T1KsCD7X_AnMLO3AnCr-pQnOJqwobkpWt9EFCsFw5ao3AH29HpASPHxXUY3uCTb8wpc4ks71YUvfY5Omb39X-we13_iUVFtZrGxpR_UVE7LQhdUJC88JLvKztz-RczkUVMytF37vS_d-OJ6QrxX_WEKJrkwzZy0]--></g></svg>