<?xml version="1.0" encoding="us-ascii" standalone="no"?><svg xmlns="http://www.w3.org/2000/svg" xmlns:xlink="http://www.w3.org/1999/xlink" contentStyleType="text/css" height="814px" preserveAspectRatio="none" style="width:864px;height:814px;background:#FFFFFF;" version="1.1" viewBox="0 0 864 814" width="864px" zoomAndPan="magnify"><defs/><g><!--cluster Patient Aggregate--><g id="cluster_Patient Aggregate"><rect fill="#FABFDD" height="801" rx="2.5" ry="2.5" style="stroke:#181818;stroke-width:1.0;" width="851" x="7" y="7"/><text fill="#000000" font-family="sans-serif" font-size="14" font-weight="bold" lengthAdjust="spacing" textLength="126" x="369.5" y="24.1074">Patient Aggregate</text></g><!--class Patient--><g id="elem_Patient"><rect codeLine="3" fill="#F1F1F1" height="76.543" id="Patient" rx="2.5" ry="2.5" style="stroke:#181818;stroke-width:0.5;" width="125" x="348.5" y="240"/><ellipse cx="363.5" cy="270.2715" fill="#ADD1B2" rx="11" ry="11" style="stroke:#181818;stroke-width:1.0;"/><path d="M366.2656,266.1465 Q366.4219,265.9277 366.6094,265.8184 Q366.7969,265.709 367.0156,265.709 Q367.3906,265.709 367.625,265.9746 Q367.8594,266.2246 367.8594,266.834 L367.8594,268.2871 Q367.8594,268.8965 367.625,269.1621 Q367.3906,269.4277 367.0156,269.4277 Q366.6719,269.4277 366.4688,269.2246 Q366.2656,269.0371 366.1563,268.5215 Q366.1094,268.1621 365.9219,267.9746 Q365.5938,267.5996 364.9844,267.3809 Q364.375,267.1621 363.75,267.1621 Q362.9844,267.1621 362.3438,267.4902 Q361.7188,267.8184 361.2188,268.5684 Q360.7344,269.3184 360.7344,270.3496 L360.7344,271.4434 Q360.7344,272.6777 361.625,273.5059 Q362.5156,274.3184 364.1094,274.3184 Q365.0469,274.3184 365.7031,274.0684 Q366.0938,273.9121 366.5156,273.4746 Q366.7813,273.209 366.9219,273.1309 Q367.0781,273.0527 367.2813,273.0527 Q367.6094,273.0527 367.8594,273.3184 Q368.125,273.5684 368.125,273.9121 Q368.125,274.2559 367.7813,274.6621 Q367.2813,275.2402 366.4844,275.5684 Q365.4063,276.0215 364.1094,276.0215 Q362.5938,276.0215 361.3906,275.3965 Q360.4063,274.8965 359.7188,273.834 Q359.0313,272.7559 359.0313,271.4746 L359.0313,270.3184 Q359.0313,268.9902 359.6406,267.8496 Q360.2656,266.6934 361.3594,266.084 Q362.4531,265.459 363.6875,265.459 Q364.4219,265.459 365.0625,265.6309 Q365.7188,265.7871 366.2656,266.1465 Z " fill="#000000"/><text fill="#000000" font-family="sans-serif" font-size="12" font-style="italic" lengthAdjust="spacing" textLength="97" x="375.5" y="257.9492">&#171;AggregateRoot&#187;</text><text fill="#000000" font-family="sans-serif" font-size="12" font-style="italic" lengthAdjust="spacing" textLength="44" x="402" y="273.9102">&#171;Entity&#187;</text><text fill="#000000" font-family="sans-serif" font-size="14" lengthAdjust="spacing" textLength="44" x="402" y="292.0293">Patient</text><line style="stroke:#181818;stroke-width:0.5;" x1="349.5" x2="472.5" y1="300.543" y2="300.543"/><line style="stroke:#181818;stroke-width:0.5;" x1="349.5" x2="472.5" y1="308.543" y2="308.543"/></g><!--class MedicalRecordNum--><g id="elem_MedicalRecordNum"><rect codeLine="4" fill="#F1F1F1" height="95.1641" id="MedicalRecordNum" rx="2.5" ry="2.5" style="stroke:#181818;stroke-width:0.5;" width="189" x="219.5" y="54.5"/><ellipse cx="250.25" cy="84.7715" fill="#FFC0CB" rx="11" ry="11" style="stroke:#181818;stroke-width:1.0;"/><path d="M250.8438,88.0371 L253.3125,82.1621 L252.9219,82.1621 Q252.3125,82.1621 252.0469,81.9277 Q251.7813,81.6934 251.7813,81.3027 Q251.7813,80.9277 252.0469,80.6934 Q252.3125,80.459 252.9219,80.459 L255.2031,80.459 Q255.8125,80.459 256.0781,80.6934 Q256.3438,80.9277 256.3438,81.3027 Q256.3438,81.7715 255.9375,82.0371 Q255.75,82.1621 255.1563,82.1621 L251.6719,90.5215 L250.0313,90.5215 L246.5469,82.1621 Q245.9531,82.1621 245.7656,82.0371 Q245.3594,81.7715 245.3594,81.3027 Q245.3594,80.9277 245.625,80.6934 Q245.8906,80.459 246.5,80.459 L248.7969,80.459 Q249.4063,80.459 249.6563,80.6934 Q249.9219,80.9277 249.9219,81.3027 Q249.9219,81.6934 249.6563,81.9277 Q249.4063,82.1621 248.7969,82.1621 L248.3906,82.1621 L250.8438,88.0371 Z " fill="#000000"/><text fill="#000000" font-family="sans-serif" font-size="12" font-style="italic" lengthAdjust="spacing" textLength="85" x="286.25" y="72.4492">&#171;Value Object&#187;</text><text fill="#000000" font-family="sans-serif" font-size="12" font-style="italic" lengthAdjust="spacing" textLength="61" x="298.25" y="88.4102">&#171;identifier&#187;</text><text fill="#000000" font-family="sans-serif" font-size="14" lengthAdjust="spacing" textLength="122" x="267.75" y="106.5293">MedicalRecordNum</text><line style="stroke:#181818;stroke-width:0.5;" x1="220.5" x2="407.5" y1="115.043" y2="115.043"/><rect fill="none" height="6" style="stroke:#C82930;stroke-width:1.0;" width="6" x="227.5" y="126.8535"/><text fill="#000000" font-family="sans-serif" font-size="14" lengthAdjust="spacing" textLength="163" x="239.5" y="134.1504">String medicalRecordNum</text><line style="stroke:#181818;stroke-width:0.5;" x1="220.5" x2="407.5" y1="141.6641" y2="141.6641"/></g><!--class Name--><g id="elem_Name"><rect codeLine="7" fill="#F1F1F1" height="116.4453" id="Name" rx="2.5" ry="2.5" style="stroke:#181818;stroke-width:0.5;" width="126" x="444" y="44"/><ellipse cx="464.85" cy="66.291" fill="#FFC0CB" rx="11" ry="11" style="stroke:#181818;stroke-width:1.0;"/><path d="M465.4438,69.5566 L467.9125,63.6816 L467.5219,63.6816 Q466.9125,63.6816 466.6469,63.4473 Q466.3813,63.2129 466.3813,62.8223 Q466.3813,62.4473 466.6469,62.2129 Q466.9125,61.9785 467.5219,61.9785 L469.8031,61.9785 Q470.4125,61.9785 470.6781,62.2129 Q470.9438,62.4473 470.9438,62.8223 Q470.9438,63.291 470.5375,63.5566 Q470.35,63.6816 469.7563,63.6816 L466.2719,72.041 L464.6313,72.041 L461.1469,63.6816 Q460.5531,63.6816 460.3656,63.5566 Q459.9594,63.291 459.9594,62.8223 Q459.9594,62.4473 460.225,62.2129 Q460.4906,61.9785 461.1,61.9785 L463.3969,61.9785 Q464.0063,61.9785 464.2563,62.2129 Q464.5219,62.4473 464.5219,62.8223 Q464.5219,63.2129 464.2563,63.4473 Q464.0063,63.6816 463.3969,63.6816 L462.9906,63.6816 L465.4438,69.5566 Z " fill="#000000"/><text fill="#000000" font-family="sans-serif" font-size="12" font-style="italic" lengthAdjust="spacing" textLength="85" x="478.15" y="61.9492">&#171;Value Object&#187;</text><text fill="#000000" font-family="sans-serif" font-size="14" lengthAdjust="spacing" textLength="36" x="502.65" y="80.0684">Name</text><line style="stroke:#181818;stroke-width:0.5;" x1="445" x2="569" y1="88.582" y2="88.582"/><rect fill="none" height="6" style="stroke:#C82930;stroke-width:1.0;" width="6" x="452" y="100.3926"/><text fill="#000000" font-family="sans-serif" font-size="14" lengthAdjust="spacing" textLength="100" x="464" y="107.6895">String firstName</text><rect fill="none" height="6" style="stroke:#C82930;stroke-width:1.0;" width="6" x="452" y="119.0137"/><text fill="#000000" font-family="sans-serif" font-size="14" lengthAdjust="spacing" textLength="99" x="464" y="126.3105">String lastName</text><rect fill="none" height="6" style="stroke:#C82930;stroke-width:1.0;" width="6" x="452" y="137.6348"/><text fill="#000000" font-family="sans-serif" font-size="14" lengthAdjust="spacing" textLength="95" x="464" y="144.9316">String fullName</text><line style="stroke:#181818;stroke-width:0.5;" x1="445" x2="569" y1="152.4453" y2="152.4453"/></g><!--class DateOfBirth--><g id="elem_DateOfBirth"><rect codeLine="12" fill="#F1F1F1" height="79.2031" id="DateOfBirth" rx="2.5" ry="2.5" style="stroke:#181818;stroke-width:0.5;" width="132" x="139" y="239"/><ellipse cx="162.55" cy="261.291" fill="#FFC0CB" rx="11" ry="11" style="stroke:#181818;stroke-width:1.0;"/><path d="M163.1438,264.5566 L165.6125,258.6816 L165.2219,258.6816 Q164.6125,258.6816 164.3469,258.4473 Q164.0813,258.2129 164.0813,257.8223 Q164.0813,257.4473 164.3469,257.2129 Q164.6125,256.9785 165.2219,256.9785 L167.5031,256.9785 Q168.1125,256.9785 168.3781,257.2129 Q168.6438,257.4473 168.6438,257.8223 Q168.6438,258.291 168.2375,258.5566 Q168.05,258.6816 167.4563,258.6816 L163.9719,267.041 L162.3313,267.041 L158.8469,258.6816 Q158.2531,258.6816 158.0656,258.5566 Q157.6594,258.291 157.6594,257.8223 Q157.6594,257.4473 157.925,257.2129 Q158.1906,256.9785 158.8,256.9785 L161.0969,256.9785 Q161.7063,256.9785 161.9563,257.2129 Q162.2219,257.4473 162.2219,257.8223 Q162.2219,258.2129 161.9563,258.4473 Q161.7063,258.6816 161.0969,258.6816 L160.6906,258.6816 L163.1438,264.5566 Z " fill="#000000"/><text fill="#000000" font-family="sans-serif" font-size="12" font-style="italic" lengthAdjust="spacing" textLength="85" x="176.45" y="256.9492">&#171;Value Object&#187;</text><text fill="#000000" font-family="sans-serif" font-size="14" lengthAdjust="spacing" textLength="74" x="181.95" y="275.0684">DateOfBirth</text><line style="stroke:#181818;stroke-width:0.5;" x1="140" x2="270" y1="283.582" y2="283.582"/><rect fill="none" height="6" style="stroke:#C82930;stroke-width:1.0;" width="6" x="147" y="295.3926"/><text fill="#000000" font-family="sans-serif" font-size="14" lengthAdjust="spacing" textLength="106" x="159" y="302.6895">Date dateOfBirth</text><line style="stroke:#181818;stroke-width:0.5;" x1="140" x2="270" y1="310.2031" y2="310.2031"/></g><!--class Gender--><g id="elem_Gender"><rect codeLine="15" fill="#F1F1F1" height="79.2031" id="Gender" rx="2.5" ry="2.5" style="stroke:#181818;stroke-width:0.5;" width="205" x="614.5" y="239"/><ellipse cx="672.25" cy="261.291" fill="#FFC0CB" rx="11" ry="11" style="stroke:#181818;stroke-width:1.0;"/><path d="M672.8438,264.5566 L675.3125,258.6816 L674.9219,258.6816 Q674.3125,258.6816 674.0469,258.4473 Q673.7813,258.2129 673.7813,257.8223 Q673.7813,257.4473 674.0469,257.2129 Q674.3125,256.9785 674.9219,256.9785 L677.2031,256.9785 Q677.8125,256.9785 678.0781,257.2129 Q678.3438,257.4473 678.3438,257.8223 Q678.3438,258.291 677.9375,258.5566 Q677.75,258.6816 677.1563,258.6816 L673.6719,267.041 L672.0313,267.041 L668.5469,258.6816 Q667.9531,258.6816 667.7656,258.5566 Q667.3594,258.291 667.3594,257.8223 Q667.3594,257.4473 667.625,257.2129 Q667.8906,256.9785 668.5,256.9785 L670.7969,256.9785 Q671.4063,256.9785 671.6563,257.2129 Q671.9219,257.4473 671.9219,257.8223 Q671.9219,258.2129 671.6563,258.4473 Q671.4063,258.6816 670.7969,258.6816 L670.3906,258.6816 L672.8438,264.5566 Z " fill="#000000"/><text fill="#000000" font-family="sans-serif" font-size="12" font-style="italic" lengthAdjust="spacing" textLength="85" x="690.75" y="256.9492">&#171;Value Object&#187;</text><text fill="#000000" font-family="sans-serif" font-size="14" lengthAdjust="spacing" textLength="48" x="709.25" y="275.0684">Gender</text><line style="stroke:#181818;stroke-width:0.5;" x1="615.5" x2="818.5" y1="283.582" y2="283.582"/><rect fill="none" height="6" style="stroke:#C82930;stroke-width:1.0;" width="6" x="622.5" y="295.3926"/><text fill="#000000" font-family="sans-serif" font-size="14" lengthAdjust="spacing" textLength="179" x="634.5" y="302.6895">String gender OR Enum ???</text><line style="stroke:#181818;stroke-width:0.5;" x1="615.5" x2="818.5" y1="310.2031" y2="310.2031"/></g><!--class ContactInfo--><g id="elem_ContactInfo"><rect codeLine="18" fill="#F1F1F1" height="97.8242" id="ContactInfo" rx="2.5" ry="2.5" style="stroke:#181818;stroke-width:0.5;" width="213" x="23.5" y="397"/><ellipse cx="85.25" cy="419.291" fill="#FFC0CB" rx="11" ry="11" style="stroke:#181818;stroke-width:1.0;"/><path d="M85.8438,422.5566 L88.3125,416.6816 L87.9219,416.6816 Q87.3125,416.6816 87.0469,416.4473 Q86.7813,416.2129 86.7813,415.8223 Q86.7813,415.4473 87.0469,415.2129 Q87.3125,414.9785 87.9219,414.9785 L90.2031,414.9785 Q90.8125,414.9785 91.0781,415.2129 Q91.3438,415.4473 91.3438,415.8223 Q91.3438,416.291 90.9375,416.5566 Q90.75,416.6816 90.1563,416.6816 L86.6719,425.041 L85.0313,425.041 L81.5469,416.6816 Q80.9531,416.6816 80.7656,416.5566 Q80.3594,416.291 80.3594,415.8223 Q80.3594,415.4473 80.625,415.2129 Q80.8906,414.9785 81.5,414.9785 L83.7969,414.9785 Q84.4063,414.9785 84.6563,415.2129 Q84.9219,415.4473 84.9219,415.8223 Q84.9219,416.2129 84.6563,416.4473 Q84.4063,416.6816 83.7969,416.6816 L83.3906,416.6816 L85.8438,422.5566 Z " fill="#000000"/><text fill="#000000" font-family="sans-serif" font-size="12" font-style="italic" lengthAdjust="spacing" textLength="85" x="103.75" y="414.9492">&#171;Value Object&#187;</text><text fill="#000000" font-family="sans-serif" font-size="14" lengthAdjust="spacing" textLength="72" x="110.25" y="433.0684">ContactInfo</text><line style="stroke:#181818;stroke-width:0.5;" x1="24.5" x2="235.5" y1="441.582" y2="441.582"/><rect fill="none" height="6" style="stroke:#C82930;stroke-width:1.0;" width="6" x="31.5" y="453.3926"/><text fill="#000000" font-family="sans-serif" font-size="14" lengthAdjust="spacing" textLength="131" x="43.5" y="460.6895">String email -unique-</text><rect fill="none" height="6" style="stroke:#C82930;stroke-width:1.0;" width="6" x="31.5" y="472.0137"/><text fill="#000000" font-family="sans-serif" font-size="14" lengthAdjust="spacing" textLength="187" x="43.5" y="479.3105">String phoneNumber -unique-</text><line style="stroke:#181818;stroke-width:0.5;" x1="24.5" x2="235.5" y1="486.8242" y2="486.8242"/></g><!--class EmergencyContact--><g id="elem_EmergencyContact"><rect codeLine="22" fill="#F1F1F1" height="79.2031" id="EmergencyContact" rx="2.5" ry="2.5" style="stroke:#181818;stroke-width:0.5;" width="152" x="272" y="406.5"/><ellipse cx="287" cy="428.791" fill="#FFC0CB" rx="11" ry="11" style="stroke:#181818;stroke-width:1.0;"/><path d="M287.5938,432.0566 L290.0625,426.1816 L289.6719,426.1816 Q289.0625,426.1816 288.7969,425.9473 Q288.5313,425.7129 288.5313,425.3223 Q288.5313,424.9473 288.7969,424.7129 Q289.0625,424.4785 289.6719,424.4785 L291.9531,424.4785 Q292.5625,424.4785 292.8281,424.7129 Q293.0938,424.9473 293.0938,425.3223 Q293.0938,425.791 292.6875,426.0566 Q292.5,426.1816 291.9063,426.1816 L288.4219,434.541 L286.7813,434.541 L283.2969,426.1816 Q282.7031,426.1816 282.5156,426.0566 Q282.1094,425.791 282.1094,425.3223 Q282.1094,424.9473 282.375,424.7129 Q282.6406,424.4785 283.25,424.4785 L285.5469,424.4785 Q286.1563,424.4785 286.4063,424.7129 Q286.6719,424.9473 286.6719,425.3223 Q286.6719,425.7129 286.4063,425.9473 Q286.1563,426.1816 285.5469,426.1816 L285.1406,426.1816 L287.5938,432.0566 Z " fill="#000000"/><text fill="#000000" font-family="sans-serif" font-size="12" font-style="italic" lengthAdjust="spacing" textLength="85" x="318.5" y="424.4492">&#171;Value Object&#187;</text><text fill="#000000" font-family="sans-serif" font-size="14" lengthAdjust="spacing" textLength="120" x="301" y="442.5684">EmergencyContact</text><line style="stroke:#181818;stroke-width:0.5;" x1="273" x2="423" y1="451.082" y2="451.082"/><rect fill="none" height="6" style="stroke:#C82930;stroke-width:1.0;" width="6" x="280" y="462.8926"/><text fill="#000000" font-family="sans-serif" font-size="14" lengthAdjust="spacing" textLength="65" x="292" y="470.1895">int contact</text><line style="stroke:#181818;stroke-width:0.5;" x1="273" x2="423" y1="477.7031" y2="477.7031"/></g><!--class MedicalCondition_Record--><g id="elem_MedicalCondition_Record"><rect codeLine="35" fill="#F1F1F1" height="60.582" id="MedicalCondition_Record" rx="2.5" ry="2.5" style="stroke:#181818;stroke-width:0.5;" width="194" x="459" y="415.5"/><ellipse cx="474" cy="437.791" fill="#ADD1B2" rx="11" ry="11" style="stroke:#181818;stroke-width:1.0;"/><path d="M476.7656,433.666 Q476.9219,433.4473 477.1094,433.3379 Q477.2969,433.2285 477.5156,433.2285 Q477.8906,433.2285 478.125,433.4941 Q478.3594,433.7441 478.3594,434.3535 L478.3594,435.8066 Q478.3594,436.416 478.125,436.6816 Q477.8906,436.9473 477.5156,436.9473 Q477.1719,436.9473 476.9688,436.7441 Q476.7656,436.5566 476.6563,436.041 Q476.6094,435.6816 476.4219,435.4941 Q476.0938,435.1191 475.4844,434.9004 Q474.875,434.6816 474.25,434.6816 Q473.4844,434.6816 472.8438,435.0098 Q472.2188,435.3379 471.7188,436.0879 Q471.2344,436.8379 471.2344,437.8691 L471.2344,438.9629 Q471.2344,440.1973 472.125,441.0254 Q473.0156,441.8379 474.6094,441.8379 Q475.5469,441.8379 476.2031,441.5879 Q476.5938,441.4316 477.0156,440.9941 Q477.2813,440.7285 477.4219,440.6504 Q477.5781,440.5723 477.7813,440.5723 Q478.1094,440.5723 478.3594,440.8379 Q478.625,441.0879 478.625,441.4316 Q478.625,441.7754 478.2813,442.1816 Q477.7813,442.7598 476.9844,443.0879 Q475.9063,443.541 474.6094,443.541 Q473.0938,443.541 471.8906,442.916 Q470.9063,442.416 470.2188,441.3535 Q469.5313,440.2754 469.5313,438.9941 L469.5313,437.8379 Q469.5313,436.5098 470.1406,435.3691 Q470.7656,434.2129 471.8594,433.6035 Q472.9531,432.9785 474.1875,432.9785 Q474.9219,432.9785 475.5625,433.1504 Q476.2188,433.3066 476.7656,433.666 Z " fill="#000000"/><text fill="#000000" font-family="sans-serif" font-size="12" font-style="italic" lengthAdjust="spacing" textLength="44" x="547" y="433.4492">&#171;Entity&#187;</text><text fill="#000000" font-family="sans-serif" font-size="14" lengthAdjust="spacing" textLength="162" x="488" y="451.5684">MedicalCondition_Record</text><line style="stroke:#181818;stroke-width:0.5;" x1="460" x2="652" y1="460.082" y2="460.082"/><line style="stroke:#181818;stroke-width:0.5;" x1="460" x2="652" y1="468.082" y2="468.082"/></g><!--class AppointmentHistory--><g id="elem_AppointmentHistory"><rect codeLine="51" fill="#F1F1F1" height="60.582" id="AppointmentHistory" rx="2.5" ry="2.5" style="stroke:#181818;stroke-width:0.5;" width="154" x="688" y="415.5"/><ellipse cx="703" cy="437.791" fill="#ADD1B2" rx="11" ry="11" style="stroke:#181818;stroke-width:1.0;"/><path d="M705.7656,433.666 Q705.9219,433.4473 706.1094,433.3379 Q706.2969,433.2285 706.5156,433.2285 Q706.8906,433.2285 707.125,433.4941 Q707.3594,433.7441 707.3594,434.3535 L707.3594,435.8066 Q707.3594,436.416 707.125,436.6816 Q706.8906,436.9473 706.5156,436.9473 Q706.1719,436.9473 705.9688,436.7441 Q705.7656,436.5566 705.6563,436.041 Q705.6094,435.6816 705.4219,435.4941 Q705.0938,435.1191 704.4844,434.9004 Q703.875,434.6816 703.25,434.6816 Q702.4844,434.6816 701.8438,435.0098 Q701.2188,435.3379 700.7188,436.0879 Q700.2344,436.8379 700.2344,437.8691 L700.2344,438.9629 Q700.2344,440.1973 701.125,441.0254 Q702.0156,441.8379 703.6094,441.8379 Q704.5469,441.8379 705.2031,441.5879 Q705.5938,441.4316 706.0156,440.9941 Q706.2813,440.7285 706.4219,440.6504 Q706.5781,440.5723 706.7813,440.5723 Q707.1094,440.5723 707.3594,440.8379 Q707.625,441.0879 707.625,441.4316 Q707.625,441.7754 707.2813,442.1816 Q706.7813,442.7598 705.9844,443.0879 Q704.9063,443.541 703.6094,443.541 Q702.0938,443.541 700.8906,442.916 Q699.9063,442.416 699.2188,441.3535 Q698.5313,440.2754 698.5313,438.9941 L698.5313,437.8379 Q698.5313,436.5098 699.1406,435.3691 Q699.7656,434.2129 700.8594,433.6035 Q701.9531,432.9785 703.1875,432.9785 Q703.9219,432.9785 704.5625,433.1504 Q705.2188,433.3066 705.7656,433.666 Z " fill="#000000"/><text fill="#000000" font-family="sans-serif" font-size="12" font-style="italic" lengthAdjust="spacing" textLength="44" x="756" y="433.4492">&#171;Entity&#187;</text><text fill="#000000" font-family="sans-serif" font-size="14" lengthAdjust="spacing" textLength="122" x="717" y="451.5684">AppointmentHistory</text><line style="stroke:#181818;stroke-width:0.5;" x1="689" x2="841" y1="460.082" y2="460.082"/><line style="stroke:#181818;stroke-width:0.5;" x1="689" x2="841" y1="468.082" y2="468.082"/></g><!--class Condition--><g id="elem_Condition"><rect codeLine="36" fill="#F1F1F1" height="79.2031" id="Condition" rx="2.5" ry="2.5" style="stroke:#181818;stroke-width:0.5;" width="131" x="316.5" y="582"/><ellipse cx="339.6" cy="604.291" fill="#FFC0CB" rx="11" ry="11" style="stroke:#181818;stroke-width:1.0;"/><path d="M340.1938,607.5566 L342.6625,601.6816 L342.2719,601.6816 Q341.6625,601.6816 341.3969,601.4473 Q341.1313,601.2129 341.1313,600.8223 Q341.1313,600.4473 341.3969,600.2129 Q341.6625,599.9785 342.2719,599.9785 L344.5531,599.9785 Q345.1625,599.9785 345.4281,600.2129 Q345.6938,600.4473 345.6938,600.8223 Q345.6938,601.291 345.2875,601.5566 Q345.1,601.6816 344.5063,601.6816 L341.0219,610.041 L339.3813,610.041 L335.8969,601.6816 Q335.3031,601.6816 335.1156,601.5566 Q334.7094,601.291 334.7094,600.8223 Q334.7094,600.4473 334.975,600.2129 Q335.2406,599.9785 335.85,599.9785 L338.1469,599.9785 Q338.7563,599.9785 339.0063,600.2129 Q339.2719,600.4473 339.2719,600.8223 Q339.2719,601.2129 339.0063,601.4473 Q338.7563,601.6816 338.1469,601.6816 L337.7406,601.6816 L340.1938,607.5566 Z " fill="#000000"/><text fill="#000000" font-family="sans-serif" font-size="12" font-style="italic" lengthAdjust="spacing" textLength="85" x="353.4" y="599.9492">&#171;Value Object&#187;</text><text fill="#000000" font-family="sans-serif" font-size="14" lengthAdjust="spacing" textLength="60" x="365.9" y="618.0684">Condition</text><line style="stroke:#181818;stroke-width:0.5;" x1="317.5" x2="446.5" y1="626.582" y2="626.582"/><rect fill="none" height="6" style="stroke:#C82930;stroke-width:1.0;" width="6" x="324.5" y="638.3926"/><text fill="#000000" font-family="sans-serif" font-size="14" lengthAdjust="spacing" textLength="105" x="336.5" y="645.6895">String conditions</text><line style="stroke:#181818;stroke-width:0.5;" x1="317.5" x2="446.5" y1="653.2031" y2="653.2031"/></g><g id="elem_GMN24"><path d="M217,730 L217,791.873 A0,0 0 0 0 217,791.873 L517,791.873 A0,0 0 0 0 517,791.873 L517,740 L507,730 L374.28,730 L377.78,661.17 L366.28,730 L217,730 A0,0 0 0 0 217,730 " fill="#FEFFDD" style="stroke:#181818;stroke-width:0.5;"/><path d="M507,730 L507,740 L517,740 L507,730 " fill="#FEFFDD" style="stroke:#181818;stroke-width:0.5;"/><text fill="#000000" font-family="sans-serif" font-size="13" lengthAdjust="spacing" textLength="279" x="223" y="749.0283">can be the medical history, current medications,</text><text fill="#000000" font-family="sans-serif" font-size="13" lengthAdjust="spacing" textLength="229" x="223" y="766.3193">recent visits and diagnoses, lab results,</text><text fill="#000000" font-family="sans-serif" font-size="13" lengthAdjust="spacing" textLength="244" x="223" y="783.6104">immunizations and plan/recommendations</text></g><!--class RecordDate--><g id="elem_RecordDate"><rect codeLine="44" fill="#F1F1F1" height="95.1641" id="RecordDate" rx="2.5" ry="2.5" style="stroke:#181818;stroke-width:0.5;" width="119" x="508.5" y="574"/><ellipse cx="526.2" cy="604.2715" fill="#FFC0CB" rx="11" ry="11" style="stroke:#181818;stroke-width:1.0;"/><path d="M526.7938,607.5371 L529.2625,601.6621 L528.8719,601.6621 Q528.2625,601.6621 527.9969,601.4277 Q527.7313,601.1934 527.7313,600.8027 Q527.7313,600.4277 527.9969,600.1934 Q528.2625,599.959 528.8719,599.959 L531.1531,599.959 Q531.7625,599.959 532.0281,600.1934 Q532.2938,600.4277 532.2938,600.8027 Q532.2938,601.2715 531.8875,601.5371 Q531.7,601.6621 531.1063,601.6621 L527.6219,610.0215 L525.9813,610.0215 L522.4969,601.6621 Q521.9031,601.6621 521.7156,601.5371 Q521.3094,601.2715 521.3094,600.8027 Q521.3094,600.4277 521.575,600.1934 Q521.8406,599.959 522.45,599.959 L524.7469,599.959 Q525.3563,599.959 525.6063,600.1934 Q525.8719,600.4277 525.8719,600.8027 Q525.8719,601.1934 525.6063,601.4277 Q525.3563,601.6621 524.7469,601.6621 L524.3406,601.6621 L526.7938,607.5371 Z " fill="#000000"/><text fill="#000000" font-family="sans-serif" font-size="12" font-style="italic" lengthAdjust="spacing" textLength="85" x="538.8" y="591.9492">&#171;Value Object&#187;</text><text fill="#000000" font-family="sans-serif" font-size="12" font-style="italic" lengthAdjust="spacing" textLength="61" x="550.8" y="607.9102">&#171;identifier&#187;</text><text fill="#000000" font-family="sans-serif" font-size="14" lengthAdjust="spacing" textLength="76" x="543.3" y="626.0293">RecordDate</text><line style="stroke:#181818;stroke-width:0.5;" x1="509.5" x2="626.5" y1="634.543" y2="634.543"/><rect fill="none" height="6" style="stroke:#C82930;stroke-width:1.0;" width="6" x="516.5" y="646.3535"/><text fill="#000000" font-family="sans-serif" font-size="14" lengthAdjust="spacing" textLength="93" x="528.5" y="653.6504">Date dateTime</text><line style="stroke:#181818;stroke-width:0.5;" x1="509.5" x2="626.5" y1="661.1641" y2="661.1641"/></g><!--class PatientAppointment--><g id="elem_PatientAppointment"><rect codeLine="52" fill="#F1F1F1" height="79.2031" id="PatientAppointment" rx="2.5" ry="2.5" style="stroke:#181818;stroke-width:0.5;" width="155" x="674.5" y="582"/><ellipse cx="689.5" cy="604.291" fill="#FFC0CB" rx="11" ry="11" style="stroke:#181818;stroke-width:1.0;"/><path d="M690.0938,607.5566 L692.5625,601.6816 L692.1719,601.6816 Q691.5625,601.6816 691.2969,601.4473 Q691.0313,601.2129 691.0313,600.8223 Q691.0313,600.4473 691.2969,600.2129 Q691.5625,599.9785 692.1719,599.9785 L694.4531,599.9785 Q695.0625,599.9785 695.3281,600.2129 Q695.5938,600.4473 695.5938,600.8223 Q695.5938,601.291 695.1875,601.5566 Q695,601.6816 694.4063,601.6816 L690.9219,610.041 L689.2813,610.041 L685.7969,601.6816 Q685.2031,601.6816 685.0156,601.5566 Q684.6094,601.291 684.6094,600.8223 Q684.6094,600.4473 684.875,600.2129 Q685.1406,599.9785 685.75,599.9785 L688.0469,599.9785 Q688.6563,599.9785 688.9063,600.2129 Q689.1719,600.4473 689.1719,600.8223 Q689.1719,601.2129 688.9063,601.4473 Q688.6563,601.6816 688.0469,601.6816 L687.6406,601.6816 L690.0938,607.5566 Z " fill="#000000"/><text fill="#000000" font-family="sans-serif" font-size="12" font-style="italic" lengthAdjust="spacing" textLength="85" x="722.5" y="599.9492">&#171;Value Object&#187;</text><text fill="#000000" font-family="sans-serif" font-size="14" lengthAdjust="spacing" textLength="123" x="703.5" y="618.0684">PatientAppointment</text><line style="stroke:#181818;stroke-width:0.5;" x1="675.5" x2="828.5" y1="626.582" y2="626.582"/><rect fill="none" height="6" style="stroke:#C82930;stroke-width:1.0;" width="6" x="682.5" y="638.3926"/><text fill="#000000" font-family="sans-serif" font-size="14" lengthAdjust="spacing" textLength="119" x="694.5" y="645.6895">String appointment</text><line style="stroke:#181818;stroke-width:0.5;" x1="675.5" x2="828.5" y1="653.2031" y2="653.2031"/></g><g id="elem_GMN31"><path d="M552.5,738.5 L552.5,783.082 A0,0 0 0 0 552.5,783.082 L841.5,783.082 A0,0 0 0 0 841.5,783.082 L841.5,748.5 L831.5,738.5 L709.69,738.5 L736.53,661.17 L701.69,738.5 L552.5,738.5 A0,0 0 0 0 552.5,738.5 " fill="#FEFFDD" style="stroke:#181818;stroke-width:0.5;"/><path d="M831.5,738.5 L831.5,748.5 L841.5,748.5 L831.5,738.5 " fill="#FEFFDD" style="stroke:#181818;stroke-width:0.5;"/><text fill="#000000" font-family="sans-serif" font-size="13" lengthAdjust="spacing" textLength="268" x="558.5" y="757.5283">list of surgeries the patient has had in the past</text><text fill="#000000" font-family="sans-serif" font-size="13" lengthAdjust="spacing" textLength="246" x="558.5" y="774.8193">and the scheduled or requested operations</text></g><!--reverse link MedicalRecordNum to Patient--><g id="link_MedicalRecordNum_Patient"><path codeLine="26" d="M331.8201,155.3392 C339.0201,174.2992 346.22,190.46 357,209 C363.09,219.47 370.64,230.09 378.16,239.74 " fill="none" id="MedicalRecordNum-backto-Patient" style="stroke:#181818;stroke-width:1.0;"/><polygon fill="#181818" points="329.69,149.73,329.1456,159.5638,331.4651,154.4043,336.6245,156.7237,329.69,149.73" style="stroke:#181818;stroke-width:1.0;"/><text fill="#000000" font-family="sans-serif" font-size="13" lengthAdjust="spacing" textLength="83" x="358" y="205.0283">is identified by</text><text fill="#000000" font-family="sans-serif" font-size="13" lengthAdjust="spacing" textLength="7" x="324.4042" y="171.6746">1</text><text fill="#000000" font-family="sans-serif" font-size="13" lengthAdjust="spacing" textLength="7" x="364.9141" y="228.7098">1</text></g><!--reverse link Name to Patient--><g id="link_Name_Patient"><path codeLine="27" d="M472.6765,165.3962 C458.2865,191.5362 444.54,216.53 431.75,239.77 " fill="none" id="Name-backto-Patient" style="stroke:#181818;stroke-width:1.0;"/><polygon fill="#181818" points="475.57,160.14,467.7256,166.0953,473.1587,164.5202,474.7338,169.9533,475.57,160.14" style="stroke:#181818;stroke-width:1.0;"/><text fill="#000000" font-family="sans-serif" font-size="13" lengthAdjust="spacing" textLength="104" x="460" y="205.0283">is associated with</text><text fill="#000000" font-family="sans-serif" font-size="13" lengthAdjust="spacing" textLength="7" x="464.3129" y="182.2807">1</text><text fill="#000000" font-family="sans-serif" font-size="13" lengthAdjust="spacing" textLength="7" x="427.7148" y="228.7449">1</text></g><!--reverse link DateOfBirth to Patient--><g id="link_DateOfBirth_Patient"><path codeLine="28" d="M277.03,278.5 C301.86,278.5 324,278.5 348.5,278.5 " fill="none" id="DateOfBirth-backto-Patient" style="stroke:#181818;stroke-width:1.0;"/><polygon fill="#181818" points="271.03,278.5,280.03,282.5,276.03,278.5,280.03,274.5,271.03,278.5" style="stroke:#181818;stroke-width:1.0;"/><text fill="#000000" font-family="sans-serif" font-size="13" lengthAdjust="spacing" textLength="41" x="289.25" y="271.5283">owns a</text><text fill="#000000" font-family="sans-serif" font-size="13" lengthAdjust="spacing" textLength="7" x="279.0694" y="274.5506">1</text><text fill="#000000" font-family="sans-serif" font-size="13" lengthAdjust="spacing" textLength="7" x="333.4563" y="274.538">1</text></g><!--link Patient to Gender--><g id="link_Patient_Gender"><path codeLine="29" d="M473.66,278.5 C514.14,278.5 561.76,278.5 608.37,278.5 " fill="none" id="Patient-to-Gender" style="stroke:#181818;stroke-width:1.0;"/><polygon fill="#181818" points="614.37,278.5,605.37,274.5,609.37,278.5,605.37,282.5,614.37,278.5" style="stroke:#181818;stroke-width:1.0;"/><text fill="#000000" font-family="sans-serif" font-size="13" lengthAdjust="spacing" textLength="104" x="492" y="271.5283">is associated with</text><text fill="#000000" font-family="sans-serif" font-size="13" lengthAdjust="spacing" textLength="7" x="481.3098" y="274.5888">1</text><text fill="#000000" font-family="sans-serif" font-size="13" lengthAdjust="spacing" textLength="7" x="599.5761" y="274.9073">1</text></g><!--link Patient to ContactInfo--><g id="link_Patient_ContactInfo"><path codeLine="30" d="M348.29,316.44 C308.01,340.16 260.4496,368.1645 216.9096,393.8145 " fill="none" id="Patient-to-ContactInfo" style="stroke:#181818;stroke-width:1.0;"/><polygon fill="#181818" points="211.74,396.86,221.5248,395.7382,216.048,394.3221,217.4641,388.8453,211.74,396.86" style="stroke:#181818;stroke-width:1.0;"/><text fill="#000000" font-family="sans-serif" font-size="13" lengthAdjust="spacing" textLength="41" x="288" y="363.0283">owns a</text><text fill="#000000" font-family="sans-serif" font-size="13" lengthAdjust="spacing" textLength="7" x="333.6345" y="316.9156">1</text><text fill="#000000" font-family="sans-serif" font-size="13" lengthAdjust="spacing" textLength="7" x="215.7425" y="385.8155">1</text></g><!--reverse link Patient to MedicalCondition_Record--><g id="link_Patient_MedicalCondition_Record"><path codeLine="31" d="M447.8536,321.5632 C473.9236,351.3232 505.9,387.81 529.98,415.3 " fill="none" id="Patient-backto-MedicalCondition_Record" style="stroke:#181818;stroke-width:1.0;"/><polygon fill="#181818" points="443.9,317.05,446.8216,326.4555,447.1947,320.811,452.8392,321.1841,443.9,317.05" style="stroke:#181818;stroke-width:1.0;"/><text fill="#000000" font-family="sans-serif" font-size="13" lengthAdjust="spacing" textLength="50" x="484" y="363.0283">presents</text><text fill="#000000" font-family="sans-serif" font-size="13" lengthAdjust="spacing" textLength="7" x="441.5856" y="338.6365">1</text><text fill="#000000" font-family="sans-serif" font-size="13" lengthAdjust="spacing" textLength="5" x="519.0978" y="404.3164">*</text></g><!--link Patient to EmergencyContact--><g id="link_Patient_EmergencyContact"><path codeLine="32" d="M396.7,317.05 C386.54,343.76 375.0643,373.9124 364.8143,400.8424 " fill="none" id="Patient-to-EmergencyContact" style="stroke:#181818;stroke-width:1.0;"/><polygon fill="#181818" points="362.68,406.45,369.6199,399.4616,364.4586,401.777,362.1431,396.6158,362.68,406.45" style="stroke:#181818;stroke-width:1.0;"/><text fill="#000000" font-family="sans-serif" font-size="13" lengthAdjust="spacing" textLength="50" x="384" y="363.0283">presents</text><text fill="#000000" font-family="sans-serif" font-size="13" lengthAdjust="spacing" textLength="7" x="386.8631" y="338.6365">1</text><text fill="#000000" font-family="sans-serif" font-size="13" lengthAdjust="spacing" textLength="7" x="357.6016" y="395.2273">1</text></g><!--reverse link Patient to AppointmentHistory--><g id="link_Patient_AppointmentHistory"><path codeLine="33" d="M479.131,309.2285 C532.031,332.5285 604.15,364.85 671,397 C683.05,402.8 695.88,409.19 708.05,415.37 " fill="none" id="Patient-backto-AppointmentHistory" style="stroke:#181818;stroke-width:1.0;"/><polygon fill="#181818" points="473.64,306.81,480.2641,314.0984,478.2158,308.8254,483.4888,306.7771,473.64,306.81" style="stroke:#181818;stroke-width:1.0;"/><text fill="#000000" font-family="sans-serif" font-size="13" lengthAdjust="spacing" textLength="50" x="608" y="363.0283">presents</text><text fill="#000000" font-family="sans-serif" font-size="13" lengthAdjust="spacing" textLength="7" x="481.7008" y="306.2982">1</text><text fill="#000000" font-family="sans-serif" font-size="13" lengthAdjust="spacing" textLength="20" x="674.2416" y="404.4009">1..*</text></g><!--link MedicalCondition_Record to Condition--><g id="link_MedicalCondition_Record_Condition"><path codeLine="48" d="M526.09,476.83 C496.94,505.89 456.7286,545.9834 424.9086,577.7134 " fill="none" id="MedicalCondition_Record-to-Condition" style="stroke:#181818;stroke-width:1.0;"/><polygon fill="#181818" points="420.66,581.95,429.8574,578.4275,424.2005,578.4195,424.2085,572.7626,420.66,581.95" style="stroke:#181818;stroke-width:1.0;"/><text fill="#000000" font-family="sans-serif" font-size="13" lengthAdjust="spacing" textLength="50" x="475" y="540.0283">presents</text><text fill="#000000" font-family="sans-serif" font-size="13" lengthAdjust="spacing" textLength="7" x="512.93" y="498.1751">1</text><text fill="#000000" font-family="sans-serif" font-size="13" lengthAdjust="spacing" textLength="7" x="419.7031" y="570.7273">1</text></g><!--link MedicalCondition_Record to RecordDate--><g id="link_MedicalCondition_Record_RecordDate"><path codeLine="49" d="M558.06,476.83 C559.91,503.47 562.2265,536.9543 564.3565,567.7843 " fill="none" id="MedicalCondition_Record-to-RecordDate" style="stroke:#181818;stroke-width:1.0;"/><polygon fill="#181818" points="564.77,573.77,568.1402,564.5157,564.4254,568.7819,560.1592,565.0671,564.77,573.77" style="stroke:#181818;stroke-width:1.0;"/><text fill="#000000" font-family="sans-serif" font-size="13" lengthAdjust="spacing" textLength="50" x="563" y="540.0283">presents</text><text fill="#000000" font-family="sans-serif" font-size="13" lengthAdjust="spacing" textLength="7" x="550.7945" y="498.1751">1</text><text fill="#000000" font-family="sans-serif" font-size="13" lengthAdjust="spacing" textLength="7" x="556.8236" y="562.8999">1</text></g><!--link AppointmentHistory to PatientAppointment--><g id="link_AppointmentHistory_PatientAppointment"><path codeLine="60" d="M762.77,476.83 C760.59,505.89 757.7188,544.2368 755.3388,575.9668 " fill="none" id="AppointmentHistory-to-PatientAppointment" style="stroke:#181818;stroke-width:1.0;"/><polygon fill="#181818" points="754.89,581.95,759.552,573.2744,755.264,576.964,751.5744,572.676,754.89,581.95" style="stroke:#181818;stroke-width:1.0;"/><text fill="#000000" font-family="sans-serif" font-size="13" lengthAdjust="spacing" textLength="50" x="759" y="540.0283">presents</text><text fill="#000000" font-family="sans-serif" font-size="13" lengthAdjust="spacing" textLength="7" x="754.7135" y="498.1751">1</text><text fill="#000000" font-family="sans-serif" font-size="13" lengthAdjust="spacing" textLength="7" x="747.7852" y="570.7273">1</text></g><!--link AppointmentHistory to RecordDate--><g id="link_AppointmentHistory_RecordDate"><path codeLine="61" d="M731.13,476.83 C700.88,503.47 660.5624,538.9741 625.5624,569.8041 " fill="none" id="AppointmentHistory-to-RecordDate" style="stroke:#181818;stroke-width:1.0;"/><polygon fill="#181818" points="621.06,573.77,630.4575,570.8227,624.812,570.465,625.1696,564.8195,621.06,573.77" style="stroke:#181818;stroke-width:1.0;"/><text fill="#000000" font-family="sans-serif" font-size="13" lengthAdjust="spacing" textLength="50" x="673" y="540.0283">presents</text><text fill="#000000" font-family="sans-serif" font-size="13" lengthAdjust="spacing" textLength="7" x="717.2399" y="498.1751">1</text><text fill="#000000" font-family="sans-serif" font-size="13" lengthAdjust="spacing" textLength="7" x="621.0294" y="562.8999">1</text></g><!--SRC=[dLJ1ZjCm4BtlLupA1L2pQA-hAjK25N1WYmhQAtBYIJAGsC5sM9NL_ZiJ9qtI9YqjaQeqzhmtutdFOp1sGgKvmkoBS8JAmLsQ6ao5mncyI4IKIFbq5UV2MjX5B1PTp4Ph5uQyibAEt3OChu2V9lmpIef5li5O6tbV5Hm5Bn_cK9Bw-GeUH5uXhACVN05u2f9CJWcX2SCdprC_0NnrXbGAnG6TZtWUvBiN1PxCCK6QaB6k1ewtcFF8JbBbURSphE0zTsITl2NZihCBgJ4WU-28z0CgYURIWwKDQhs1bUBMBvVB4V4xhPo8tIULw4lPiH2KGr0f-bLXCDulCwsGDOguXBseOVvLWORBZBTj8MSNGUp1kC6qfFwri-ViPiP9oo3q_qOkl0Moq7bDGhGzWVQUyWYkMCV4Eabuf5QcFKoEYMjHGn_SWdvK31y33ANP3j6AV5wc5ZFKxsYMHH30x7NN1iP8SgJLzwOX32mDMewsH_ECT3g1yUbkhgyvurrPQbQguAsFP9qsso5mF2T6fKqEbIxgJBVqdentI3jmej9y-oBjd2v09prxZ_UfXO88mMMucqAGDKUQGrmPKv- -sV3yytsqmRWE-4sM74ka94WIgT8MxPodJCG1jihT8OoAWc_EduRImyfSg3VCfWjkgXJzMVZBdsJGfwQ7VhZyrzWTJgPlrCqw_pecs84vMvqEt78EU53yj6Kcl3NfbjQQW_2BRIDwx77VZFDqJ3dNLuVOYY-H8RJUHcLxPp9X-ITvfBNBjaVMajUBDivGLZcF0stOApnBRJqRT8bcoWF-Qw91mmPFzEL0fdyGJ2lqVFKN]--></g></svg>