<?xml version="1.0" encoding="us-ascii" standalone="no"?><svg xmlns="http://www.w3.org/2000/svg" xmlns:xlink="http://www.w3.org/1999/xlink" contentStyleType="text/css" height="1205px" preserveAspectRatio="none" style="width:1501px;height:1205px;background:#FFFFFF;" version="1.1" viewBox="0 0 1501 1205" width="1501px" zoomAndPan="magnify"><defs/><g><rect fill="#FFFFFF" height="1109.2051" style="stroke:#181818;stroke-width:1.0;" width="10" x="41" y="48.6211"/><rect fill="#FFFFFF" height="1085.9141" style="stroke:#181818;stroke-width:1.0;" width="10" x="249" y="71.9121"/><rect fill="#FFFFFF" height="942.1191" style="stroke:#181818;stroke-width:1.0;" width="10" x="539" y="103.2031"/><rect fill="#FFFFFF" height="31.291" style="stroke:#181818;stroke-width:1.0;" width="10" x="743" y="546.9082"/><rect fill="#FFFFFF" height="354.832" style="stroke:#181818;stroke-width:1.0;" width="10" x="823.5" y="134.4941"/><rect fill="#FFFFFF" height="341.6191" style="stroke:#181818;stroke-width:1.0;" width="10" x="823.5" y="609.4902"/><rect fill="#FFFFFF" height="300.25" style="stroke:#181818;stroke-width:1.0;" width="10" x="1041.5" y="165.7852"/><rect fill="#FFFFFF" height="279.0371" style="stroke:#181818;stroke-width:1.0;" width="10" x="1041.5" y="640.7813"/><rect fill="#FFFFFF" height="68.582" style="stroke:#181818;stroke-width:1.0;" width="10" x="1269.5" y="303.2402"/><rect fill="#FFFFFF" height="406.8809" style="stroke:#181818;stroke-width:1.0;" width="10" x="1269.5" y="751.9453"/><rect fill="#FFFFFF" height="31.291" style="stroke:#181818;stroke-width:1.0;" width="10" x="1445.5" y="214.3672"/><rect fill="#FFFFFF" height="31.291" style="stroke:#181818;stroke-width:1.0;" width="10" x="1445.5" y="689.3633"/><rect fill="#FFFFFF" height="30" style="stroke:#181818;stroke-width:1.0;" width="10" x="1445.5" y="797.2363"/><rect fill="#FFFFFF" height="30" style="stroke:#181818;stroke-width:1.0;" width="10" x="1445.5" y="858.5273"/><rect fill="none" height="198.377" style="stroke:#000000;stroke-width:1.5;" width="712" x="773" y="260.6582"/><rect fill="none" height="533.9961" style="stroke:#000000;stroke-width:1.5;" width="1291.5" x="203" y="504.3262"/><rect fill="none" height="98.5039" style="stroke:#000000;stroke-width:1.5;" width="295" x="10" y="1052.3223"/><line style="stroke:#181818;stroke-width:0.5;stroke-dasharray:5.0,5.0;" x1="46" x2="46" y1="38.6211" y2="1167.8262"/><line style="stroke:#181818;stroke-width:0.5;stroke-dasharray:5.0,5.0;" x1="254" x2="254" y1="38.6211" y2="1167.8262"/><line style="stroke:#181818;stroke-width:0.5;stroke-dasharray:5.0,5.0;" x1="543.5" x2="543.5" y1="38.6211" y2="1167.8262"/><line style="stroke:#181818;stroke-width:0.5;stroke-dasharray:5.0,5.0;" x1="748" x2="748" y1="38.6211" y2="1167.8262"/><line style="stroke:#181818;stroke-width:0.5;stroke-dasharray:5.0,5.0;" x1="828" x2="828" y1="38.6211" y2="1167.8262"/><line style="stroke:#181818;stroke-width:0.5;stroke-dasharray:5.0,5.0;" x1="1046.5" x2="1046.5" y1="38.6211" y2="1167.8262"/><line style="stroke:#181818;stroke-width:0.5;stroke-dasharray:5.0,5.0;" x1="1274.5" x2="1274.5" y1="38.6211" y2="1167.8262"/><line style="stroke:#181818;stroke-width:0.5;stroke-dasharray:5.0,5.0;" x1="1362.5" x2="1362.5" y1="38.6211" y2="1167.8262"/><line style="stroke:#181818;stroke-width:0.5;stroke-dasharray:5.0,5.0;" x1="1450.5" x2="1450.5" y1="38.6211" y2="1167.8262"/><rect fill="#E2E2F0" height="32.6211" rx="2.5" ry="2.5" style="stroke:#181818;stroke-width:0.5;" width="52" x="20" y="5"/><text fill="#000000" font-family="sans-serif" font-size="14" lengthAdjust="spacing" textLength="38" x="27" y="27.1074">Route</text><rect fill="#E2E2F0" height="32.6211" rx="2.5" ry="2.5" style="stroke:#181818;stroke-width:0.5;" width="52" x="20" y="1166.8262"/><text fill="#000000" font-family="sans-serif" font-size="14" lengthAdjust="spacing" textLength="38" x="27" y="1188.9336">Route</text><rect fill="#E2E2F0" height="32.6211" rx="2.5" ry="2.5" style="stroke:#181818;stroke-width:0.5;" width="82" x="213" y="5"/><text fill="#000000" font-family="sans-serif" font-size="14" lengthAdjust="spacing" textLength="68" x="220" y="27.1074">xController</text><rect fill="#E2E2F0" height="32.6211" rx="2.5" ry="2.5" style="stroke:#181818;stroke-width:0.5;" width="82" x="213" y="1166.8262"/><text fill="#000000" font-family="sans-serif" font-size="14" lengthAdjust="spacing" textLength="68" x="220" y="1188.9336">xController</text><rect fill="#E2E2F0" height="32.6211" rx="2.5" ry="2.5" style="stroke:#181818;stroke-width:0.5;" width="67" x="510.5" y="5"/><text fill="#000000" font-family="sans-serif" font-size="14" lengthAdjust="spacing" textLength="53" x="517.5" y="27.1074">xService</text><rect fill="#E2E2F0" height="32.6211" rx="2.5" ry="2.5" style="stroke:#181818;stroke-width:0.5;" width="67" x="510.5" y="1166.8262"/><text fill="#000000" font-family="sans-serif" font-size="14" lengthAdjust="spacing" textLength="53" x="517.5" y="1188.9336">xService</text><rect fill="#E2E2F0" height="32.6211" rx="2.5" ry="2.5" style="stroke:#181818;stroke-width:0.5;" width="50" x="723" y="5"/><text fill="#000000" font-family="sans-serif" font-size="14" lengthAdjust="spacing" textLength="36" x="730" y="27.1074">xDTO</text><rect fill="#E2E2F0" height="32.6211" rx="2.5" ry="2.5" style="stroke:#181818;stroke-width:0.5;" width="50" x="723" y="1166.8262"/><text fill="#000000" font-family="sans-serif" font-size="14" lengthAdjust="spacing" textLength="36" x="730" y="1188.9336">xDTO</text><rect fill="#E2E2F0" height="32.6211" rx="2.5" ry="2.5" style="stroke:#181818;stroke-width:0.5;" width="91" x="783" y="5"/><text fill="#000000" font-family="sans-serif" font-size="14" lengthAdjust="spacing" textLength="77" x="790" y="27.1074">xIRepository</text><rect fill="#E2E2F0" height="32.6211" rx="2.5" ry="2.5" style="stroke:#181818;stroke-width:0.5;" width="91" x="783" y="1166.8262"/><text fill="#000000" font-family="sans-serif" font-size="14" lengthAdjust="spacing" textLength="77" x="790" y="1188.9336">xIRepository</text><rect fill="#E2E2F0" height="32.6211" rx="2.5" ry="2.5" style="stroke:#181818;stroke-width:0.5;" width="88" x="1002.5" y="5"/><text fill="#000000" font-family="sans-serif" font-size="14" lengthAdjust="spacing" textLength="74" x="1009.5" y="27.1074">xRepository</text><rect fill="#E2E2F0" height="32.6211" rx="2.5" ry="2.5" style="stroke:#181818;stroke-width:0.5;" width="88" x="1002.5" y="1166.8262"/><text fill="#000000" font-family="sans-serif" font-size="14" lengthAdjust="spacing" textLength="74" x="1009.5" y="1188.9336">xRepository</text><rect fill="#E2E2F0" height="32.6211" rx="2.5" ry="2.5" style="stroke:#181818;stroke-width:0.5;" width="68" x="1240.5" y="5"/><text fill="#000000" font-family="sans-serif" font-size="14" lengthAdjust="spacing" textLength="54" x="1247.5" y="27.1074">xMapper</text><rect fill="#E2E2F0" height="32.6211" rx="2.5" ry="2.5" style="stroke:#181818;stroke-width:0.5;" width="68" x="1240.5" y="1166.8262"/><text fill="#000000" font-family="sans-serif" font-size="14" lengthAdjust="spacing" textLength="54" x="1247.5" y="1188.9336">xMapper</text><rect fill="#E2E2F0" height="32.6211" rx="2.5" ry="2.5" style="stroke:#181818;stroke-width:0.5;" width="88" x="1318.5" y="5"/><text fill="#000000" font-family="sans-serif" font-size="14" lengthAdjust="spacing" textLength="74" x="1325.5" y="27.1074">xDataModel</text><rect fill="#E2E2F0" height="32.6211" rx="2.5" ry="2.5" style="stroke:#181818;stroke-width:0.5;" width="88" x="1318.5" y="1166.8262"/><text fill="#000000" font-family="sans-serif" font-size="14" lengthAdjust="spacing" textLength="74" x="1325.5" y="1188.9336">xDataModel</text><rect fill="#E2E2F0" height="32.6211" rx="2.5" ry="2.5" style="stroke:#181818;stroke-width:0.5;" width="68" x="1416.5" y="5"/><text fill="#000000" font-family="sans-serif" font-size="14" lengthAdjust="spacing" textLength="54" x="1423.5" y="27.1074">xContext</text><rect fill="#E2E2F0" height="32.6211" rx="2.5" ry="2.5" style="stroke:#181818;stroke-width:0.5;" width="68" x="1416.5" y="1166.8262"/><text fill="#000000" font-family="sans-serif" font-size="14" lengthAdjust="spacing" textLength="54" x="1423.5" y="1188.9336">xContext</text><rect fill="#FFFFFF" height="1109.2051" style="stroke:#181818;stroke-width:1.0;" width="10" x="41" y="48.6211"/><rect fill="#FFFFFF" height="1085.9141" style="stroke:#181818;stroke-width:1.0;" width="10" x="249" y="71.9121"/><rect fill="#FFFFFF" height="942.1191" style="stroke:#181818;stroke-width:1.0;" width="10" x="539" y="103.2031"/><rect fill="#FFFFFF" height="31.291" style="stroke:#181818;stroke-width:1.0;" width="10" x="743" y="546.9082"/><rect fill="#FFFFFF" height="354.832" style="stroke:#181818;stroke-width:1.0;" width="10" x="823.5" y="134.4941"/><rect fill="#FFFFFF" height="341.6191" style="stroke:#181818;stroke-width:1.0;" width="10" x="823.5" y="609.4902"/><rect fill="#FFFFFF" height="300.25" style="stroke:#181818;stroke-width:1.0;" width="10" x="1041.5" y="165.7852"/><rect fill="#FFFFFF" height="279.0371" style="stroke:#181818;stroke-width:1.0;" width="10" x="1041.5" y="640.7813"/><rect fill="#FFFFFF" height="68.582" style="stroke:#181818;stroke-width:1.0;" width="10" x="1269.5" y="303.2402"/><rect fill="#FFFFFF" height="406.8809" style="stroke:#181818;stroke-width:1.0;" width="10" x="1269.5" y="751.9453"/><rect fill="#FFFFFF" height="31.291" style="stroke:#181818;stroke-width:1.0;" width="10" x="1445.5" y="214.3672"/><rect fill="#FFFFFF" height="31.291" style="stroke:#181818;stroke-width:1.0;" width="10" x="1445.5" y="689.3633"/><rect fill="#FFFFFF" height="30" style="stroke:#181818;stroke-width:1.0;" width="10" x="1445.5" y="797.2363"/><rect fill="#FFFFFF" height="30" style="stroke:#181818;stroke-width:1.0;" width="10" x="1445.5" y="858.5273"/><polygon fill="#181818" points="237,67.9121,247,71.9121,237,75.9121,241,71.9121" style="stroke:#181818;stroke-width:1.0;"/><line style="stroke:#181818;stroke-width:1.0;" x1="51" x2="243" y1="71.9121" y2="71.9121"/><text fill="#000000" font-family="sans-serif" font-size="13" lengthAdjust="spacing" textLength="120" x="58" y="66.6494">PutPatient(id, xDTO)</text><polygon fill="#181818" points="527,99.2031,537,103.2031,527,107.2031,531,103.2031" style="stroke:#181818;stroke-width:1.0;"/><line style="stroke:#181818;stroke-width:1.0;" x1="259" x2="533" y1="103.2031" y2="103.2031"/><text fill="#000000" font-family="sans-serif" font-size="13" lengthAdjust="spacing" textLength="201" x="266" y="97.9404">Update(id, xDTO, _errorMessages)</text><polygon fill="#181818" points="811.5,130.4941,821.5,134.4941,811.5,138.4941,815.5,134.4941" style="stroke:#181818;stroke-width:1.0;"/><line style="stroke:#181818;stroke-width:1.0;" x1="549" x2="817.5" y1="134.4941" y2="134.4941"/><text fill="#000000" font-family="sans-serif" font-size="13" lengthAdjust="spacing" textLength="143" x="556" y="129.2314">GetPatientByIdAsync(id)</text><polygon fill="#181818" points="1029.5,161.7852,1039.5,165.7852,1029.5,169.7852,1033.5,165.7852" style="stroke:#181818;stroke-width:1.0;"/><line style="stroke:#181818;stroke-width:1.0;" x1="833.5" x2="1035.5" y1="165.7852" y2="165.7852"/><text fill="#000000" font-family="sans-serif" font-size="13" lengthAdjust="spacing" textLength="189" x="840.5" y="160.5225">implemnts GetPatientByIdAsync</text><polygon fill="#181818" points="1433.5,210.3672,1443.5,214.3672,1433.5,218.3672,1437.5,214.3672" style="stroke:#181818;stroke-width:1.0;"/><line style="stroke:#181818;stroke-width:1.0;" x1="1051.5" x2="1439.5" y1="214.3672" y2="214.3672"/><text fill="#000000" font-family="sans-serif" font-size="13" lengthAdjust="spacing" textLength="147" x="1058.5" y="191.8135">Set&lt;PatientDataModel&gt;()</text><text fill="#000000" font-family="sans-serif" font-size="13" lengthAdjust="spacing" textLength="153" x="1058.5" y="209.1045">.FirstAsync(p =&gt; p.id==id)</text><polygon fill="#181818" points="1062.5,241.6582,1052.5,245.6582,1062.5,249.6582,1058.5,245.6582" style="stroke:#181818;stroke-width:1.0;"/><line style="stroke:#181818;stroke-width:1.0;stroke-dasharray:2.0,2.0;" x1="1056.5" x2="1449.5" y1="245.6582" y2="245.6582"/><text fill="#000000" font-family="sans-serif" font-size="13" lengthAdjust="spacing" textLength="147" x="1068.5" y="240.3955">return xDataModel with Id</text><path d="M773,260.6582 L834,260.6582 L834,269.9492 L824,279.9492 L773,279.9492 L773,260.6582 " fill="#EEEEEE" style="stroke:#000000;stroke-width:1.5;"/><rect fill="none" height="198.377" style="stroke:#000000;stroke-width:1.5;" width="712" x="773" y="260.6582"/><text fill="#000000" font-family="sans-serif" font-size="13" font-weight="bold" lengthAdjust="spacing" textLength="16" x="788" y="275.6865">alt</text><text fill="#000000" font-family="sans-serif" font-size="11" font-weight="bold" lengthAdjust="spacing" textLength="121" x="849" y="274.5283">[xDataModel is Active]</text><polygon fill="#181818" points="1257.5,299.2402,1267.5,303.2402,1257.5,307.2402,1261.5,303.2402" style="stroke:#181818;stroke-width:1.0;"/><line style="stroke:#181818;stroke-width:1.0;" x1="1051.5" x2="1263.5" y1="303.2402" y2="303.2402"/><text fill="#000000" font-family="sans-serif" font-size="13" lengthAdjust="spacing" textLength="135" x="1058.5" y="297.9775">ToDomain(xDataModel)</text><path d="M1284,316.2402 L1284,343.2402 L1475,343.2402 L1475,326.2402 L1465,316.2402 L1284,316.2402 " fill="#FEFFDD" style="stroke:#181818;stroke-width:0.5;"/><path d="M1465,316.2402 L1465,326.2402 L1475,326.2402 L1465,316.2402 " fill="#FEFFDD" style="stroke:#181818;stroke-width:0.5;"/><text fill="#000000" font-family="sans-serif" font-size="13" lengthAdjust="spacing" textLength="170" x="1290" y="335.2686">See "ToDomainMapper.puml"</text><polygon fill="#181818" points="1062.5,367.8223,1052.5,371.8223,1062.5,375.8223,1058.5,371.8223" style="stroke:#181818;stroke-width:1.0;"/><line style="stroke:#181818;stroke-width:1.0;stroke-dasharray:2.0,2.0;" x1="1056.5" x2="1273.5" y1="371.8223" y2="371.8223"/><text fill="#000000" font-family="sans-serif" font-size="13" lengthAdjust="spacing" textLength="44" x="1068.5" y="366.5596">return x</text><polygon fill="#181818" points="844.5,399.1133,834.5,403.1133,844.5,407.1133,840.5,403.1133" style="stroke:#181818;stroke-width:1.0;"/><line style="stroke:#181818;stroke-width:1.0;stroke-dasharray:2.0,2.0;" x1="838.5" x2="1040.5" y1="403.1133" y2="403.1133"/><text fill="#000000" font-family="sans-serif" font-size="13" lengthAdjust="spacing" textLength="44" x="850.5" y="397.8506">return x</text><line style="stroke:#000000;stroke-width:1.0;stroke-dasharray:2.0,2.0;" x1="773" x2="1485" y1="412.1133" y2="412.1133"/><text fill="#000000" font-family="sans-serif" font-size="11" font-weight="bold" lengthAdjust="spacing" textLength="129" x="778" y="423.9834">[xDataModel is Inactive]</text><polygon fill="#181818" points="844.5,447.0352,834.5,451.0352,844.5,455.0352,840.5,451.0352" style="stroke:#181818;stroke-width:1.0;"/><line style="stroke:#181818;stroke-width:1.0;stroke-dasharray:2.0,2.0;" x1="838.5" x2="1040.5" y1="451.0352" y2="451.0352"/><text fill="#000000" font-family="sans-serif" font-size="13" lengthAdjust="spacing" textLength="57" x="850.5" y="445.7725">return null</text><polygon fill="#181818" points="560,485.3262,550,489.3262,560,493.3262,556,489.3262" style="stroke:#181818;stroke-width:1.0;"/><line style="stroke:#181818;stroke-width:1.0;stroke-dasharray:2.0,2.0;" x1="554" x2="827.5" y1="489.3262" y2="489.3262"/><text fill="#000000" font-family="sans-serif" font-size="13" lengthAdjust="spacing" textLength="85" x="566" y="484.0635">return x with id</text><path d="M203,504.3262 L264,504.3262 L264,513.6172 L254,523.6172 L203,523.6172 L203,504.3262 " fill="#EEEEEE" style="stroke:#000000;stroke-width:1.5;"/><rect fill="none" height="533.9961" style="stroke:#000000;stroke-width:1.5;" width="1291.5" x="203" y="504.3262"/><text fill="#000000" font-family="sans-serif" font-size="13" font-weight="bold" lengthAdjust="spacing" textLength="16" x="218" y="519.3545">alt</text><text fill="#000000" font-family="sans-serif" font-size="11" font-weight="bold" lengthAdjust="spacing" textLength="127" x="279" y="518.1963">[x != null &amp;&amp; x is Active]</text><polygon fill="#181818" points="731,542.9082,741,546.9082,731,550.9082,735,546.9082" style="stroke:#181818;stroke-width:1.0;"/><line style="stroke:#181818;stroke-width:1.0;" x1="549" x2="737" y1="546.9082" y2="546.9082"/><text fill="#000000" font-family="sans-serif" font-size="13" lengthAdjust="spacing" textLength="175" x="556" y="541.6455">UpdateToDomain(x, xUpDTO);</text><polygon fill="#181818" points="560,574.1992,550,578.1992,560,582.1992,556,578.1992" style="stroke:#181818;stroke-width:1.0;"/><line style="stroke:#181818;stroke-width:1.0;stroke-dasharray:2.0,2.0;" x1="554" x2="747" y1="578.1992" y2="578.1992"/><text fill="#000000" font-family="sans-serif" font-size="13" lengthAdjust="spacing" textLength="94" x="566" y="572.9365">return x updated</text><polygon fill="#181818" points="811.5,605.4902,821.5,609.4902,811.5,613.4902,815.5,609.4902" style="stroke:#181818;stroke-width:1.0;"/><line style="stroke:#181818;stroke-width:1.0;" x1="549" x2="817.5" y1="609.4902" y2="609.4902"/><text fill="#000000" font-family="sans-serif" font-size="13" lengthAdjust="spacing" textLength="150" x="556" y="604.2275">Update(x, errorMessages)</text><polygon fill="#181818" points="1029.5,636.7813,1039.5,640.7813,1029.5,644.7813,1033.5,640.7813" style="stroke:#181818;stroke-width:1.0;"/><line style="stroke:#181818;stroke-width:1.0;" x1="833.5" x2="1035.5" y1="640.7813" y2="640.7813"/><text fill="#000000" font-family="sans-serif" font-size="13" lengthAdjust="spacing" textLength="105" x="840.5" y="635.5186">implemnts Update</text><polygon fill="#181818" points="1433.5,685.3633,1443.5,689.3633,1433.5,693.3633,1437.5,689.3633" style="stroke:#181818;stroke-width:1.0;"/><line style="stroke:#181818;stroke-width:1.0;" x1="1051.5" x2="1439.5" y1="689.3633" y2="689.3633"/><text fill="#000000" font-family="sans-serif" font-size="13" lengthAdjust="spacing" textLength="147" x="1058.5" y="666.8096">Set&lt;PatientDataModel&gt;()</text><text fill="#000000" font-family="sans-serif" font-size="13" lengthAdjust="spacing" textLength="153" x="1058.5" y="684.1006">.FirstAsync(p =&gt; p.id==id)</text><polygon fill="#181818" points="1062.5,716.6543,1052.5,720.6543,1062.5,724.6543,1058.5,720.6543" style="stroke:#181818;stroke-width:1.0;"/><line style="stroke:#181818;stroke-width:1.0;stroke-dasharray:2.0,2.0;" x1="1056.5" x2="1449.5" y1="720.6543" y2="720.6543"/><text fill="#000000" font-family="sans-serif" font-size="13" lengthAdjust="spacing" textLength="147" x="1068.5" y="715.3916">return xDataModel with Id</text><polygon fill="#181818" points="1257.5,747.9453,1267.5,751.9453,1257.5,755.9453,1261.5,751.9453" style="stroke:#181818;stroke-width:1.0;"/><line style="stroke:#181818;stroke-width:1.0;" x1="1051.5" x2="1263.5" y1="751.9453" y2="751.9453"/><text fill="#000000" font-family="sans-serif" font-size="13" lengthAdjust="spacing" textLength="199" x="1058.5" y="746.6826">UpdateDataModel(xDataModel, x);</text><polygon fill="#181818" points="1062.5,761.9453,1052.5,765.9453,1062.5,769.9453,1058.5,765.9453" style="stroke:#181818;stroke-width:1.0;"/><line style="stroke:#181818;stroke-width:1.0;stroke-dasharray:2.0,2.0;" x1="1056.5" x2="1268.5" y1="765.9453" y2="765.9453"/><polygon fill="#181818" points="1433.5,793.2363,1443.5,797.2363,1433.5,801.2363,1437.5,797.2363" style="stroke:#181818;stroke-width:1.0;"/><line style="stroke:#181818;stroke-width:1.0;" x1="1051.5" x2="1439.5" y1="797.2363" y2="797.2363"/><text fill="#000000" font-family="sans-serif" font-size="13" lengthAdjust="spacing" textLength="99" x="1058.5" y="791.9736">save xDataModel</text><polygon fill="#181818" points="1433.5,854.5273,1443.5,858.5273,1433.5,862.5273,1437.5,858.5273" style="stroke:#181818;stroke-width:1.0;"/><line style="stroke:#181818;stroke-width:1.0;" x1="1051.5" x2="1439.5" y1="858.5273" y2="858.5273"/><text fill="#000000" font-family="sans-serif" font-size="13" lengthAdjust="spacing" textLength="124" x="1058.5" y="853.2646">SaveChangesAsync()</text><polygon fill="#181818" points="844.5,915.8184,834.5,919.8184,844.5,923.8184,840.5,919.8184" style="stroke:#181818;stroke-width:1.0;"/><line style="stroke:#181818;stroke-width:1.0;stroke-dasharray:2.0,2.0;" x1="838.5" x2="1045.5" y1="919.8184" y2="919.8184"/><text fill="#000000" font-family="sans-serif" font-size="13" lengthAdjust="spacing" textLength="44" x="850.5" y="914.5557">return x</text><polygon fill="#181818" points="560,947.1094,550,951.1094,560,955.1094,556,951.1094" style="stroke:#181818;stroke-width:1.0;"/><line style="stroke:#181818;stroke-width:1.0;stroke-dasharray:2.0,2.0;" x1="554" x2="827.5" y1="951.1094" y2="951.1094"/><text fill="#000000" font-family="sans-serif" font-size="13" lengthAdjust="spacing" textLength="86" x="566" y="945.8467">return success</text><polygon fill="#181818" points="270,978.4004,260,982.4004,270,986.4004,266,982.4004" style="stroke:#181818;stroke-width:1.0;"/><line style="stroke:#181818;stroke-width:1.0;stroke-dasharray:2.0,2.0;" x1="264" x2="538" y1="982.4004" y2="982.4004"/><text fill="#000000" font-family="sans-serif" font-size="13" lengthAdjust="spacing" textLength="86" x="276" y="977.1377">return success</text><line style="stroke:#000000;stroke-width:1.0;stroke-dasharray:2.0,2.0;" x1="203" x2="1494.5" y1="991.4004" y2="991.4004"/><text fill="#000000" font-family="sans-serif" font-size="11" font-weight="bold" lengthAdjust="spacing" textLength="128" x="208" y="1003.2705">[x == null || x is Inactive]</text><polygon fill="#181818" points="270,1026.3223,260,1030.3223,270,1034.3223,266,1030.3223" style="stroke:#181818;stroke-width:1.0;"/><line style="stroke:#181818;stroke-width:1.0;stroke-dasharray:2.0,2.0;" x1="264" x2="538" y1="1030.3223" y2="1030.3223"/><text fill="#000000" font-family="sans-serif" font-size="13" lengthAdjust="spacing" textLength="256" x="276" y="1025.0596">return failure (send mensage - "X Not found")</text><path d="M10,1052.3223 L71,1052.3223 L71,1061.6133 L61,1071.6133 L10,1071.6133 L10,1052.3223 " fill="#EEEEEE" style="stroke:#000000;stroke-width:1.5;"/><rect fill="none" height="98.5039" style="stroke:#000000;stroke-width:1.5;" width="295" x="10" y="1052.3223"/><text fill="#000000" font-family="sans-serif" font-size="13" font-weight="bold" lengthAdjust="spacing" textLength="16" x="25" y="1067.3506">alt</text><text fill="#000000" font-family="sans-serif" font-size="11" font-weight="bold" lengthAdjust="spacing" textLength="84" x="86" y="1066.1924">[success case]</text><polygon fill="#181818" points="62,1090.9043,52,1094.9043,62,1098.9043,58,1094.9043" style="stroke:#181818;stroke-width:1.0;"/><line style="stroke:#181818;stroke-width:1.0;stroke-dasharray:2.0,2.0;" x1="56" x2="248" y1="1094.9043" y2="1094.9043"/><text fill="#000000" font-family="sans-serif" font-size="13" lengthAdjust="spacing" textLength="124" x="68" y="1089.6416">Send code 200 (PUT)</text><line style="stroke:#000000;stroke-width:1.0;stroke-dasharray:2.0,2.0;" x1="10" x2="305" y1="1103.9043" y2="1103.9043"/><text fill="#000000" font-family="sans-serif" font-size="11" font-weight="bold" lengthAdjust="spacing" textLength="72" x="15" y="1115.7744">[failure case]</text><polygon fill="#181818" points="62,1138.8262,52,1142.8262,62,1146.8262,58,1142.8262" style="stroke:#181818;stroke-width:1.0;"/><line style="stroke:#181818;stroke-width:1.0;stroke-dasharray:2.0,2.0;" x1="56" x2="248" y1="1142.8262" y2="1142.8262"/><text fill="#000000" font-family="sans-serif" font-size="13" lengthAdjust="spacing" textLength="174" x="68" y="1137.5635">Send code 404 (NOT FOUND)</text><!--SRC=[hLLDYzim4BtxLqnpM1pOX53sr6u2smrRSiW7kmdqK2Z2LZO2MpAId6vWVtn7aZya9Q4VD8TWItflPjwyiIeYDSjOHRY6Pr5h2aI1D0z9vMszFGgkfIWAAis1JCiYt7-XyiWoYrR7BDoRRzTcFTSYN5yyqqeefeKycNqcyJKy4Huutr-Igd8PbVWKHIMQB4LE2nkxF2-7lcbRYtjCaeHacXq9Ik3gj_ymcjbguHDiQhqXcb6kKvRVshA6FSPAOayY0YL0mAxASQSxV0i_g9H2BgbIv9Kg3smaCnY4MXKG_9MsqRwS5lc3El4CcJoCayiTHrm3OsLLq99hTOd0gz1WMsYZ0A9VgBvlG9ryitJudO-Vc5JQPL71T0RLcENJQP1GAsHBD-gpabJNaliz-Sdq0HPvajCpF2c2xZ453-O8JG1_RSwctqYy5NDH4iRJ7Z2qvpfMQmopmeMfcxqUD8YzNJRrKXYq7CvCuwekYu55s1WNgh2RNk9T29USryGEGGj5ew8MdCHbdIDvNHG9vO5EVjyxhxMHdB0i03YdM5dXmzHomiqDleJIDWR4CUsysykB5jvLnl6VGtdDK5ivzCLiQakJnugrgCZppS1Wi6XGWf2k7BDqtVoEASHriF_Z-u2xzQvP_2l_HyBuF97LNKaTW-Tux4tSbiwIWOUlLA_8qJVdzSf-awYd9p8-7WZ7vZdjXlz8sfhZ-l35PeWzgEeiGn_5iDv4reFzLpw2kS65QJCsx-zkR8BXlSom9woe9OLKuVn2IRdnCenWy0rMGiDUr3mV3EFXDZU1cTGcFcH4kI3kQZ6DjDUIyIpIPjWm-3YPGBhPROSkspRmdq3l9dUGhjPRU5hlLlEpREobvejjByPV]--></g></svg>