<?xml version="1.0" encoding="us-ascii" standalone="no"?><svg xmlns="http://www.w3.org/2000/svg" xmlns:xlink="http://www.w3.org/1999/xlink" contentStyleType="text/css" height="867px" preserveAspectRatio="none" style="width:737px;height:867px;background:#FFFFFF;" version="1.1" viewBox="0 0 737 867" width="737px" zoomAndPan="magnify"><defs/><g><!--cluster User Aggregate--><g id="cluster_User Aggregate"><rect fill="#BABFDD" height="130" rx="2.5" ry="2.5" style="stroke:#181818;stroke-width:1.0;" width="158" x="509" y="550"/><text fill="#000000" font-family="sans-serif" font-size="14" font-weight="bold" lengthAdjust="spacing" textLength="110" x="533" y="567.1074">User Aggregate</text></g><!--cluster Patient Aggregate--><g id="cluster_Patient Aggregate"><rect fill="#FABFDD" height="303" rx="2.5" ry="2.5" style="stroke:#181818;stroke-width:1.0;" width="415" x="253" y="188"/><text fill="#000000" font-family="sans-serif" font-size="14" font-weight="bold" lengthAdjust="spacing" textLength="126" x="397.5" y="205.1074">Patient Aggregate</text></g><!--cluster Staff Aggregate--><g id="cluster_Staff Aggregate"><rect fill="#BBFFDD" height="130" rx="2.5" ry="2.5" style="stroke:#181818;stroke-width:1.0;" width="158" x="302" y="550"/><text fill="#000000" font-family="sans-serif" font-size="14" font-weight="bold" lengthAdjust="spacing" textLength="109" x="326.5" y="567.1074">Staff Aggregate</text></g><!--cluster Specialization Aggregate--><g id="cluster_Specialization Aggregate"><rect fill="#BBFFDD" height="114" rx="2.5" ry="2.5" style="stroke:#181818;stroke-width:1.0;" width="190" x="286" y="739"/><text fill="#000000" font-family="sans-serif" font-size="14" font-weight="bold" lengthAdjust="spacing" textLength="174" x="294" y="756.1074">Specialization Aggregate</text></g><!--cluster OperationRequest Aggregate--><g id="cluster_OperationRequest Aggregate"><rect fill="#CCBBFF" height="130" rx="2.5" ry="2.5" style="stroke:#181818;stroke-width:1.0;" width="222" x="7" y="369"/><text fill="#000000" font-family="sans-serif" font-size="14" font-weight="bold" lengthAdjust="spacing" textLength="206" x="15" y="386.1074">OperationRequest Aggregate</text></g><!--cluster Operation Type Aggregate--><g id="cluster_Operation Type Aggregate"><rect fill="#EEFCDD" height="130" rx="2.5" ry="2.5" style="stroke:#181818;stroke-width:1.0;" width="200" x="24" y="188"/><text fill="#000000" font-family="sans-serif" font-size="14" font-weight="bold" lengthAdjust="spacing" textLength="184" x="32" y="205.1074">Operation Type Aggregate</text></g><!--cluster Operation Type History Aggregate--><g id="cluster_Operation Type History Aggregate"><rect fill="#BCDFFE" height="130" rx="2.5" ry="2.5" style="stroke:#181818;stroke-width:1.0;" width="253" x="23" y="7"/><text fill="#000000" font-family="sans-serif" font-size="14" font-weight="bold" lengthAdjust="spacing" textLength="237" x="31" y="24.1074">Operation Type History Aggregate</text></g><!--cluster Appointment Aggregate--><g id="cluster_Appointment Aggregate"><rect fill="#EEFCCC" height="130" rx="2.5" ry="2.5" style="stroke:#181818;stroke-width:1.0;" width="182" x="48" y="550"/><text fill="#000000" font-family="sans-serif" font-size="14" font-weight="bold" lengthAdjust="spacing" textLength="166" x="56" y="567.1074">Appointment Aggregate</text></g><!--cluster SurgeryRoom Aggregate--><g id="cluster_SurgeryRoom Aggregate"><rect fill="#DDFCCC" height="130" rx="2.5" ry="2.5" style="stroke:#181818;stroke-width:1.0;" width="188" x="45" y="731"/><text fill="#000000" font-family="sans-serif" font-size="14" font-weight="bold" lengthAdjust="spacing" textLength="172" x="53" y="748.1074">SurgeryRoom Aggregate</text></g><!--class User--><g id="elem_User"><rect codeLine="3" fill="#F1F1F1" height="76.543" id="User" rx="2.5" ry="2.5" style="stroke:#181818;stroke-width:0.5;" width="125" x="525.5" y="587"/><ellipse cx="540.5" cy="617.2715" fill="#ADD1B2" rx="11" ry="11" style="stroke:#181818;stroke-width:1.0;"/><path d="M543.2656,613.1465 Q543.4219,612.9277 543.6094,612.8184 Q543.7969,612.709 544.0156,612.709 Q544.3906,612.709 544.625,612.9746 Q544.8594,613.2246 544.8594,613.834 L544.8594,615.2871 Q544.8594,615.8965 544.625,616.1621 Q544.3906,616.4277 544.0156,616.4277 Q543.6719,616.4277 543.4688,616.2246 Q543.2656,616.0371 543.1563,615.5215 Q543.1094,615.1621 542.9219,614.9746 Q542.5938,614.5996 541.9844,614.3809 Q541.375,614.1621 540.75,614.1621 Q539.9844,614.1621 539.3438,614.4902 Q538.7188,614.8184 538.2188,615.5684 Q537.7344,616.3184 537.7344,617.3496 L537.7344,618.4434 Q537.7344,619.6777 538.625,620.5059 Q539.5156,621.3184 541.1094,621.3184 Q542.0469,621.3184 542.7031,621.0684 Q543.0938,620.9121 543.5156,620.4746 Q543.7813,620.209 543.9219,620.1309 Q544.0781,620.0527 544.2813,620.0527 Q544.6094,620.0527 544.8594,620.3184 Q545.125,620.5684 545.125,620.9121 Q545.125,621.2559 544.7813,621.6621 Q544.2813,622.2402 543.4844,622.5684 Q542.4063,623.0215 541.1094,623.0215 Q539.5938,623.0215 538.3906,622.3965 Q537.4063,621.8965 536.7188,620.834 Q536.0313,619.7559 536.0313,618.4746 L536.0313,617.3184 Q536.0313,615.9902 536.6406,614.8496 Q537.2656,613.6934 538.3594,613.084 Q539.4531,612.459 540.6875,612.459 Q541.4219,612.459 542.0625,612.6309 Q542.7188,612.7871 543.2656,613.1465 Z " fill="#000000"/><text fill="#000000" font-family="sans-serif" font-size="12" font-style="italic" lengthAdjust="spacing" textLength="97" x="552.5" y="604.9492">&#171;AggregateRoot&#187;</text><text fill="#000000" font-family="sans-serif" font-size="12" font-style="italic" lengthAdjust="spacing" textLength="44" x="579" y="620.9102">&#171;Entity&#187;</text><text fill="#000000" font-family="sans-serif" font-size="14" lengthAdjust="spacing" textLength="29" x="586.5" y="639.0293">User</text><line style="stroke:#181818;stroke-width:0.5;" x1="526.5" x2="649.5" y1="647.543" y2="647.543"/><line style="stroke:#181818;stroke-width:0.5;" x1="526.5" x2="649.5" y1="655.543" y2="655.543"/></g><!--class Patient--><g id="elem_Patient"><rect codeLine="7" fill="#F1F1F1" height="76.543" id="Patient" rx="2.5" ry="2.5" style="stroke:#181818;stroke-width:0.5;" width="125" x="432.5" y="225"/><ellipse cx="447.5" cy="255.2715" fill="#ADD1B2" rx="11" ry="11" style="stroke:#181818;stroke-width:1.0;"/><path d="M450.2656,251.1465 Q450.4219,250.9277 450.6094,250.8184 Q450.7969,250.709 451.0156,250.709 Q451.3906,250.709 451.625,250.9746 Q451.8594,251.2246 451.8594,251.834 L451.8594,253.2871 Q451.8594,253.8965 451.625,254.1621 Q451.3906,254.4277 451.0156,254.4277 Q450.6719,254.4277 450.4688,254.2246 Q450.2656,254.0371 450.1563,253.5215 Q450.1094,253.1621 449.9219,252.9746 Q449.5938,252.5996 448.9844,252.3809 Q448.375,252.1621 447.75,252.1621 Q446.9844,252.1621 446.3438,252.4902 Q445.7188,252.8184 445.2188,253.5684 Q444.7344,254.3184 444.7344,255.3496 L444.7344,256.4434 Q444.7344,257.6777 445.625,258.5059 Q446.5156,259.3184 448.1094,259.3184 Q449.0469,259.3184 449.7031,259.0684 Q450.0938,258.9121 450.5156,258.4746 Q450.7813,258.209 450.9219,258.1309 Q451.0781,258.0527 451.2813,258.0527 Q451.6094,258.0527 451.8594,258.3184 Q452.125,258.5684 452.125,258.9121 Q452.125,259.2559 451.7813,259.6621 Q451.2813,260.2402 450.4844,260.5684 Q449.4063,261.0215 448.1094,261.0215 Q446.5938,261.0215 445.3906,260.3965 Q444.4063,259.8965 443.7188,258.834 Q443.0313,257.7559 443.0313,256.4746 L443.0313,255.3184 Q443.0313,253.9902 443.6406,252.8496 Q444.2656,251.6934 445.3594,251.084 Q446.4531,250.459 447.6875,250.459 Q448.4219,250.459 449.0625,250.6309 Q449.7188,250.7871 450.2656,251.1465 Z " fill="#000000"/><text fill="#000000" font-family="sans-serif" font-size="12" font-style="italic" lengthAdjust="spacing" textLength="97" x="459.5" y="242.9492">&#171;AggregateRoot&#187;</text><text fill="#000000" font-family="sans-serif" font-size="12" font-style="italic" lengthAdjust="spacing" textLength="44" x="486" y="258.9102">&#171;Entity&#187;</text><text fill="#000000" font-family="sans-serif" font-size="14" lengthAdjust="spacing" textLength="44" x="486" y="277.0293">Patient</text><line style="stroke:#181818;stroke-width:0.5;" x1="433.5" x2="556.5" y1="285.543" y2="285.543"/><line style="stroke:#181818;stroke-width:0.5;" x1="433.5" x2="556.5" y1="293.543" y2="293.543"/></g><!--class MedicalCondition_Record--><g id="elem_MedicalCondition_Record"><rect codeLine="8" fill="#F1F1F1" height="60.582" id="MedicalCondition_Record" rx="2.5" ry="2.5" style="stroke:#181818;stroke-width:0.5;" width="194" x="458" y="414"/><ellipse cx="473" cy="436.291" fill="#ADD1B2" rx="11" ry="11" style="stroke:#181818;stroke-width:1.0;"/><path d="M475.7656,432.166 Q475.9219,431.9473 476.1094,431.8379 Q476.2969,431.7285 476.5156,431.7285 Q476.8906,431.7285 477.125,431.9941 Q477.3594,432.2441 477.3594,432.8535 L477.3594,434.3066 Q477.3594,434.916 477.125,435.1816 Q476.8906,435.4473 476.5156,435.4473 Q476.1719,435.4473 475.9688,435.2441 Q475.7656,435.0566 475.6563,434.541 Q475.6094,434.1816 475.4219,433.9941 Q475.0938,433.6191 474.4844,433.4004 Q473.875,433.1816 473.25,433.1816 Q472.4844,433.1816 471.8438,433.5098 Q471.2188,433.8379 470.7188,434.5879 Q470.2344,435.3379 470.2344,436.3691 L470.2344,437.4629 Q470.2344,438.6973 471.125,439.5254 Q472.0156,440.3379 473.6094,440.3379 Q474.5469,440.3379 475.2031,440.0879 Q475.5938,439.9316 476.0156,439.4941 Q476.2813,439.2285 476.4219,439.1504 Q476.5781,439.0723 476.7813,439.0723 Q477.1094,439.0723 477.3594,439.3379 Q477.625,439.5879 477.625,439.9316 Q477.625,440.2754 477.2813,440.6816 Q476.7813,441.2598 475.9844,441.5879 Q474.9063,442.041 473.6094,442.041 Q472.0938,442.041 470.8906,441.416 Q469.9063,440.916 469.2188,439.8535 Q468.5313,438.7754 468.5313,437.4941 L468.5313,436.3379 Q468.5313,435.0098 469.1406,433.8691 Q469.7656,432.7129 470.8594,432.1035 Q471.9531,431.4785 473.1875,431.4785 Q473.9219,431.4785 474.5625,431.6504 Q475.2188,431.8066 475.7656,432.166 Z " fill="#000000"/><text fill="#000000" font-family="sans-serif" font-size="12" font-style="italic" lengthAdjust="spacing" textLength="44" x="546" y="431.9492">&#171;Entity&#187;</text><text fill="#000000" font-family="sans-serif" font-size="14" lengthAdjust="spacing" textLength="162" x="487" y="450.0684">MedicalCondition_Record</text><line style="stroke:#181818;stroke-width:0.5;" x1="459" x2="651" y1="458.582" y2="458.582"/><line style="stroke:#181818;stroke-width:0.5;" x1="459" x2="651" y1="466.582" y2="466.582"/></g><!--class AppointmentHistory--><g id="elem_AppointmentHistory"><rect codeLine="9" fill="#F1F1F1" height="60.582" id="AppointmentHistory" rx="2.5" ry="2.5" style="stroke:#181818;stroke-width:0.5;" width="154" x="269" y="414"/><ellipse cx="284" cy="436.291" fill="#ADD1B2" rx="11" ry="11" style="stroke:#181818;stroke-width:1.0;"/><path d="M286.7656,432.166 Q286.9219,431.9473 287.1094,431.8379 Q287.2969,431.7285 287.5156,431.7285 Q287.8906,431.7285 288.125,431.9941 Q288.3594,432.2441 288.3594,432.8535 L288.3594,434.3066 Q288.3594,434.916 288.125,435.1816 Q287.8906,435.4473 287.5156,435.4473 Q287.1719,435.4473 286.9688,435.2441 Q286.7656,435.0566 286.6563,434.541 Q286.6094,434.1816 286.4219,433.9941 Q286.0938,433.6191 285.4844,433.4004 Q284.875,433.1816 284.25,433.1816 Q283.4844,433.1816 282.8438,433.5098 Q282.2188,433.8379 281.7188,434.5879 Q281.2344,435.3379 281.2344,436.3691 L281.2344,437.4629 Q281.2344,438.6973 282.125,439.5254 Q283.0156,440.3379 284.6094,440.3379 Q285.5469,440.3379 286.2031,440.0879 Q286.5938,439.9316 287.0156,439.4941 Q287.2813,439.2285 287.4219,439.1504 Q287.5781,439.0723 287.7813,439.0723 Q288.1094,439.0723 288.3594,439.3379 Q288.625,439.5879 288.625,439.9316 Q288.625,440.2754 288.2813,440.6816 Q287.7813,441.2598 286.9844,441.5879 Q285.9063,442.041 284.6094,442.041 Q283.0938,442.041 281.8906,441.416 Q280.9063,440.916 280.2188,439.8535 Q279.5313,438.7754 279.5313,437.4941 L279.5313,436.3379 Q279.5313,435.0098 280.1406,433.8691 Q280.7656,432.7129 281.8594,432.1035 Q282.9531,431.4785 284.1875,431.4785 Q284.9219,431.4785 285.5625,431.6504 Q286.2188,431.8066 286.7656,432.166 Z " fill="#000000"/><text fill="#000000" font-family="sans-serif" font-size="12" font-style="italic" lengthAdjust="spacing" textLength="44" x="337" y="431.9492">&#171;Entity&#187;</text><text fill="#000000" font-family="sans-serif" font-size="14" lengthAdjust="spacing" textLength="122" x="298" y="450.0684">AppointmentHistory</text><line style="stroke:#181818;stroke-width:0.5;" x1="270" x2="422" y1="458.582" y2="458.582"/><line style="stroke:#181818;stroke-width:0.5;" x1="270" x2="422" y1="466.582" y2="466.582"/></g><!--class Staff--><g id="elem_Staff"><rect codeLine="16" fill="#F1F1F1" height="76.543" id="Staff" rx="2.5" ry="2.5" style="stroke:#181818;stroke-width:0.5;" width="125" x="318.5" y="587"/><ellipse cx="333.5" cy="617.2715" fill="#ADD1B2" rx="11" ry="11" style="stroke:#181818;stroke-width:1.0;"/><path d="M336.2656,613.1465 Q336.4219,612.9277 336.6094,612.8184 Q336.7969,612.709 337.0156,612.709 Q337.3906,612.709 337.625,612.9746 Q337.8594,613.2246 337.8594,613.834 L337.8594,615.2871 Q337.8594,615.8965 337.625,616.1621 Q337.3906,616.4277 337.0156,616.4277 Q336.6719,616.4277 336.4688,616.2246 Q336.2656,616.0371 336.1563,615.5215 Q336.1094,615.1621 335.9219,614.9746 Q335.5938,614.5996 334.9844,614.3809 Q334.375,614.1621 333.75,614.1621 Q332.9844,614.1621 332.3438,614.4902 Q331.7188,614.8184 331.2188,615.5684 Q330.7344,616.3184 330.7344,617.3496 L330.7344,618.4434 Q330.7344,619.6777 331.625,620.5059 Q332.5156,621.3184 334.1094,621.3184 Q335.0469,621.3184 335.7031,621.0684 Q336.0938,620.9121 336.5156,620.4746 Q336.7813,620.209 336.9219,620.1309 Q337.0781,620.0527 337.2813,620.0527 Q337.6094,620.0527 337.8594,620.3184 Q338.125,620.5684 338.125,620.9121 Q338.125,621.2559 337.7813,621.6621 Q337.2813,622.2402 336.4844,622.5684 Q335.4063,623.0215 334.1094,623.0215 Q332.5938,623.0215 331.3906,622.3965 Q330.4063,621.8965 329.7188,620.834 Q329.0313,619.7559 329.0313,618.4746 L329.0313,617.3184 Q329.0313,615.9902 329.6406,614.8496 Q330.2656,613.6934 331.3594,613.084 Q332.4531,612.459 333.6875,612.459 Q334.4219,612.459 335.0625,612.6309 Q335.7188,612.7871 336.2656,613.1465 Z " fill="#000000"/><text fill="#000000" font-family="sans-serif" font-size="12" font-style="italic" lengthAdjust="spacing" textLength="97" x="345.5" y="604.9492">&#171;AggregateRoot&#187;</text><text fill="#000000" font-family="sans-serif" font-size="12" font-style="italic" lengthAdjust="spacing" textLength="44" x="372" y="620.9102">&#171;Entity&#187;</text><text fill="#000000" font-family="sans-serif" font-size="14" lengthAdjust="spacing" textLength="29" x="379.5" y="639.0293">Staff</text><line style="stroke:#181818;stroke-width:0.5;" x1="319.5" x2="442.5" y1="647.543" y2="647.543"/><line style="stroke:#181818;stroke-width:0.5;" x1="319.5" x2="442.5" y1="655.543" y2="655.543"/></g><!--class Specialization--><g id="elem_Specialization"><rect codeLine="20" fill="#F1F1F1" height="60.582" id="Specialization" rx="2.5" ry="2.5" style="stroke:#181818;stroke-width:0.5;" width="118" x="322" y="776"/><ellipse cx="337" cy="798.291" fill="#ADD1B2" rx="11" ry="11" style="stroke:#181818;stroke-width:1.0;"/><path d="M339.7656,794.166 Q339.9219,793.9473 340.1094,793.8379 Q340.2969,793.7285 340.5156,793.7285 Q340.8906,793.7285 341.125,793.9941 Q341.3594,794.2441 341.3594,794.8535 L341.3594,796.3066 Q341.3594,796.916 341.125,797.1816 Q340.8906,797.4473 340.5156,797.4473 Q340.1719,797.4473 339.9688,797.2441 Q339.7656,797.0566 339.6563,796.541 Q339.6094,796.1816 339.4219,795.9941 Q339.0938,795.6191 338.4844,795.4004 Q337.875,795.1816 337.25,795.1816 Q336.4844,795.1816 335.8438,795.5098 Q335.2188,795.8379 334.7188,796.5879 Q334.2344,797.3379 334.2344,798.3691 L334.2344,799.4629 Q334.2344,800.6973 335.125,801.5254 Q336.0156,802.3379 337.6094,802.3379 Q338.5469,802.3379 339.2031,802.0879 Q339.5938,801.9316 340.0156,801.4941 Q340.2813,801.2285 340.4219,801.1504 Q340.5781,801.0723 340.7813,801.0723 Q341.1094,801.0723 341.3594,801.3379 Q341.625,801.5879 341.625,801.9316 Q341.625,802.2754 341.2813,802.6816 Q340.7813,803.2598 339.9844,803.5879 Q338.9063,804.041 337.6094,804.041 Q336.0938,804.041 334.8906,803.416 Q333.9063,802.916 333.2188,801.8535 Q332.5313,800.7754 332.5313,799.4941 L332.5313,798.3379 Q332.5313,797.0098 333.1406,795.8691 Q333.7656,794.7129 334.8594,794.1035 Q335.9531,793.4785 337.1875,793.4785 Q337.9219,793.4785 338.5625,793.6504 Q339.2188,793.8066 339.7656,794.166 Z " fill="#000000"/><text fill="#000000" font-family="sans-serif" font-size="12" font-style="italic" lengthAdjust="spacing" textLength="44" x="372" y="793.9492">&#171;Entity&#187;</text><text fill="#000000" font-family="sans-serif" font-size="14" lengthAdjust="spacing" textLength="86" x="351" y="812.0684">Specialization</text><line style="stroke:#181818;stroke-width:0.5;" x1="323" x2="439" y1="820.582" y2="820.582"/><line style="stroke:#181818;stroke-width:0.5;" x1="323" x2="439" y1="828.582" y2="828.582"/></g><!--class OperationRequest--><g id="elem_OperationRequest"><rect codeLine="24" fill="#F1F1F1" height="76.543" id="OperationRequest" rx="2.5" ry="2.5" style="stroke:#181818;stroke-width:0.5;" width="148" x="65" y="406"/><ellipse cx="80" cy="436.2715" fill="#ADD1B2" rx="11" ry="11" style="stroke:#181818;stroke-width:1.0;"/><path d="M82.7656,432.1465 Q82.9219,431.9277 83.1094,431.8184 Q83.2969,431.709 83.5156,431.709 Q83.8906,431.709 84.125,431.9746 Q84.3594,432.2246 84.3594,432.834 L84.3594,434.2871 Q84.3594,434.8965 84.125,435.1621 Q83.8906,435.4277 83.5156,435.4277 Q83.1719,435.4277 82.9688,435.2246 Q82.7656,435.0371 82.6563,434.5215 Q82.6094,434.1621 82.4219,433.9746 Q82.0938,433.5996 81.4844,433.3809 Q80.875,433.1621 80.25,433.1621 Q79.4844,433.1621 78.8438,433.4902 Q78.2188,433.8184 77.7188,434.5684 Q77.2344,435.3184 77.2344,436.3496 L77.2344,437.4434 Q77.2344,438.6777 78.125,439.5059 Q79.0156,440.3184 80.6094,440.3184 Q81.5469,440.3184 82.2031,440.0684 Q82.5938,439.9121 83.0156,439.4746 Q83.2813,439.209 83.4219,439.1309 Q83.5781,439.0527 83.7813,439.0527 Q84.1094,439.0527 84.3594,439.3184 Q84.625,439.5684 84.625,439.9121 Q84.625,440.2559 84.2813,440.6621 Q83.7813,441.2402 82.9844,441.5684 Q81.9063,442.0215 80.6094,442.0215 Q79.0938,442.0215 77.8906,441.3965 Q76.9063,440.8965 76.2188,439.834 Q75.5313,438.7559 75.5313,437.4746 L75.5313,436.3184 Q75.5313,434.9902 76.1406,433.8496 Q76.7656,432.6934 77.8594,432.084 Q78.9531,431.459 80.1875,431.459 Q80.9219,431.459 81.5625,431.6309 Q82.2188,431.7871 82.7656,432.1465 Z " fill="#000000"/><text fill="#000000" font-family="sans-serif" font-size="12" font-style="italic" lengthAdjust="spacing" textLength="97" x="103.5" y="423.9492">&#171;AggregateRoot&#187;</text><text fill="#000000" font-family="sans-serif" font-size="12" font-style="italic" lengthAdjust="spacing" textLength="44" x="130" y="439.9102">&#171;Entity&#187;</text><text fill="#000000" font-family="sans-serif" font-size="14" lengthAdjust="spacing" textLength="116" x="94" y="458.0293">OperationRequest</text><line style="stroke:#181818;stroke-width:0.5;" x1="66" x2="212" y1="466.543" y2="466.543"/><line style="stroke:#181818;stroke-width:0.5;" x1="66" x2="212" y1="474.543" y2="474.543"/></g><!--class OperationType--><g id="elem_OperationType"><rect codeLine="28" fill="#F1F1F1" height="76.543" id="OperationType" rx="2.5" ry="2.5" style="stroke:#181818;stroke-width:0.5;" width="127" x="75.5" y="225"/><ellipse cx="90.5" cy="255.2715" fill="#ADD1B2" rx="11" ry="11" style="stroke:#181818;stroke-width:1.0;"/><path d="M93.2656,251.1465 Q93.4219,250.9277 93.6094,250.8184 Q93.7969,250.709 94.0156,250.709 Q94.3906,250.709 94.625,250.9746 Q94.8594,251.2246 94.8594,251.834 L94.8594,253.2871 Q94.8594,253.8965 94.625,254.1621 Q94.3906,254.4277 94.0156,254.4277 Q93.6719,254.4277 93.4688,254.2246 Q93.2656,254.0371 93.1563,253.5215 Q93.1094,253.1621 92.9219,252.9746 Q92.5938,252.5996 91.9844,252.3809 Q91.375,252.1621 90.75,252.1621 Q89.9844,252.1621 89.3438,252.4902 Q88.7188,252.8184 88.2188,253.5684 Q87.7344,254.3184 87.7344,255.3496 L87.7344,256.4434 Q87.7344,257.6777 88.625,258.5059 Q89.5156,259.3184 91.1094,259.3184 Q92.0469,259.3184 92.7031,259.0684 Q93.0938,258.9121 93.5156,258.4746 Q93.7813,258.209 93.9219,258.1309 Q94.0781,258.0527 94.2813,258.0527 Q94.6094,258.0527 94.8594,258.3184 Q95.125,258.5684 95.125,258.9121 Q95.125,259.2559 94.7813,259.6621 Q94.2813,260.2402 93.4844,260.5684 Q92.4063,261.0215 91.1094,261.0215 Q89.5938,261.0215 88.3906,260.3965 Q87.4063,259.8965 86.7188,258.834 Q86.0313,257.7559 86.0313,256.4746 L86.0313,255.3184 Q86.0313,253.9902 86.6406,252.8496 Q87.2656,251.6934 88.3594,251.084 Q89.4531,250.459 90.6875,250.459 Q91.4219,250.459 92.0625,250.6309 Q92.7188,250.7871 93.2656,251.1465 Z " fill="#000000"/><text fill="#000000" font-family="sans-serif" font-size="12" font-style="italic" lengthAdjust="spacing" textLength="97" x="103.5" y="242.9492">&#171;AggregateRoot&#187;</text><text fill="#000000" font-family="sans-serif" font-size="12" font-style="italic" lengthAdjust="spacing" textLength="44" x="130" y="258.9102">&#171;Entity&#187;</text><text fill="#000000" font-family="sans-serif" font-size="14" lengthAdjust="spacing" textLength="95" x="104.5" y="277.0293">OperationType</text><line style="stroke:#181818;stroke-width:0.5;" x1="76.5" x2="201.5" y1="285.543" y2="285.543"/><line style="stroke:#181818;stroke-width:0.5;" x1="76.5" x2="201.5" y1="293.543" y2="293.543"/></g><!--class OperationTypeHistory--><g id="elem_OperationTypeHistory"><rect codeLine="32" fill="#F1F1F1" height="76.543" id="OperationTypeHistory" rx="2.5" ry="2.5" style="stroke:#181818;stroke-width:0.5;" width="170" x="54" y="44"/><ellipse cx="69" cy="74.2715" fill="#ADD1B2" rx="11" ry="11" style="stroke:#181818;stroke-width:1.0;"/><path d="M71.7656,70.1465 Q71.9219,69.9277 72.1094,69.8184 Q72.2969,69.709 72.5156,69.709 Q72.8906,69.709 73.125,69.9746 Q73.3594,70.2246 73.3594,70.834 L73.3594,72.2871 Q73.3594,72.8965 73.125,73.1621 Q72.8906,73.4277 72.5156,73.4277 Q72.1719,73.4277 71.9688,73.2246 Q71.7656,73.0371 71.6563,72.5215 Q71.6094,72.1621 71.4219,71.9746 Q71.0938,71.5996 70.4844,71.3809 Q69.875,71.1621 69.25,71.1621 Q68.4844,71.1621 67.8438,71.4902 Q67.2188,71.8184 66.7188,72.5684 Q66.2344,73.3184 66.2344,74.3496 L66.2344,75.4434 Q66.2344,76.6777 67.125,77.5059 Q68.0156,78.3184 69.6094,78.3184 Q70.5469,78.3184 71.2031,78.0684 Q71.5938,77.9121 72.0156,77.4746 Q72.2813,77.209 72.4219,77.1309 Q72.5781,77.0527 72.7813,77.0527 Q73.1094,77.0527 73.3594,77.3184 Q73.625,77.5684 73.625,77.9121 Q73.625,78.2559 73.2813,78.6621 Q72.7813,79.2402 71.9844,79.5684 Q70.9063,80.0215 69.6094,80.0215 Q68.0938,80.0215 66.8906,79.3965 Q65.9063,78.8965 65.2188,77.834 Q64.5313,76.7559 64.5313,75.4746 L64.5313,74.3184 Q64.5313,72.9902 65.1406,71.8496 Q65.7656,70.6934 66.8594,70.084 Q67.9531,69.459 69.1875,69.459 Q69.9219,69.459 70.5625,69.6309 Q71.2188,69.7871 71.7656,70.1465 Z " fill="#000000"/><text fill="#000000" font-family="sans-serif" font-size="12" font-style="italic" lengthAdjust="spacing" textLength="97" x="103.5" y="61.9492">&#171;AggregateRoot&#187;</text><text fill="#000000" font-family="sans-serif" font-size="12" font-style="italic" lengthAdjust="spacing" textLength="44" x="130" y="77.9102">&#171;Entity&#187;</text><text fill="#000000" font-family="sans-serif" font-size="14" lengthAdjust="spacing" textLength="138" x="83" y="96.0293">OperationTypeHistory</text><line style="stroke:#181818;stroke-width:0.5;" x1="55" x2="223" y1="104.543" y2="104.543"/><line style="stroke:#181818;stroke-width:0.5;" x1="55" x2="223" y1="112.543" y2="112.543"/></g><!--class Appointment--><g id="elem_Appointment"><rect codeLine="36" fill="#F1F1F1" height="76.543" id="Appointment" rx="2.5" ry="2.5" style="stroke:#181818;stroke-width:0.5;" width="125" x="76.5" y="587"/><ellipse cx="91.5" cy="617.2715" fill="#ADD1B2" rx="11" ry="11" style="stroke:#181818;stroke-width:1.0;"/><path d="M94.2656,613.1465 Q94.4219,612.9277 94.6094,612.8184 Q94.7969,612.709 95.0156,612.709 Q95.3906,612.709 95.625,612.9746 Q95.8594,613.2246 95.8594,613.834 L95.8594,615.2871 Q95.8594,615.8965 95.625,616.1621 Q95.3906,616.4277 95.0156,616.4277 Q94.6719,616.4277 94.4688,616.2246 Q94.2656,616.0371 94.1563,615.5215 Q94.1094,615.1621 93.9219,614.9746 Q93.5938,614.5996 92.9844,614.3809 Q92.375,614.1621 91.75,614.1621 Q90.9844,614.1621 90.3438,614.4902 Q89.7188,614.8184 89.2188,615.5684 Q88.7344,616.3184 88.7344,617.3496 L88.7344,618.4434 Q88.7344,619.6777 89.625,620.5059 Q90.5156,621.3184 92.1094,621.3184 Q93.0469,621.3184 93.7031,621.0684 Q94.0938,620.9121 94.5156,620.4746 Q94.7813,620.209 94.9219,620.1309 Q95.0781,620.0527 95.2813,620.0527 Q95.6094,620.0527 95.8594,620.3184 Q96.125,620.5684 96.125,620.9121 Q96.125,621.2559 95.7813,621.6621 Q95.2813,622.2402 94.4844,622.5684 Q93.4063,623.0215 92.1094,623.0215 Q90.5938,623.0215 89.3906,622.3965 Q88.4063,621.8965 87.7188,620.834 Q87.0313,619.7559 87.0313,618.4746 L87.0313,617.3184 Q87.0313,615.9902 87.6406,614.8496 Q88.2656,613.6934 89.3594,613.084 Q90.4531,612.459 91.6875,612.459 Q92.4219,612.459 93.0625,612.6309 Q93.7188,612.7871 94.2656,613.1465 Z " fill="#000000"/><text fill="#000000" font-family="sans-serif" font-size="12" font-style="italic" lengthAdjust="spacing" textLength="97" x="103.5" y="604.9492">&#171;AggregateRoot&#187;</text><text fill="#000000" font-family="sans-serif" font-size="12" font-style="italic" lengthAdjust="spacing" textLength="44" x="130" y="620.9102">&#171;Entity&#187;</text><text fill="#000000" font-family="sans-serif" font-size="14" lengthAdjust="spacing" textLength="79" x="112.5" y="639.0293">Appointment</text><line style="stroke:#181818;stroke-width:0.5;" x1="77.5" x2="200.5" y1="647.543" y2="647.543"/><line style="stroke:#181818;stroke-width:0.5;" x1="77.5" x2="200.5" y1="655.543" y2="655.543"/></g><!--class SurgeryRoom--><g id="elem_SurgeryRoom"><rect codeLine="40" fill="#F1F1F1" height="76.543" id="SurgeryRoom" rx="2.5" ry="2.5" style="stroke:#181818;stroke-width:0.5;" width="125" x="76.5" y="768"/><ellipse cx="91.5" cy="798.2715" fill="#ADD1B2" rx="11" ry="11" style="stroke:#181818;stroke-width:1.0;"/><path d="M94.2656,794.1465 Q94.4219,793.9277 94.6094,793.8184 Q94.7969,793.709 95.0156,793.709 Q95.3906,793.709 95.625,793.9746 Q95.8594,794.2246 95.8594,794.834 L95.8594,796.2871 Q95.8594,796.8965 95.625,797.1621 Q95.3906,797.4277 95.0156,797.4277 Q94.6719,797.4277 94.4688,797.2246 Q94.2656,797.0371 94.1563,796.5215 Q94.1094,796.1621 93.9219,795.9746 Q93.5938,795.5996 92.9844,795.3809 Q92.375,795.1621 91.75,795.1621 Q90.9844,795.1621 90.3438,795.4902 Q89.7188,795.8184 89.2188,796.5684 Q88.7344,797.3184 88.7344,798.3496 L88.7344,799.4434 Q88.7344,800.6777 89.625,801.5059 Q90.5156,802.3184 92.1094,802.3184 Q93.0469,802.3184 93.7031,802.0684 Q94.0938,801.9121 94.5156,801.4746 Q94.7813,801.209 94.9219,801.1309 Q95.0781,801.0527 95.2813,801.0527 Q95.6094,801.0527 95.8594,801.3184 Q96.125,801.5684 96.125,801.9121 Q96.125,802.2559 95.7813,802.6621 Q95.2813,803.2402 94.4844,803.5684 Q93.4063,804.0215 92.1094,804.0215 Q90.5938,804.0215 89.3906,803.3965 Q88.4063,802.8965 87.7188,801.834 Q87.0313,800.7559 87.0313,799.4746 L87.0313,798.3184 Q87.0313,796.9902 87.6406,795.8496 Q88.2656,794.6934 89.3594,794.084 Q90.4531,793.459 91.6875,793.459 Q92.4219,793.459 93.0625,793.6309 Q93.7188,793.7871 94.2656,794.1465 Z " fill="#000000"/><text fill="#000000" font-family="sans-serif" font-size="12" font-style="italic" lengthAdjust="spacing" textLength="97" x="103.5" y="785.9492">&#171;AggregateRoot&#187;</text><text fill="#000000" font-family="sans-serif" font-size="12" font-style="italic" lengthAdjust="spacing" textLength="44" x="130" y="801.9102">&#171;Entity&#187;</text><text fill="#000000" font-family="sans-serif" font-size="14" lengthAdjust="spacing" textLength="87" x="108.5" y="820.0293">SurgeryRoom</text><line style="stroke:#181818;stroke-width:0.5;" x1="77.5" x2="200.5" y1="828.543" y2="828.543"/><line style="stroke:#181818;stroke-width:0.5;" x1="77.5" x2="200.5" y1="836.543" y2="836.543"/></g><!--reverse link Patient to MedicalCondition_Record--><g id="link_Patient_MedicalCondition_Record"><path codeLine="11" d="M509.4861,307.7092 C520.6161,340.9292 534.74,383.07 545.02,413.72 " fill="none" id="Patient-backto-MedicalCondition_Record" style="stroke:#181818;stroke-width:1.0;"/><polygon fill="#181818" points="507.58,302.02,506.6464,311.8245,509.1684,306.761,514.2319,309.283,507.58,302.02" style="stroke:#181818;stroke-width:1.0;"/><text fill="#000000" font-family="sans-serif" font-size="13" lengthAdjust="spacing" textLength="50" x="524" y="349.0283">presents</text><text fill="#000000" font-family="sans-serif" font-size="13" lengthAdjust="spacing" textLength="7" x="502.0271" y="323.6017">1</text><text fill="#000000" font-family="sans-serif" font-size="13" lengthAdjust="spacing" textLength="5" x="537.446" y="402.7199">*</text></g><!--reverse link Patient to AppointmentHistory--><g id="link_Patient_AppointmentHistory"><path codeLine="12" d="M459.9224,306.6323 C432.2824,339.8523 396.3,383.07 370.79,413.72 " fill="none" id="Patient-backto-AppointmentHistory" style="stroke:#181818;stroke-width:1.0;"/><polygon fill="#181818" points="463.76,302.02,454.9288,306.3801,460.562,305.8636,461.0785,311.4968,463.76,302.02" style="stroke:#181818;stroke-width:1.0;"/><text fill="#000000" font-family="sans-serif" font-size="13" lengthAdjust="spacing" textLength="50" x="435" y="349.0283">presents</text><text fill="#000000" font-family="sans-serif" font-size="13" lengthAdjust="spacing" textLength="7" x="451.2233" y="323.6017">1</text><text fill="#000000" font-family="sans-serif" font-size="13" lengthAdjust="spacing" textLength="20" x="353.8404" y="402.7199">1..*</text></g><!--reverse link Patient to User--><g id="link_Patient_User"><path codeLine="43" d="M563.2723,283.1529 C603.0623,297.3229 645.83,320.07 670,361 C703,416.87 689.46,445.1 670,507 C660.67,536.66 640.9,565.37 623.11,586.99 " fill="none" id="Patient-backto-User" style="stroke:#181818;stroke-width:1.0;"/><polygon fill="#181818" points="557.62,281.14,564.7565,287.9275,562.3302,282.8174,567.4403,280.3911,557.62,281.14" style="stroke:#181818;stroke-width:1.0;"/><text fill="#000000" font-family="sans-serif" font-size="13" lengthAdjust="spacing" textLength="39" x="690" y="450.0283">can be</text><text fill="#000000" font-family="sans-serif" font-size="13" lengthAdjust="spacing" textLength="22" x="565.6722" y="279.2089">0..1</text><text fill="#000000" font-family="sans-serif" font-size="13" lengthAdjust="spacing" textLength="22" x="605.4046" y="575.7113">0..1</text></g><!--reverse link Staff to User--><g id="link_Staff_User"><path codeLine="44" d="M449.67,625.5 C475.49,625.5 499.35,625.5 525.19,625.5 " fill="none" id="Staff-backto-User" style="stroke:#181818;stroke-width:1.0;"/><polygon fill="#181818" points="443.67,625.5,452.67,629.5,448.67,625.5,452.67,621.5,443.67,625.5" style="stroke:#181818;stroke-width:1.0;"/><text fill="#000000" font-family="sans-serif" font-size="13" lengthAdjust="spacing" textLength="39" x="465" y="618.5283">can be</text><text fill="#000000" font-family="sans-serif" font-size="13" lengthAdjust="spacing" textLength="22" x="451.7277" y="640.4989">0..1</text><text fill="#000000" font-family="sans-serif" font-size="13" lengthAdjust="spacing" textLength="22" x="495.5783" y="640.4435">0..1</text></g><!--reverse link Patient to OperationRequest--><g id="link_Patient_OperationRequest"><path codeLine="46" d="M426.757,286.6137 C376.727,303.8437 311.26,328.95 253,361 C229.67,373.84 205.54,390.7 185.52,405.83 " fill="none" id="Patient-backto-OperationRequest" style="stroke:#181818;stroke-width:1.0;"/><polygon fill="#181818" points="432.43,284.66,422.618,283.8086,427.7025,286.2881,425.223,291.3726,432.43,284.66" style="stroke:#181818;stroke-width:1.0;"/><text fill="#000000" font-family="sans-serif" font-size="13" lengthAdjust="spacing" textLength="68" x="305" y="349.0283">are required</text><text fill="#000000" font-family="sans-serif" font-size="13" lengthAdjust="spacing" textLength="7" x="417.3777" y="283.2768">1</text><text fill="#000000" font-family="sans-serif" font-size="13" lengthAdjust="spacing" textLength="5" x="188.0859" y="394.8153">*</text></g><!--link OperationRequest to Staff--><g id="link_OperationRequest_Staff"><path codeLine="47" d="M189.73,483.02 C230.89,513.47 283.8363,552.6319 325.0963,583.1519 " fill="none" id="OperationRequest-to-Staff" style="stroke:#181818;stroke-width:1.0;"/><polygon fill="#181818" points="329.92,586.72,325.0631,578.152,325.9002,583.7466,320.3056,584.5836,329.92,586.72" style="stroke:#181818;stroke-width:1.0;"/><text fill="#000000" font-family="sans-serif" font-size="13" lengthAdjust="spacing" textLength="68" x="254" y="530.0283">are required</text><text fill="#000000" font-family="sans-serif" font-size="13" lengthAdjust="spacing" textLength="5" x="192.4167" y="504.6017">*</text><text fill="#000000" font-family="sans-serif" font-size="13" lengthAdjust="spacing" textLength="7" x="313.5391" y="575.6864">1</text></g><!--reverse link OperationType to OperationRequest--><g id="link_OperationType_OperationRequest"><path codeLine="48" d="M139,308.02 C139,338.47 139,375.2 139,405.72 " fill="none" id="OperationType-backto-OperationRequest" style="stroke:#181818;stroke-width:1.0;"/><polygon fill="#181818" points="139,302.02,135,311.02,139,307.02,143,311.02,139,302.02" style="stroke:#181818;stroke-width:1.0;"/><text fill="#000000" font-family="sans-serif" font-size="13" lengthAdjust="spacing" textLength="73" x="140" y="349.0283">is defined by</text><text fill="#000000" font-family="sans-serif" font-size="13" lengthAdjust="spacing" textLength="7" x="131.4422" y="323.6017">1</text><text fill="#000000" font-family="sans-serif" font-size="13" lengthAdjust="spacing" textLength="5" x="133.5703" y="394.6864">*</text></g><!--link OperationTypeHistory to OperationType--><g id="link_OperationTypeHistory_OperationType"><path codeLine="50" d="M139,121.02 C139,151.47 139,188.2 139,218.72 " fill="none" id="OperationTypeHistory-to-OperationType" style="stroke:#181818;stroke-width:1.0;"/><polygon fill="#181818" points="139,224.72,143,215.72,139,219.72,135,215.72,139,224.72" style="stroke:#181818;stroke-width:1.0;"/><text fill="#000000" font-family="sans-serif" font-size="13" lengthAdjust="spacing" textLength="43" x="140" y="168.0283">records</text><text fill="#000000" font-family="sans-serif" font-size="13" lengthAdjust="spacing" textLength="7" x="131.4422" y="142.6017">1</text><text fill="#000000" font-family="sans-serif" font-size="13" lengthAdjust="spacing" textLength="20" x="117.2813" y="213.6864">1..*</text></g><!--reverse link OperationRequest to Appointment--><g id="link_OperationRequest_Appointment"><path codeLine="52" d="M139,489.02 C139,519.47 139,556.2 139,586.72 " fill="none" id="OperationRequest-backto-Appointment" style="stroke:#181818;stroke-width:1.0;"/><polygon fill="#181818" points="139,483.02,135,492.02,139,488.02,143,492.02,139,483.02" style="stroke:#181818;stroke-width:1.0;"/><text fill="#000000" font-family="sans-serif" font-size="13" lengthAdjust="spacing" textLength="84" x="140" y="530.0283">is schedule by</text><text fill="#000000" font-family="sans-serif" font-size="13" lengthAdjust="spacing" textLength="7" x="131.4422" y="504.6017">1</text><text fill="#000000" font-family="sans-serif" font-size="13" lengthAdjust="spacing" textLength="7" x="131.3984" y="575.6864">1</text></g><!--link Appointment to SurgeryRoom--><g id="link_Appointment_SurgeryRoom"><path codeLine="53" d="M139,664.02 C139,694.47 139,731.2 139,761.72 " fill="none" id="Appointment-to-SurgeryRoom" style="stroke:#181818;stroke-width:1.0;"/><polygon fill="#181818" points="139,767.72,143,758.72,139,762.72,135,758.72,139,767.72" style="stroke:#181818;stroke-width:1.0;"/><text fill="#000000" font-family="sans-serif" font-size="13" lengthAdjust="spacing" textLength="74" x="140" y="711.0283">is linked to a</text><text fill="#000000" font-family="sans-serif" font-size="13" lengthAdjust="spacing" textLength="5" x="133.6016" y="685.6017">*</text><text fill="#000000" font-family="sans-serif" font-size="13" lengthAdjust="spacing" textLength="7" x="131.3984" y="756.6864">1</text></g><!--link MedicalCondition_Record to Staff--><g id="link_MedicalCondition_Record_Staff"><path codeLine="55" d="M526.27,475.06 C496.54,505.64 454.1921,549.2077 421.8321,582.4977 " fill="none" id="MedicalCondition_Record-to-Staff" style="stroke:#181818;stroke-width:1.0;"/><polygon fill="#181818" points="417.65,586.8,426.7914,583.1346,421.1351,583.2147,421.055,577.5585,417.65,586.8" style="stroke:#181818;stroke-width:1.0;"/><text fill="#000000" font-family="sans-serif" font-size="13" lengthAdjust="spacing" textLength="82" x="485" y="530.0283">is recorded by</text><text fill="#000000" font-family="sans-serif" font-size="13" lengthAdjust="spacing" textLength="5" x="515.3168" y="496.6017">*</text><text fill="#000000" font-family="sans-serif" font-size="13" lengthAdjust="spacing" textLength="7" x="416.3477" y="575.7801">1</text></g><!--link AppointmentHistory to Staff--><g id="link_AppointmentHistory_Staff"><path codeLine="56" d="M351.78,475.06 C357.76,505.64 365.9685,547.6215 372.4785,580.9115 " fill="none" id="AppointmentHistory-to-Staff" style="stroke:#181818;stroke-width:1.0;"/><polygon fill="#181818" points="373.63,586.8,375.8284,577.1996,372.6704,581.8929,367.9771,578.735,373.63,586.8" style="stroke:#181818;stroke-width:1.0;"/><text fill="#000000" font-family="sans-serif" font-size="13" lengthAdjust="spacing" textLength="82" x="364" y="530.0283">is recorded by</text><text fill="#000000" font-family="sans-serif" font-size="13" lengthAdjust="spacing" textLength="5" x="347.4052" y="496.6017">*</text><text fill="#000000" font-family="sans-serif" font-size="13" lengthAdjust="spacing" textLength="7" x="364.7617" y="575.7801">1</text></g><!--link Staff to Specialization--><g id="link_Staff_Specialization"><path codeLine="58" d="M381,664.02 C381,697.24 381,739.07 381,769.72 " fill="none" id="Staff-to-Specialization" style="stroke:#181818;stroke-width:1.0;"/><polygon fill="#181818" points="381,775.72,385,766.72,381,770.72,377,766.72,381,775.72" style="stroke:#181818;stroke-width:1.0;"/><text fill="#000000" font-family="sans-serif" font-size="13" lengthAdjust="spacing" textLength="41" x="382" y="711.0283">owns a</text><text fill="#000000" font-family="sans-serif" font-size="13" lengthAdjust="spacing" textLength="5" x="375.6016" y="685.6017">*</text><text fill="#000000" font-family="sans-serif" font-size="13" lengthAdjust="spacing" textLength="7" x="373.2781" y="764.7199">1</text></g><!--SRC=[dPHVJyCW5CNV-HIalfcqSQ_BqcGn9huOpQRFXiAb4ZkeG6FgudUNKjk1tLyVj_xEEPTxBsYWbiYo0foy6D1uMPOQIc8XmLS5AJXZMqGhOWpsdnUB4LWfPVFS_NCdhR1jdgDlXFJExebO0T96ZZno78YZfZtw04nGKjqgoOGLIhwkW2hDfk2ohfMGTkDyxuMnIhSXWuR8P9RWHPhYv3evw3t7jGRZQ3ELpRBCAVU41QAu7MjBE8_RM_2W6Vtt2_gxhe4AKealqXLzp3a63ne-rg0zieAF1amyEKexqy5oWbvGzwZ5psqDKGW0fxkwHz1p_qyOHXDrY3BEOM_IRctE3WpsO78UIhVJrRnepeqkGRSEsqJcZ8Nc8NNAtD_av2RBt3Qd5N2RviFFOT7dc1A92pZ6zXixacYo5DtbIfkwKqJMH0FMZX4Qs07LhsQ8E4CnvaJ3d6DXC0Ck931Sj46HuQWxMH_fh_KV1-sV0uDGE40lcMOE9VbSGz-0DMw6BZZIXYSCvkP5bP3lhbQhC47eqDCqwP6NzeNs1ztpD9qMeRxV4HW_7dEiFgLnfVq0]--></g></svg>