<?xml version="1.0" encoding="us-ascii" standalone="no"?><svg xmlns="http://www.w3.org/2000/svg" xmlns:xlink="http://www.w3.org/1999/xlink" contentStyleType="text/css" height="407px" preserveAspectRatio="none" style="width:591px;height:407px;background:#FFFFFF;" version="1.1" viewBox="0 0 591 407" width="591px" zoomAndPan="magnify"><defs/><g><!--cluster Specialization Aggregate--><g id="cluster_Specialization Aggregate"><rect fill="#BBFFDD" height="394" rx="2.5" ry="2.5" style="stroke:#181818;stroke-width:1.0;" width="578" x="7" y="7"/><text fill="#000000" font-family="sans-serif" font-size="14" font-weight="bold" lengthAdjust="spacing" textLength="174" x="209" y="24.1074">Specialization Aggregate</text></g><!--class Specialization--><g id="elem_Specialization"><rect codeLine="3" fill="#F1F1F1" height="60.582" id="Specialization" rx="2.5" ry="2.5" style="stroke:#181818;stroke-width:0.5;" width="118" x="208" y="150"/><ellipse cx="223" cy="172.291" fill="#ADD1B2" rx="11" ry="11" style="stroke:#181818;stroke-width:1.0;"/><path d="M225.7656,168.166 Q225.9219,167.9473 226.1094,167.8379 Q226.2969,167.7285 226.5156,167.7285 Q226.8906,167.7285 227.125,167.9941 Q227.3594,168.2441 227.3594,168.8535 L227.3594,170.3066 Q227.3594,170.916 227.125,171.1816 Q226.8906,171.4473 226.5156,171.4473 Q226.1719,171.4473 225.9688,171.2441 Q225.7656,171.0566 225.6563,170.541 Q225.6094,170.1816 225.4219,169.9941 Q225.0938,169.6191 224.4844,169.4004 Q223.875,169.1816 223.25,169.1816 Q222.4844,169.1816 221.8438,169.5098 Q221.2188,169.8379 220.7188,170.5879 Q220.2344,171.3379 220.2344,172.3691 L220.2344,173.4629 Q220.2344,174.6973 221.125,175.5254 Q222.0156,176.3379 223.6094,176.3379 Q224.5469,176.3379 225.2031,176.0879 Q225.5938,175.9316 226.0156,175.4941 Q226.2813,175.2285 226.4219,175.1504 Q226.5781,175.0723 226.7813,175.0723 Q227.1094,175.0723 227.3594,175.3379 Q227.625,175.5879 227.625,175.9316 Q227.625,176.2754 227.2813,176.6816 Q226.7813,177.2598 225.9844,177.5879 Q224.9063,178.041 223.6094,178.041 Q222.0938,178.041 220.8906,177.416 Q219.9063,176.916 219.2188,175.8535 Q218.5313,174.7754 218.5313,173.4941 L218.5313,172.3379 Q218.5313,171.0098 219.1406,169.8691 Q219.7656,168.7129 220.8594,168.1035 Q221.9531,167.4785 223.1875,167.4785 Q223.9219,167.4785 224.5625,167.6504 Q225.2188,167.8066 225.7656,168.166 Z " fill="#000000"/><text fill="#000000" font-family="sans-serif" font-size="12" font-style="italic" lengthAdjust="spacing" textLength="44" x="258" y="167.9492">&#171;Entity&#187;</text><text fill="#000000" font-family="sans-serif" font-size="14" lengthAdjust="spacing" textLength="86" x="237" y="186.0684">Specialization</text><line style="stroke:#181818;stroke-width:0.5;" x1="209" x2="325" y1="194.582" y2="194.582"/><line style="stroke:#181818;stroke-width:0.5;" x1="209" x2="325" y1="202.582" y2="202.582"/></g><!--class SpecializationID--><g id="elem_SpecializationID"><rect codeLine="4" fill="#F1F1F1" height="95.1641" id="SpecializationID" rx="2.5" ry="2.5" style="stroke:#181818;stroke-width:0.5;" width="131" x="23.5" y="290"/><ellipse cx="38.5" cy="320.2715" fill="#FFC0CB" rx="11" ry="11" style="stroke:#181818;stroke-width:1.0;"/><path d="M39.0938,323.5371 L41.5625,317.6621 L41.1719,317.6621 Q40.5625,317.6621 40.2969,317.4277 Q40.0313,317.1934 40.0313,316.8027 Q40.0313,316.4277 40.2969,316.1934 Q40.5625,315.959 41.1719,315.959 L43.4531,315.959 Q44.0625,315.959 44.3281,316.1934 Q44.5938,316.4277 44.5938,316.8027 Q44.5938,317.2715 44.1875,317.5371 Q44,317.6621 43.4063,317.6621 L39.9219,326.0215 L38.2813,326.0215 L34.7969,317.6621 Q34.2031,317.6621 34.0156,317.5371 Q33.6094,317.2715 33.6094,316.8027 Q33.6094,316.4277 33.875,316.1934 Q34.1406,315.959 34.75,315.959 L37.0469,315.959 Q37.6563,315.959 37.9063,316.1934 Q38.1719,316.4277 38.1719,316.8027 Q38.1719,317.1934 37.9063,317.4277 Q37.6563,317.6621 37.0469,317.6621 L36.6406,317.6621 L39.0938,323.5371 Z " fill="#000000"/><text fill="#000000" font-family="sans-serif" font-size="12" font-style="italic" lengthAdjust="spacing" textLength="85" x="59.5" y="307.9492">&#171;Value Object&#187;</text><text fill="#000000" font-family="sans-serif" font-size="12" font-style="italic" lengthAdjust="spacing" textLength="61" x="71.5" y="323.9102">&#171;identifier&#187;</text><text fill="#000000" font-family="sans-serif" font-size="14" lengthAdjust="spacing" textLength="99" x="52.5" y="342.0293">SpecializationID</text><line style="stroke:#181818;stroke-width:0.5;" x1="24.5" x2="153.5" y1="350.543" y2="350.543"/><rect fill="none" height="6" style="stroke:#C82930;stroke-width:1.0;" width="6" x="31.5" y="362.3535"/><text fill="#000000" font-family="sans-serif" font-size="14" lengthAdjust="spacing" textLength="52" x="43.5" y="369.6504">String id</text><line style="stroke:#181818;stroke-width:0.5;" x1="24.5" x2="153.5" y1="377.1641" y2="377.1641"/></g><!--class SpecializationName--><g id="elem_SpecializationName"><rect codeLine="7" fill="#F1F1F1" height="79.2031" id="SpecializationName" rx="2.5" ry="2.5" style="stroke:#181818;stroke-width:0.5;" width="154" x="190" y="298"/><ellipse cx="205" cy="320.291" fill="#FFC0CB" rx="11" ry="11" style="stroke:#181818;stroke-width:1.0;"/><path d="M205.5938,323.5566 L208.0625,317.6816 L207.6719,317.6816 Q207.0625,317.6816 206.7969,317.4473 Q206.5313,317.2129 206.5313,316.8223 Q206.5313,316.4473 206.7969,316.2129 Q207.0625,315.9785 207.6719,315.9785 L209.9531,315.9785 Q210.5625,315.9785 210.8281,316.2129 Q211.0938,316.4473 211.0938,316.8223 Q211.0938,317.291 210.6875,317.5566 Q210.5,317.6816 209.9063,317.6816 L206.4219,326.041 L204.7813,326.041 L201.2969,317.6816 Q200.7031,317.6816 200.5156,317.5566 Q200.1094,317.291 200.1094,316.8223 Q200.1094,316.4473 200.375,316.2129 Q200.6406,315.9785 201.25,315.9785 L203.5469,315.9785 Q204.1563,315.9785 204.4063,316.2129 Q204.6719,316.4473 204.6719,316.8223 Q204.6719,317.2129 204.4063,317.4473 Q204.1563,317.6816 203.5469,317.6816 L203.1406,317.6816 L205.5938,323.5566 Z " fill="#000000"/><text fill="#000000" font-family="sans-serif" font-size="12" font-style="italic" lengthAdjust="spacing" textLength="85" x="237.5" y="315.9492">&#171;Value Object&#187;</text><text fill="#000000" font-family="sans-serif" font-size="14" lengthAdjust="spacing" textLength="122" x="219" y="334.0684">SpecializationName</text><line style="stroke:#181818;stroke-width:0.5;" x1="191" x2="343" y1="342.582" y2="342.582"/><rect fill="none" height="6" style="stroke:#C82930;stroke-width:1.0;" width="6" x="198" y="354.3926"/><text fill="#000000" font-family="sans-serif" font-size="14" lengthAdjust="spacing" textLength="76" x="210" y="361.6895">String name</text><line style="stroke:#181818;stroke-width:0.5;" x1="191" x2="343" y1="369.2031" y2="369.2031"/></g><!--class SpecializationDescription--><g id="elem_SpecializationDescription"><rect codeLine="10" fill="#F1F1F1" height="79.2031" id="SpecializationDescription" rx="2.5" ry="2.5" style="stroke:#181818;stroke-width:0.5;" width="189" x="379.5" y="298"/><ellipse cx="394.5" cy="320.291" fill="#FFC0CB" rx="11" ry="11" style="stroke:#181818;stroke-width:1.0;"/><path d="M395.0938,323.5566 L397.5625,317.6816 L397.1719,317.6816 Q396.5625,317.6816 396.2969,317.4473 Q396.0313,317.2129 396.0313,316.8223 Q396.0313,316.4473 396.2969,316.2129 Q396.5625,315.9785 397.1719,315.9785 L399.4531,315.9785 Q400.0625,315.9785 400.3281,316.2129 Q400.5938,316.4473 400.5938,316.8223 Q400.5938,317.291 400.1875,317.5566 Q400,317.6816 399.4063,317.6816 L395.9219,326.041 L394.2813,326.041 L390.7969,317.6816 Q390.2031,317.6816 390.0156,317.5566 Q389.6094,317.291 389.6094,316.8223 Q389.6094,316.4473 389.875,316.2129 Q390.1406,315.9785 390.75,315.9785 L393.0469,315.9785 Q393.6563,315.9785 393.9063,316.2129 Q394.1719,316.4473 394.1719,316.8223 Q394.1719,317.2129 393.9063,317.4473 Q393.6563,317.6816 393.0469,317.6816 L392.6406,317.6816 L395.0938,323.5566 Z " fill="#000000"/><text fill="#000000" font-family="sans-serif" font-size="12" font-style="italic" lengthAdjust="spacing" textLength="85" x="444.5" y="315.9492">&#171;Value Object&#187;</text><text fill="#000000" font-family="sans-serif" font-size="14" lengthAdjust="spacing" textLength="157" x="408.5" y="334.0684">SpecializationDescription</text><line style="stroke:#181818;stroke-width:0.5;" x1="380.5" x2="567.5" y1="342.582" y2="342.582"/><rect fill="none" height="6" style="stroke:#C82930;stroke-width:1.0;" width="6" x="387.5" y="354.3926"/><text fill="#000000" font-family="sans-serif" font-size="14" lengthAdjust="spacing" textLength="110" x="399.5" y="361.6895">String description</text><line style="stroke:#181818;stroke-width:0.5;" x1="380.5" x2="567.5" y1="369.2031" y2="369.2031"/></g><g id="elem_GMN7"><path d="M113.5,44 L113.5,88.582 A0,0 0 0 0 113.5,88.582 L263,88.582 L267,149.93 L271,88.582 L420.5,88.582 A0,0 0 0 0 420.5,88.582 L420.5,54 L410.5,44 L113.5,44 A0,0 0 0 0 113.5,44 " fill="#FEFFDD" style="stroke:#181818;stroke-width:0.5;"/><path d="M410.5,44 L410.5,54 L420.5,54 L410.5,44 " fill="#FEFFDD" style="stroke:#181818;stroke-width:0.5;"/><text fill="#000000" font-family="sans-serif" font-size="13" lengthAdjust="spacing" textLength="286" x="119.5" y="63.0283">a predefined list of specializations will be provided</text><text fill="#000000" font-family="sans-serif" font-size="13" lengthAdjust="spacing" textLength="250" x="119.5" y="80.3193">the system should allow for future additions</text></g><!--link Specialization to SpecializationID--><g id="link_Specialization_SpecializationID"><path codeLine="18" d="M215.02,211.21 C201.15,220.08 186.54,230.3 174,241 C156.95,255.55 144.0377,268.9356 129.9077,285.3256 " fill="none" id="Specialization-to-SpecializationID" style="stroke:#181818;stroke-width:1.0;"/><polygon fill="#181818" points="125.99,289.87,134.8962,285.6653,129.2548,286.083,128.837,280.4416,125.99,289.87" style="stroke:#181818;stroke-width:1.0;"/><text fill="#000000" font-family="sans-serif" font-size="13" lengthAdjust="spacing" textLength="83" x="175" y="256.0283">is identified by</text><text fill="#000000" font-family="sans-serif" font-size="13" lengthAdjust="spacing" textLength="7" x="197.7909" y="232.533">1</text><text fill="#000000" font-family="sans-serif" font-size="13" lengthAdjust="spacing" textLength="7" x="123.9088" y="278.6635">1</text></g><!--link Specialization to SpecializationName--><g id="link_Specialization_SpecializationName"><path codeLine="19" d="M267,211.02 C267,235.7 267,265.09 267,291.99 " fill="none" id="Specialization-to-SpecializationName" style="stroke:#181818;stroke-width:1.0;"/><polygon fill="#181818" points="267,297.99,271,288.99,267,292.99,263,288.99,267,297.99" style="stroke:#181818;stroke-width:1.0;"/><text fill="#000000" font-family="sans-serif" font-size="13" lengthAdjust="spacing" textLength="104" x="268" y="256.0283">is associated with</text><text fill="#000000" font-family="sans-serif" font-size="13" lengthAdjust="spacing" textLength="7" x="259.3328" y="232.5541">1</text><text fill="#000000" font-family="sans-serif" font-size="13" lengthAdjust="spacing" textLength="7" x="259.3984" y="286.7742">1</text></g><!--link Specialization to SpecializationDescription--><g id="link_Specialization_SpecializationDescription"><path codeLine="20" d="M326.25,207.92 C344.53,217.24 364.26,228.54 381,241 C403.09,257.44 420.7142,274.7911 437.5542,293.4011 " fill="none" id="Specialization-to-SpecializationDescription" style="stroke:#181818;stroke-width:1.0;"/><polygon fill="#181818" points="441.58,297.85,438.5073,288.4927,438.2252,294.1426,432.5754,293.8605,441.58,297.85" style="stroke:#181818;stroke-width:1.0;"/><text fill="#000000" font-family="sans-serif" font-size="13" lengthAdjust="spacing" textLength="88" x="404" y="256.0283">is described by</text><text fill="#000000" font-family="sans-serif" font-size="13" lengthAdjust="spacing" textLength="7" x="333.8977" y="207.2974">1</text><text fill="#000000" font-family="sans-serif" font-size="13" lengthAdjust="spacing" textLength="7" x="428.4063" y="286.6101">1</text></g><!--SRC=[bP4nJyCm48Nt_egdi8141rPKMK8g0miCbRexyJavSEt8lX0LrF-ESQjI2WNLYsNxtVVEzo8redth2DMYfuQrupSj73pksZPIguKgNDIrjSQyJv1NutHAE1BFPlTUMDPAdTGypBCAbyjhzEnVhh3KRY0yrS-v0oYL7zbGXbYcgDJMQxUcM4Xatu9DkTwSD7dKA_hJvdUkpsN_aEUKciZzxhVd6fYlwWCV7uGWeKUmHsvxY4OVoP1bJmQEatngqpTjmiZEeQOi3QzvY6PVBHqXhPFG2gaBWpFGpeKHDaJOGOP8qCPmePGYygPqDIcdev2hcmhJgIhxZsnlmGdx10tgzNc8abo1vDc7_20PCh9qvs4EOogqxUJhRKURoGS0]--></g></svg>