<?xml version="1.0" encoding="us-ascii" standalone="no"?><svg xmlns="http://www.w3.org/2000/svg" xmlns:xlink="http://www.w3.org/1999/xlink" contentStyleType="text/css" height="636px" preserveAspectRatio="none" style="width:995px;height:636px;background:#FFFFFF;" version="1.1" viewBox="0 0 995 636" width="995px" zoomAndPan="magnify"><defs/><g><!--cluster Staff Aggregate--><g id="cluster_Staff Aggregate"><rect fill="#BBFFDD" height="623" rx="2.5" ry="2.5" style="stroke:#181818;stroke-width:1.0;" width="982" x="7" y="7"/><text fill="#000000" font-family="sans-serif" font-size="14" font-weight="bold" lengthAdjust="spacing" textLength="109" x="443.5" y="24.1074">Staff Aggregate</text></g><!--class Staff--><g id="elem_Staff"><rect codeLine="3" fill="#F1F1F1" height="76.543" id="Staff" rx="2.5" ry="2.5" style="stroke:#181818;stroke-width:0.5;" width="125" x="581.5" y="326.5"/><ellipse cx="596.5" cy="356.7715" fill="#ADD1B2" rx="11" ry="11" style="stroke:#181818;stroke-width:1.0;"/><path d="M599.2656,352.6465 Q599.4219,352.4277 599.6094,352.3184 Q599.7969,352.209 600.0156,352.209 Q600.3906,352.209 600.625,352.4746 Q600.8594,352.7246 600.8594,353.334 L600.8594,354.7871 Q600.8594,355.3965 600.625,355.6621 Q600.3906,355.9277 600.0156,355.9277 Q599.6719,355.9277 599.4688,355.7246 Q599.2656,355.5371 599.1563,355.0215 Q599.1094,354.6621 598.9219,354.4746 Q598.5938,354.0996 597.9844,353.8809 Q597.375,353.6621 596.75,353.6621 Q595.9844,353.6621 595.3438,353.9902 Q594.7188,354.3184 594.2188,355.0684 Q593.7344,355.8184 593.7344,356.8496 L593.7344,357.9434 Q593.7344,359.1777 594.625,360.0059 Q595.5156,360.8184 597.1094,360.8184 Q598.0469,360.8184 598.7031,360.5684 Q599.0938,360.4121 599.5156,359.9746 Q599.7813,359.709 599.9219,359.6309 Q600.0781,359.5527 600.2813,359.5527 Q600.6094,359.5527 600.8594,359.8184 Q601.125,360.0684 601.125,360.4121 Q601.125,360.7559 600.7813,361.1621 Q600.2813,361.7402 599.4844,362.0684 Q598.4063,362.5215 597.1094,362.5215 Q595.5938,362.5215 594.3906,361.8965 Q593.4063,361.3965 592.7188,360.334 Q592.0313,359.2559 592.0313,357.9746 L592.0313,356.8184 Q592.0313,355.4902 592.6406,354.3496 Q593.2656,353.1934 594.3594,352.584 Q595.4531,351.959 596.6875,351.959 Q597.4219,351.959 598.0625,352.1309 Q598.7188,352.2871 599.2656,352.6465 Z " fill="#000000"/><text fill="#000000" font-family="sans-serif" font-size="12" font-style="italic" lengthAdjust="spacing" textLength="97" x="608.5" y="344.4492">&#171;AggregateRoot&#187;</text><text fill="#000000" font-family="sans-serif" font-size="12" font-style="italic" lengthAdjust="spacing" textLength="44" x="635" y="360.4102">&#171;Entity&#187;</text><text fill="#000000" font-family="sans-serif" font-size="14" lengthAdjust="spacing" textLength="29" x="642.5" y="378.5293">Staff</text><line style="stroke:#181818;stroke-width:0.5;" x1="582.5" x2="705.5" y1="387.043" y2="387.043"/><line style="stroke:#181818;stroke-width:0.5;" x1="582.5" x2="705.5" y1="395.043" y2="395.043"/></g><!--class StaffID--><g id="elem_StaffID"><rect codeLine="4" fill="#F1F1F1" height="95.1641" id="StaffID" rx="2.5" ry="2.5" style="stroke:#181818;stroke-width:0.5;" width="113" x="607.5" y="132.5"/><ellipse cx="622.5" cy="162.7715" fill="#FFC0CB" rx="11" ry="11" style="stroke:#181818;stroke-width:1.0;"/><path d="M623.0938,166.0371 L625.5625,160.1621 L625.1719,160.1621 Q624.5625,160.1621 624.2969,159.9277 Q624.0313,159.6934 624.0313,159.3027 Q624.0313,158.9277 624.2969,158.6934 Q624.5625,158.459 625.1719,158.459 L627.4531,158.459 Q628.0625,158.459 628.3281,158.6934 Q628.5938,158.9277 628.5938,159.3027 Q628.5938,159.7715 628.1875,160.0371 Q628,160.1621 627.4063,160.1621 L623.9219,168.5215 L622.2813,168.5215 L618.7969,160.1621 Q618.2031,160.1621 618.0156,160.0371 Q617.6094,159.7715 617.6094,159.3027 Q617.6094,158.9277 617.875,158.6934 Q618.1406,158.459 618.75,158.459 L621.0469,158.459 Q621.6563,158.459 621.9063,158.6934 Q622.1719,158.9277 622.1719,159.3027 Q622.1719,159.6934 621.9063,159.9277 Q621.6563,160.1621 621.0469,160.1621 L620.6406,160.1621 L623.0938,166.0371 Z " fill="#000000"/><text fill="#000000" font-family="sans-serif" font-size="12" font-style="italic" lengthAdjust="spacing" textLength="85" x="634.5" y="150.4492">&#171;Value Object&#187;</text><text fill="#000000" font-family="sans-serif" font-size="12" font-style="italic" lengthAdjust="spacing" textLength="61" x="646.5" y="166.4102">&#171;identifier&#187;</text><text fill="#000000" font-family="sans-serif" font-size="14" lengthAdjust="spacing" textLength="42" x="656" y="184.5293">StaffID</text><line style="stroke:#181818;stroke-width:0.5;" x1="608.5" x2="719.5" y1="193.043" y2="193.043"/><rect fill="none" height="6" style="stroke:#C82930;stroke-width:1.0;" width="6" x="615.5" y="204.8535"/><text fill="#000000" font-family="sans-serif" font-size="14" lengthAdjust="spacing" textLength="52" x="627.5" y="212.1504">String id</text><line style="stroke:#181818;stroke-width:0.5;" x1="608.5" x2="719.5" y1="219.6641" y2="219.6641"/></g><g id="elem_GMN5"><path d="M756,132 L756,176 L720.7,180 L756,184 L756,228.4551 A0,0 0 0 0 756,228.4551 L954,228.4551 A0,0 0 0 0 954,228.4551 L954,142 L944,132 L756,132 A0,0 0 0 0 756,132 " fill="#FEFFDD" style="stroke:#181818;stroke-width:0.5;"/><path d="M944,132 L944,142 L954,142 L944,132 " fill="#FEFFDD" style="stroke:#181818;stroke-width:0.5;"/><text fill="#000000" font-family="sans-serif" font-size="13" lengthAdjust="spacing" textLength="144" x="762" y="151.0283">generated by the system</text><text fill="#000000" font-family="sans-serif" font-size="13" lengthAdjust="spacing" textLength="145" x="762" y="168.3193">format (N|D|O)yyyynnnnn</text><text fill="#000000" font-family="sans-serif" font-size="13" lengthAdjust="spacing" textLength="177" x="762" y="185.6104">N - nurse  D - doctor  O - other</text><text fill="#000000" font-family="sans-serif" font-size="13" lengthAdjust="spacing" textLength="148" x="762" y="202.9014">yyyy - year of recruitment</text><text fill="#000000" font-family="sans-serif" font-size="13" lengthAdjust="spacing" textLength="153" x="762" y="220.1924">nnnnn - sequential number</text></g><!--class LicenseNumber--><g id="elem_LicenseNumber"><rect codeLine="14" fill="#F1F1F1" height="93.8242" id="LicenseNumber" rx="2.5" ry="2.5" style="stroke:#181818;stroke-width:0.5;" width="160" x="344" y="318"/><ellipse cx="372.5" cy="340.291" fill="#FFC0CB" rx="11" ry="11" style="stroke:#181818;stroke-width:1.0;"/><path d="M373.0938,343.5566 L375.5625,337.6816 L375.1719,337.6816 Q374.5625,337.6816 374.2969,337.4473 Q374.0313,337.2129 374.0313,336.8223 Q374.0313,336.4473 374.2969,336.2129 Q374.5625,335.9785 375.1719,335.9785 L377.4531,335.9785 Q378.0625,335.9785 378.3281,336.2129 Q378.5938,336.4473 378.5938,336.8223 Q378.5938,337.291 378.1875,337.5566 Q378,337.6816 377.4063,337.6816 L373.9219,346.041 L372.2813,346.041 L368.7969,337.6816 Q368.2031,337.6816 368.0156,337.5566 Q367.6094,337.291 367.6094,336.8223 Q367.6094,336.4473 367.875,336.2129 Q368.1406,335.9785 368.75,335.9785 L371.0469,335.9785 Q371.6563,335.9785 371.9063,336.2129 Q372.1719,336.4473 372.1719,336.8223 Q372.1719,337.2129 371.9063,337.4473 Q371.6563,337.6816 371.0469,337.6816 L370.6406,337.6816 L373.0938,343.5566 Z " fill="#000000"/><text fill="#000000" font-family="sans-serif" font-size="12" font-style="italic" lengthAdjust="spacing" textLength="85" x="396" y="335.9492">&#171;Value Object&#187;</text><text fill="#000000" font-family="sans-serif" font-size="14" lengthAdjust="spacing" textLength="98" x="389.5" y="354.0684">LicenseNumber</text><line style="stroke:#181818;stroke-width:0.5;" x1="345" x2="503" y1="362.582" y2="362.582"/><rect fill="none" height="6" style="stroke:#C82930;stroke-width:1.0;" width="6" x="352" y="397.0137"/><text fill="#000000" font-family="sans-serif" font-size="14" lengthAdjust="spacing" textLength="134" x="364" y="404.3105">String licenseNumber</text><line style="stroke:#181818;stroke-width:1.0;" x1="345" x2="402.5" y1="379.8926" y2="379.8926"/><text fill="#000000" font-family="sans-serif" font-size="14" lengthAdjust="spacing" textLength="43" x="402.5" y="385.1895">unique</text><line style="stroke:#181818;stroke-width:1.0;" x1="445.5" x2="503" y1="379.8926" y2="379.8926"/></g><g id="elem_GMN9"><path d="M23.5,342.5 L23.5,387.082 A0,0 0 0 0 23.5,387.082 L308.5,387.082 A0,0 0 0 0 308.5,387.082 L308.5,369 L343.76,365 L308.5,361 L308.5,352.5 L298.5,342.5 L23.5,342.5 A0,0 0 0 0 23.5,342.5 " fill="#FEFFDD" style="stroke:#181818;stroke-width:0.5;"/><path d="M298.5,342.5 L298.5,352.5 L308.5,352.5 L298.5,342.5 " fill="#FEFFDD" style="stroke:#181818;stroke-width:0.5;"/><text fill="#000000" font-family="sans-serif" font-size="13" lengthAdjust="spacing" textLength="196" x="29.5" y="361.5283">assigned by the professional guild</text><text fill="#000000" font-family="sans-serif" font-size="13" lengthAdjust="spacing" textLength="264" x="29.5" y="378.8193">the admin will enter and the system records it</text></g><!--class Name--><g id="elem_Name"><rect codeLine="22" fill="#F1F1F1" height="116.4453" id="Name" rx="2.5" ry="2.5" style="stroke:#181818;stroke-width:0.5;" width="126" x="847" y="307"/><ellipse cx="867.85" cy="329.291" fill="#FFC0CB" rx="11" ry="11" style="stroke:#181818;stroke-width:1.0;"/><path d="M868.4438,332.5566 L870.9125,326.6816 L870.5219,326.6816 Q869.9125,326.6816 869.6469,326.4473 Q869.3813,326.2129 869.3813,325.8223 Q869.3813,325.4473 869.6469,325.2129 Q869.9125,324.9785 870.5219,324.9785 L872.8031,324.9785 Q873.4125,324.9785 873.6781,325.2129 Q873.9438,325.4473 873.9438,325.8223 Q873.9438,326.291 873.5375,326.5566 Q873.35,326.6816 872.7563,326.6816 L869.2719,335.041 L867.6313,335.041 L864.1469,326.6816 Q863.5531,326.6816 863.3656,326.5566 Q862.9594,326.291 862.9594,325.8223 Q862.9594,325.4473 863.225,325.2129 Q863.4906,324.9785 864.1,324.9785 L866.3969,324.9785 Q867.0063,324.9785 867.2563,325.2129 Q867.5219,325.4473 867.5219,325.8223 Q867.5219,326.2129 867.2563,326.4473 Q867.0063,326.6816 866.3969,326.6816 L865.9906,326.6816 L868.4438,332.5566 Z " fill="#000000"/><text fill="#000000" font-family="sans-serif" font-size="12" font-style="italic" lengthAdjust="spacing" textLength="85" x="881.15" y="324.9492">&#171;Value Object&#187;</text><text fill="#000000" font-family="sans-serif" font-size="14" lengthAdjust="spacing" textLength="36" x="905.65" y="343.0684">Name</text><line style="stroke:#181818;stroke-width:0.5;" x1="848" x2="972" y1="351.582" y2="351.582"/><rect fill="none" height="6" style="stroke:#C82930;stroke-width:1.0;" width="6" x="855" y="363.3926"/><text fill="#000000" font-family="sans-serif" font-size="14" lengthAdjust="spacing" textLength="100" x="867" y="370.6895">String firstName</text><rect fill="none" height="6" style="stroke:#C82930;stroke-width:1.0;" width="6" x="855" y="382.0137"/><text fill="#000000" font-family="sans-serif" font-size="14" lengthAdjust="spacing" textLength="99" x="867" y="389.3105">String lastName</text><rect fill="none" height="6" style="stroke:#C82930;stroke-width:1.0;" width="6" x="855" y="400.6348"/><text fill="#000000" font-family="sans-serif" font-size="14" lengthAdjust="spacing" textLength="95" x="867" y="407.9316">String fullName</text><line style="stroke:#181818;stroke-width:0.5;" x1="848" x2="972" y1="415.4453" y2="415.4453"/></g><!--class ContactInfo--><g id="elem_ContactInfo"><rect codeLine="28" fill="#F1F1F1" height="112.4453" id="ContactInfo" rx="2.5" ry="2.5" style="stroke:#181818;stroke-width:0.5;" width="156" x="488" y="502"/><ellipse cx="522.35" cy="524.291" fill="#FFC0CB" rx="11" ry="11" style="stroke:#181818;stroke-width:1.0;"/><path d="M522.9438,527.5566 L525.4125,521.6816 L525.0219,521.6816 Q524.4125,521.6816 524.1469,521.4473 Q523.8813,521.2129 523.8813,520.8223 Q523.8813,520.4473 524.1469,520.2129 Q524.4125,519.9785 525.0219,519.9785 L527.3031,519.9785 Q527.9125,519.9785 528.1781,520.2129 Q528.4438,520.4473 528.4438,520.8223 Q528.4438,521.291 528.0375,521.5566 Q527.85,521.6816 527.2563,521.6816 L523.7719,530.041 L522.1313,530.041 L518.6469,521.6816 Q518.0531,521.6816 517.8656,521.5566 Q517.4594,521.291 517.4594,520.8223 Q517.4594,520.4473 517.725,520.2129 Q517.9906,519.9785 518.6,519.9785 L520.8969,519.9785 Q521.5063,519.9785 521.7563,520.2129 Q522.0219,520.4473 522.0219,520.8223 Q522.0219,521.2129 521.7563,521.4473 Q521.5063,521.6816 520.8969,521.6816 L520.4906,521.6816 L522.9438,527.5566 Z " fill="#000000"/><text fill="#000000" font-family="sans-serif" font-size="12" font-style="italic" lengthAdjust="spacing" textLength="85" x="538.65" y="519.9492">&#171;Value Object&#187;</text><text fill="#000000" font-family="sans-serif" font-size="14" lengthAdjust="spacing" textLength="72" x="545.15" y="538.0684">ContactInfo</text><line style="stroke:#181818;stroke-width:0.5;" x1="489" x2="643" y1="546.582" y2="546.582"/><rect fill="none" height="6" style="stroke:#C82930;stroke-width:1.0;" width="6" x="496" y="581.0137"/><text fill="#000000" font-family="sans-serif" font-size="14" lengthAdjust="spacing" textLength="74" x="508" y="588.3105">String email</text><rect fill="none" height="6" style="stroke:#C82930;stroke-width:1.0;" width="6" x="496" y="599.6348"/><text fill="#000000" font-family="sans-serif" font-size="14" lengthAdjust="spacing" textLength="130" x="508" y="606.9316">String phoneNumber</text><line style="stroke:#181818;stroke-width:1.0;" x1="489" x2="544.5" y1="563.8926" y2="563.8926"/><text fill="#000000" font-family="sans-serif" font-size="14" lengthAdjust="spacing" textLength="43" x="544.5" y="569.1895">unique</text><line style="stroke:#181818;stroke-width:1.0;" x1="587.5" x2="643" y1="563.8926" y2="563.8926"/></g><!--class AvailabilitySlots--><g id="elem_AvailabilitySlots"><rect codeLine="33" fill="#F1F1F1" height="79.2031" id="AvailabilitySlots" rx="2.5" ry="2.5" style="stroke:#181818;stroke-width:0.5;" width="132" x="679" y="518.5"/><ellipse cx="695.35" cy="540.791" fill="#FFC0CB" rx="11" ry="11" style="stroke:#181818;stroke-width:1.0;"/><path d="M695.9438,544.0566 L698.4125,538.1816 L698.0219,538.1816 Q697.4125,538.1816 697.1469,537.9473 Q696.8813,537.7129 696.8813,537.3223 Q696.8813,536.9473 697.1469,536.7129 Q697.4125,536.4785 698.0219,536.4785 L700.3031,536.4785 Q700.9125,536.4785 701.1781,536.7129 Q701.4438,536.9473 701.4438,537.3223 Q701.4438,537.791 701.0375,538.0566 Q700.85,538.1816 700.2563,538.1816 L696.7719,546.541 L695.1313,546.541 L691.6469,538.1816 Q691.0531,538.1816 690.8656,538.0566 Q690.4594,537.791 690.4594,537.3223 Q690.4594,536.9473 690.725,536.7129 Q690.9906,536.4785 691.6,536.4785 L693.8969,536.4785 Q694.5063,536.4785 694.7563,536.7129 Q695.0219,536.9473 695.0219,537.3223 Q695.0219,537.7129 694.7563,537.9473 Q694.5063,538.1816 693.8969,538.1816 L693.4906,538.1816 L695.9438,544.0566 Z " fill="#000000"/><text fill="#000000" font-family="sans-serif" font-size="12" font-style="italic" lengthAdjust="spacing" textLength="85" x="715.65" y="536.4492">&#171;Value Object&#187;</text><text fill="#000000" font-family="sans-serif" font-size="14" lengthAdjust="spacing" textLength="97" x="709.65" y="554.5684">AvailabilitySlots</text><line style="stroke:#181818;stroke-width:0.5;" x1="680" x2="810" y1="563.082" y2="563.082"/><rect fill="none" height="6" style="stroke:#C82930;stroke-width:1.0;" width="6" x="687" y="574.8926"/><text fill="#000000" font-family="sans-serif" font-size="14" lengthAdjust="spacing" textLength="106" x="699" y="582.1895">String availability</text><line style="stroke:#181818;stroke-width:0.5;" x1="680" x2="810" y1="589.7031" y2="589.7031"/></g><!--class Status--><g id="elem_Status"><rect codeLine="36" fill="#F1F1F1" height="79.2031" id="Status" rx="2.5" ry="2.5" style="stroke:#181818;stroke-width:0.5;" width="113" x="459.5" y="140.5"/><ellipse cx="474.5" cy="162.791" fill="#FFC0CB" rx="11" ry="11" style="stroke:#181818;stroke-width:1.0;"/><path d="M475.0938,166.0566 L477.5625,160.1816 L477.1719,160.1816 Q476.5625,160.1816 476.2969,159.9473 Q476.0313,159.7129 476.0313,159.3223 Q476.0313,158.9473 476.2969,158.7129 Q476.5625,158.4785 477.1719,158.4785 L479.4531,158.4785 Q480.0625,158.4785 480.3281,158.7129 Q480.5938,158.9473 480.5938,159.3223 Q480.5938,159.791 480.1875,160.0566 Q480,160.1816 479.4063,160.1816 L475.9219,168.541 L474.2813,168.541 L470.7969,160.1816 Q470.2031,160.1816 470.0156,160.0566 Q469.6094,159.791 469.6094,159.3223 Q469.6094,158.9473 469.875,158.7129 Q470.1406,158.4785 470.75,158.4785 L473.0469,158.4785 Q473.6563,158.4785 473.9063,158.7129 Q474.1719,158.9473 474.1719,159.3223 Q474.1719,159.7129 473.9063,159.9473 Q473.6563,160.1816 473.0469,160.1816 L472.6406,160.1816 L475.0938,166.0566 Z " fill="#000000"/><text fill="#000000" font-family="sans-serif" font-size="12" font-style="italic" lengthAdjust="spacing" textLength="85" x="486.5" y="158.4492">&#171;Value Object&#187;</text><text fill="#000000" font-family="sans-serif" font-size="14" lengthAdjust="spacing" textLength="40" x="509" y="176.5684">Status</text><line style="stroke:#181818;stroke-width:0.5;" x1="460.5" x2="571.5" y1="185.082" y2="185.082"/><rect fill="none" height="6" style="stroke:#C82930;stroke-width:1.0;" width="6" x="467.5" y="196.8926"/><text fill="#000000" font-family="sans-serif" font-size="14" lengthAdjust="spacing" textLength="68" x="479.5" y="204.1895">bool active</text><line style="stroke:#181818;stroke-width:0.5;" x1="460.5" x2="571.5" y1="211.7031" y2="211.7031"/></g><g id="elem_GMN16"><path d="M452.5,44 L452.5,71.291 A0,0 0 0 0 452.5,71.291 L512,71.291 L516,140.33 L520,71.291 L579.5,71.291 A0,0 0 0 0 579.5,71.291 L579.5,54 L569.5,44 L452.5,44 A0,0 0 0 0 452.5,44 " fill="#FEFFDD" style="stroke:#181818;stroke-width:0.5;"/><path d="M569.5,44 L569.5,54 L579.5,54 L569.5,44 " fill="#FEFFDD" style="stroke:#181818;stroke-width:0.5;"/><text fill="#000000" font-family="sans-serif" font-size="13" lengthAdjust="spacing" textLength="106" x="458.5" y="63.0283">active or desactive</text></g><!--reverse link StaffID to Staff--><g id="link_StaffID_Staff"><path codeLine="43" d="M658.2492,233.6146 C654.9092,264.2246 651.24,297.75 648.11,326.35 " fill="none" id="StaffID-backto-Staff" style="stroke:#181818;stroke-width:1.0;"/><polygon fill="#181818" points="658.9,227.65,653.9474,236.163,658.3576,232.6205,661.9002,237.0308,658.9,227.65" style="stroke:#181818;stroke-width:1.0;"/><text fill="#000000" font-family="sans-serif" font-size="13" lengthAdjust="spacing" textLength="83" x="656" y="273.0283">is identified by</text><text fill="#000000" font-family="sans-serif" font-size="13" lengthAdjust="spacing" textLength="7" x="650.6906" y="249.5833">1</text><text fill="#000000" font-family="sans-serif" font-size="13" lengthAdjust="spacing" textLength="7" x="641.2148" y="315.3387">1</text></g><!--reverse link LicenseNumber to Staff--><g id="link_LicenseNumber_Staff"><path codeLine="44" d="M510.05,365 C535.48,365 557.22,365 581.25,365 " fill="none" id="LicenseNumber-backto-Staff" style="stroke:#181818;stroke-width:1.0;"/><polygon fill="#181818" points="504.05,365,513.05,369,509.05,365,513.05,361,504.05,365" style="stroke:#181818;stroke-width:1.0;"/><text fill="#000000" font-family="sans-serif" font-size="13" lengthAdjust="spacing" textLength="41" x="522.25" y="358.0283">owns a</text><text fill="#000000" font-family="sans-serif" font-size="13" lengthAdjust="spacing" textLength="7" x="512.0134" y="361.2404">1</text><text fill="#000000" font-family="sans-serif" font-size="13" lengthAdjust="spacing" textLength="7" x="566.5898" y="361.0888">1</text></g><!--link Staff to Name--><g id="link_Staff_Name"><path codeLine="45" d="M706.7,365 C748.94,365 798.45,365 840.8,365 " fill="none" id="Staff-to-Name" style="stroke:#181818;stroke-width:1.0;"/><polygon fill="#181818" points="846.8,365,837.8,361,841.8,365,837.8,369,846.8,365" style="stroke:#181818;stroke-width:1.0;"/><text fill="#000000" font-family="sans-serif" font-size="13" lengthAdjust="spacing" textLength="104" x="724.75" y="358.0283">is associated with</text><text fill="#000000" font-family="sans-serif" font-size="13" lengthAdjust="spacing" textLength="7" x="714.3544" y="361.0888">1</text><text fill="#000000" font-family="sans-serif" font-size="13" lengthAdjust="spacing" textLength="7" x="832.0878" y="361.0366">1</text></g><!--link Staff to ContactInfo--><g id="link_Staff_ContactInfo"><path codeLine="46" d="M628.59,403.74 C617.14,431.78 603.5978,464.9251 590.7378,496.4251 " fill="none" id="Staff-to-ContactInfo" style="stroke:#181818;stroke-width:1.0;"/><polygon fill="#181818" points="588.47,501.98,595.575,495.1595,590.3598,497.3509,588.1684,492.1358,588.47,501.98" style="stroke:#181818;stroke-width:1.0;"/><text fill="#000000" font-family="sans-serif" font-size="13" lengthAdjust="spacing" textLength="41" x="608" y="468.0283">owns a</text><text fill="#000000" font-family="sans-serif" font-size="13" lengthAdjust="spacing" textLength="7" x="618.6944" y="425.0592">1</text><text fill="#000000" font-family="sans-serif" font-size="13" lengthAdjust="spacing" textLength="7" x="583.9005" y="490.7318">1</text></g><!--link Staff to AvailabilitySlots--><g id="link_Staff_AvailabilitySlots"><path codeLine="47" d="M663.95,403.74 C681.49,436.89 704.0843,479.6364 721.7643,513.0564 " fill="none" id="Staff-to-AvailabilitySlots" style="stroke:#181818;stroke-width:1.0;"/><polygon fill="#181818" points="724.57,518.36,723.8971,508.5342,722.2319,513.9404,716.8257,512.2751,724.57,518.36" style="stroke:#181818;stroke-width:1.0;"/><text fill="#000000" font-family="sans-serif" font-size="13" lengthAdjust="spacing" textLength="50" x="698" y="468.0283">presents</text><text fill="#000000" font-family="sans-serif" font-size="13" lengthAdjust="spacing" textLength="7" x="659.4689" y="425.0592">1</text><text fill="#000000" font-family="sans-serif" font-size="13" lengthAdjust="spacing" textLength="5" x="715.6289" y="507.1218">*</text></g><!--reverse link Status to Staff--><g id="link_Status_Staff"><path codeLine="48" d="M546.5888,224.7268 C568.5988,256.1968 596,295.38 617.77,326.5 " fill="none" id="Status-backto-Staff" style="stroke:#181818;stroke-width:1.0;"/><polygon fill="#181818" points="543.15,219.81,545.0303,229.4777,546.0157,223.9073,551.586,224.8927,543.15,219.81" style="stroke:#181818;stroke-width:1.0;"/><text fill="#000000" font-family="sans-serif" font-size="13" lengthAdjust="spacing" textLength="41" x="581" y="273.0283">owns a</text><text fill="#000000" font-family="sans-serif" font-size="13" lengthAdjust="spacing" textLength="7" x="540.067" y="241.8469">1</text><text fill="#000000" font-family="sans-serif" font-size="13" lengthAdjust="spacing" textLength="7" x="605.4743" y="315.2231">1</text></g><!--SRC=[bLJ1Rjim3BtdAuZiqWxpeTUWC50iEnGe4g05UfSjok4cIvb4DmZQ_FienN7Sf0qw7G97v7lYUo8Li6Rb6eimVM9b3DmrJS16CKxXMrKPe_NhfBOgHjZ7Rs-7Z4VlkInbvvTZucrPJa3MAFb-Ba6uUlu1Qt9_hk5PsGvXMVsMGo4ZIQDW3M4eozSCJwiGU23N0Ecyjyk_pZD2e6R5uCtXW07JeCCWHMceji0hXBYDZEqGDpwqYk5gyJP_MrvlPRcqXlX2JdLTY0Wmbq_jQ_O1O2dVNkZ2a9YWihb55L8T0UlG4RUYOqZ9p98JyM-Nz2ahr6tLaw3JMSl8hGUgqKLSvAJBderSAZf7Sa1Hd1jdnuId7beqsSA7iwIqf1vgtD77TV06PSyxaT5qPFMGci9Aj-HWGzQAC9RgbSWx-f_yyK578FvC_4ArU57pKV8xZOP2v0J-E2pS5wAcitQ8xYQZSdvwnwhcUsVy5wkwT17OAhBds-kLT-Utio_WxaKWgY8hC_LaFSUlbd4WLoE2CtQP6-xYV_bTUMz1BA4NF6qbzkj-68Nqs48v5sH-DCOHSBZy_6__danlfb1qwwBCNuTdOmOaBNDu758lda9I4_UWzzCp0xzn4TGf8BySFIAtN3v3BF4rvNTZGxmw1VNvuvxuZ3-bVfz-S7ip6I6C8YLUafqkPQ3UJVu1]--></g></svg>