<?xml version="1.0" encoding="us-ascii" standalone="no"?><svg xmlns="http://www.w3.org/2000/svg" xmlns:xlink="http://www.w3.org/1999/xlink" contentStyleType="text/css" height="1017px" preserveAspectRatio="none" style="width:1352px;height:1017px;background:#FFFFFF;" version="1.1" viewBox="0 0 1352 1017" width="1352px" zoomAndPan="magnify"><defs/><g><rect fill="#FFFFFF" height="920.7793" style="stroke:#181818;stroke-width:1.0;" width="10" x="51" y="48.6211"/><rect fill="#FFFFFF" height="897.4883" style="stroke:#181818;stroke-width:1.0;" width="10" x="259" y="71.9121"/><rect fill="#FFFFFF" height="753.6934" style="stroke:#181818;stroke-width:1.0;" width="10" x="393" y="103.2031"/><rect fill="#FFFFFF" height="68.582" style="stroke:#181818;stroke-width:1.0;" width="10" x="577" y="690.7324"/><rect fill="#FFFFFF" height="472.3652" style="stroke:#181818;stroke-width:1.0;" width="10" x="657.5" y="134.4941"/><rect fill="#FFFFFF" height="409.7832" style="stroke:#181818;stroke-width:1.0;" width="10" x="840.5" y="165.7852"/><rect fill="#FFFFFF" height="223.7461" style="stroke:#181818;stroke-width:1.0;" width="10" x="1013.5" y="320.5313"/><rect fill="#FFFFFF" height="31.291" style="stroke:#181818;stroke-width:1.0;" width="10" x="1307.5" y="231.6582"/><rect fill="none" height="178.4551" style="stroke:#000000;stroke-width:1.5;" width="304" x="964.5" y="335.5313"/><rect fill="none" height="145.1641" style="stroke:#000000;stroke-width:1.5;" width="254.5" x="974.5" y="361.8223"/><rect fill="none" height="228.0371" style="stroke:#000000;stroke-width:1.5;" width="523" x="213" y="621.8594"/><rect fill="none" height="163.4551" style="stroke:#000000;stroke-width:1.5;" width="371.5" x="354.5" y="648.1504"/><rect fill="none" height="98.5039" style="stroke:#000000;stroke-width:1.5;" width="295" x="20" y="863.8965"/><line style="stroke:#181818;stroke-width:0.5;stroke-dasharray:5.0,5.0;" x1="56" x2="56" y1="38.6211" y2="979.4004"/><line style="stroke:#181818;stroke-width:0.5;stroke-dasharray:5.0,5.0;" x1="264" x2="264" y1="38.6211" y2="979.4004"/><line style="stroke:#181818;stroke-width:0.5;stroke-dasharray:5.0,5.0;" x1="397.5" x2="397.5" y1="38.6211" y2="979.4004"/><line style="stroke:#181818;stroke-width:0.5;stroke-dasharray:5.0,5.0;" x1="582" x2="582" y1="38.6211" y2="979.4004"/><line style="stroke:#181818;stroke-width:0.5;stroke-dasharray:5.0,5.0;" x1="662" x2="662" y1="38.6211" y2="979.4004"/><line style="stroke:#181818;stroke-width:0.5;stroke-dasharray:5.0,5.0;" x1="845.5" x2="845.5" y1="38.6211" y2="979.4004"/><line style="stroke:#181818;stroke-width:0.5;stroke-dasharray:5.0,5.0;" x1="1018.5" x2="1018.5" y1="38.6211" y2="979.4004"/><line style="stroke:#181818;stroke-width:0.5;stroke-dasharray:5.0,5.0;" x1="1224.5" x2="1224.5" y1="38.6211" y2="979.4004"/><line style="stroke:#181818;stroke-width:0.5;stroke-dasharray:5.0,5.0;" x1="1312.5" x2="1312.5" y1="38.6211" y2="979.4004"/><rect fill="#E2E2F0" height="32.6211" rx="2.5" ry="2.5" style="stroke:#181818;stroke-width:0.5;" width="52" x="30" y="5"/><text fill="#000000" font-family="sans-serif" font-size="14" lengthAdjust="spacing" textLength="38" x="37" y="27.1074">Route</text><rect fill="#E2E2F0" height="32.6211" rx="2.5" ry="2.5" style="stroke:#181818;stroke-width:0.5;" width="52" x="30" y="978.4004"/><text fill="#000000" font-family="sans-serif" font-size="14" lengthAdjust="spacing" textLength="38" x="37" y="1000.5078">Route</text><rect fill="#E2E2F0" height="32.6211" rx="2.5" ry="2.5" style="stroke:#181818;stroke-width:0.5;" width="82" x="223" y="5"/><text fill="#000000" font-family="sans-serif" font-size="14" lengthAdjust="spacing" textLength="68" x="230" y="27.1074">xController</text><rect fill="#E2E2F0" height="32.6211" rx="2.5" ry="2.5" style="stroke:#181818;stroke-width:0.5;" width="82" x="223" y="978.4004"/><text fill="#000000" font-family="sans-serif" font-size="14" lengthAdjust="spacing" textLength="68" x="230" y="1000.5078">xController</text><rect fill="#E2E2F0" height="32.6211" rx="2.5" ry="2.5" style="stroke:#181818;stroke-width:0.5;" width="67" x="364.5" y="5"/><text fill="#000000" font-family="sans-serif" font-size="14" lengthAdjust="spacing" textLength="53" x="371.5" y="27.1074">xService</text><rect fill="#E2E2F0" height="32.6211" rx="2.5" ry="2.5" style="stroke:#181818;stroke-width:0.5;" width="67" x="364.5" y="978.4004"/><text fill="#000000" font-family="sans-serif" font-size="14" lengthAdjust="spacing" textLength="53" x="371.5" y="1000.5078">xService</text><rect fill="#E2E2F0" height="32.6211" rx="2.5" ry="2.5" style="stroke:#181818;stroke-width:0.5;" width="50" x="557" y="5"/><text fill="#000000" font-family="sans-serif" font-size="14" lengthAdjust="spacing" textLength="36" x="564" y="27.1074">xDTO</text><rect fill="#E2E2F0" height="32.6211" rx="2.5" ry="2.5" style="stroke:#181818;stroke-width:0.5;" width="50" x="557" y="978.4004"/><text fill="#000000" font-family="sans-serif" font-size="14" lengthAdjust="spacing" textLength="36" x="564" y="1000.5078">xDTO</text><rect fill="#E2E2F0" height="32.6211" rx="2.5" ry="2.5" style="stroke:#181818;stroke-width:0.5;" width="91" x="617" y="5"/><text fill="#000000" font-family="sans-serif" font-size="14" lengthAdjust="spacing" textLength="77" x="624" y="27.1074">xIRepository</text><rect fill="#E2E2F0" height="32.6211" rx="2.5" ry="2.5" style="stroke:#181818;stroke-width:0.5;" width="91" x="617" y="978.4004"/><text fill="#000000" font-family="sans-serif" font-size="14" lengthAdjust="spacing" textLength="77" x="624" y="1000.5078">xIRepository</text><rect fill="#E2E2F0" height="32.6211" rx="2.5" ry="2.5" style="stroke:#181818;stroke-width:0.5;" width="88" x="801.5" y="5"/><text fill="#000000" font-family="sans-serif" font-size="14" lengthAdjust="spacing" textLength="74" x="808.5" y="27.1074">xRepository</text><rect fill="#E2E2F0" height="32.6211" rx="2.5" ry="2.5" style="stroke:#181818;stroke-width:0.5;" width="88" x="801.5" y="978.4004"/><text fill="#000000" font-family="sans-serif" font-size="14" lengthAdjust="spacing" textLength="74" x="808.5" y="1000.5078">xRepository</text><rect fill="#E2E2F0" height="32.6211" rx="2.5" ry="2.5" style="stroke:#181818;stroke-width:0.5;" width="68" x="984.5" y="5"/><text fill="#000000" font-family="sans-serif" font-size="14" lengthAdjust="spacing" textLength="54" x="991.5" y="27.1074">xMapper</text><rect fill="#E2E2F0" height="32.6211" rx="2.5" ry="2.5" style="stroke:#181818;stroke-width:0.5;" width="68" x="984.5" y="978.4004"/><text fill="#000000" font-family="sans-serif" font-size="14" lengthAdjust="spacing" textLength="54" x="991.5" y="1000.5078">xMapper</text><rect fill="#E2E2F0" height="32.6211" rx="2.5" ry="2.5" style="stroke:#181818;stroke-width:0.5;" width="88" x="1180.5" y="5"/><text fill="#000000" font-family="sans-serif" font-size="14" lengthAdjust="spacing" textLength="74" x="1187.5" y="27.1074">xDataModel</text><rect fill="#E2E2F0" height="32.6211" rx="2.5" ry="2.5" style="stroke:#181818;stroke-width:0.5;" width="88" x="1180.5" y="978.4004"/><text fill="#000000" font-family="sans-serif" font-size="14" lengthAdjust="spacing" textLength="74" x="1187.5" y="1000.5078">xDataModel</text><rect fill="#E2E2F0" height="32.6211" rx="2.5" ry="2.5" style="stroke:#181818;stroke-width:0.5;" width="68" x="1278.5" y="5"/><text fill="#000000" font-family="sans-serif" font-size="14" lengthAdjust="spacing" textLength="54" x="1285.5" y="27.1074">xContext</text><rect fill="#E2E2F0" height="32.6211" rx="2.5" ry="2.5" style="stroke:#181818;stroke-width:0.5;" width="68" x="1278.5" y="978.4004"/><text fill="#000000" font-family="sans-serif" font-size="14" lengthAdjust="spacing" textLength="54" x="1285.5" y="1000.5078">xContext</text><rect fill="#FFFFFF" height="920.7793" style="stroke:#181818;stroke-width:1.0;" width="10" x="51" y="48.6211"/><rect fill="#FFFFFF" height="897.4883" style="stroke:#181818;stroke-width:1.0;" width="10" x="259" y="71.9121"/><rect fill="#FFFFFF" height="753.6934" style="stroke:#181818;stroke-width:1.0;" width="10" x="393" y="103.2031"/><rect fill="#FFFFFF" height="68.582" style="stroke:#181818;stroke-width:1.0;" width="10" x="577" y="690.7324"/><rect fill="#FFFFFF" height="472.3652" style="stroke:#181818;stroke-width:1.0;" width="10" x="657.5" y="134.4941"/><rect fill="#FFFFFF" height="409.7832" style="stroke:#181818;stroke-width:1.0;" width="10" x="840.5" y="165.7852"/><rect fill="#FFFFFF" height="223.7461" style="stroke:#181818;stroke-width:1.0;" width="10" x="1013.5" y="320.5313"/><rect fill="#FFFFFF" height="31.291" style="stroke:#181818;stroke-width:1.0;" width="10" x="1307.5" y="231.6582"/><polygon fill="#181818" points="247,67.9121,257,71.9121,247,75.9121,251,71.9121" style="stroke:#181818;stroke-width:1.0;"/><line style="stroke:#181818;stroke-width:1.0;" x1="61" x2="253" y1="71.9121" y2="71.9121"/><text fill="#000000" font-family="sans-serif" font-size="13" lengthAdjust="spacing" textLength="68" x="68" y="66.6494">GetXByY(y)</text><polygon fill="#181818" points="381,99.2031,391,103.2031,381,107.2031,385,103.2031" style="stroke:#181818;stroke-width:1.0;"/><line style="stroke:#181818;stroke-width:1.0;" x1="269" x2="387" y1="103.2031" y2="103.2031"/><text fill="#000000" font-family="sans-serif" font-size="13" lengthAdjust="spacing" textLength="61" x="276" y="97.9404">GetByY(y)</text><polygon fill="#181818" points="645.5,130.4941,655.5,134.4941,645.5,138.4941,649.5,134.4941" style="stroke:#181818;stroke-width:1.0;"/><line style="stroke:#181818;stroke-width:1.0;" x1="403" x2="651.5" y1="134.4941" y2="134.4941"/><text fill="#000000" font-family="sans-serif" font-size="13" lengthAdjust="spacing" textLength="105" x="410" y="129.2314">GetXByYAsync(y)</text><polygon fill="#181818" points="828.5,161.7852,838.5,165.7852,828.5,169.7852,832.5,165.7852" style="stroke:#181818;stroke-width:1.0;"/><line style="stroke:#181818;stroke-width:1.0;" x1="667.5" x2="834.5" y1="165.7852" y2="165.7852"/><text fill="#000000" font-family="sans-serif" font-size="13" lengthAdjust="spacing" textLength="154" x="674.5" y="160.5225">implemnts GetXByYAsync</text><polygon fill="#181818" points="1295.5,227.6582,1305.5,231.6582,1295.5,235.6582,1299.5,231.6582" style="stroke:#181818;stroke-width:1.0;"/><line style="stroke:#181818;stroke-width:1.0;" x1="850.5" x2="1301.5" y1="231.6582" y2="231.6582"/><text fill="#000000" font-family="sans-serif" font-size="13" lengthAdjust="spacing" textLength="117" x="857.5" y="191.8135">Set&lt;XDataModel&gt;().</text><text fill="#000000" font-family="sans-serif" font-size="13" lengthAdjust="spacing" textLength="130" x="857.5" y="209.1045">.Where(p =&gt; p.y == y)</text><text fill="#000000" font-family="sans-serif" font-size="13" lengthAdjust="spacing" textLength="88" x="857.5" y="226.3955">.ToListAsync();</text><polygon fill="#181818" points="861.5,258.9492,851.5,262.9492,861.5,266.9492,857.5,262.9492" style="stroke:#181818;stroke-width:1.0;"/><line style="stroke:#181818;stroke-width:1.0;stroke-dasharray:2.0,2.0;" x1="855.5" x2="1311.5" y1="262.9492" y2="262.9492"/><text fill="#000000" font-family="sans-serif" font-size="13" lengthAdjust="spacing" textLength="209" x="867.5" y="257.6865">return list with all xDataModel with y</text><polygon fill="#181818" points="1001.5,316.5313,1011.5,320.5313,1001.5,324.5313,1005.5,320.5313" style="stroke:#181818;stroke-width:1.0;"/><line style="stroke:#181818;stroke-width:1.0;" x1="850.5" x2="1007.5" y1="320.5313" y2="320.5313"/><text fill="#000000" font-family="sans-serif" font-size="13" lengthAdjust="spacing" textLength="144" x="857.5" y="315.2686">ToDomain(X'sDataModel)</text><path d="M964.5,335.5313 L1037.5,335.5313 L1037.5,344.8223 L1027.5,354.8223 L964.5,354.8223 L964.5,335.5313 " fill="#EEEEEE" style="stroke:#000000;stroke-width:1.5;"/><rect fill="none" height="178.4551" style="stroke:#000000;stroke-width:1.5;" width="304" x="964.5" y="335.5313"/><text fill="#000000" font-family="sans-serif" font-size="13" font-weight="bold" lengthAdjust="spacing" textLength="28" x="979.5" y="350.5596">loop</text><text fill="#000000" font-family="sans-serif" font-size="11" font-weight="bold" lengthAdjust="spacing" textLength="211" x="1052.5" y="349.4014">[foreach(xDataModel in X'sDataModel)]</text><path d="M974.5,361.8223 L1035.5,361.8223 L1035.5,371.1133 L1025.5,381.1133 L974.5,381.1133 L974.5,361.8223 " fill="#EEEEEE" style="stroke:#000000;stroke-width:1.5;"/><rect fill="none" height="145.1641" style="stroke:#000000;stroke-width:1.5;" width="254.5" x="974.5" y="361.8223"/><text fill="#000000" font-family="sans-serif" font-size="13" font-weight="bold" lengthAdjust="spacing" textLength="16" x="989.5" y="376.8506">alt</text><text fill="#000000" font-family="sans-serif" font-size="11" font-weight="bold" lengthAdjust="spacing" textLength="121" x="1050.5" y="375.6924">[xDataModel is Active]</text><line style="stroke:#181818;stroke-width:1.0;" x1="1023.5" x2="1065.5" y1="404.4043" y2="404.4043"/><line style="stroke:#181818;stroke-width:1.0;" x1="1065.5" x2="1065.5" y1="404.4043" y2="417.4043"/><line style="stroke:#181818;stroke-width:1.0;" x1="1024.5" x2="1065.5" y1="417.4043" y2="417.4043"/><polygon fill="#181818" points="1034.5,413.4043,1024.5,417.4043,1034.5,421.4043,1030.5,417.4043" style="stroke:#181818;stroke-width:1.0;"/><text fill="#000000" font-family="sans-serif" font-size="13" lengthAdjust="spacing" textLength="135" x="1030.5" y="399.1416">ToDoamin(xDataModel)</text><path d="M1028,430.4043 L1028,457.4043 L1219,457.4043 L1219,440.4043 L1209,430.4043 L1028,430.4043 " fill="#FEFFDD" style="stroke:#181818;stroke-width:0.5;"/><path d="M1209,430.4043 L1209,440.4043 L1219,440.4043 L1209,430.4043 " fill="#FEFFDD" style="stroke:#181818;stroke-width:0.5;"/><text fill="#000000" font-family="sans-serif" font-size="13" lengthAdjust="spacing" textLength="170" x="1034" y="449.4326">See "ToDomainMapper.puml"</text><line style="stroke:#181818;stroke-width:1.0;" x1="1023.5" x2="1065.5" y1="485.9863" y2="485.9863"/><line style="stroke:#181818;stroke-width:1.0;" x1="1065.5" x2="1065.5" y1="485.9863" y2="498.9863"/><line style="stroke:#181818;stroke-width:1.0;" x1="1024.5" x2="1065.5" y1="498.9863" y2="498.9863"/><polygon fill="#181818" points="1034.5,494.9863,1024.5,498.9863,1034.5,502.9863,1030.5,498.9863" style="stroke:#181818;stroke-width:1.0;"/><text fill="#000000" font-family="sans-serif" font-size="13" lengthAdjust="spacing" textLength="182" x="1030.5" y="480.7236">X'sDataModel.Add(xDataModel)</text><polygon fill="#181818" points="861.5,540.2773,851.5,544.2773,861.5,548.2773,857.5,544.2773" style="stroke:#181818;stroke-width:1.0;"/><line style="stroke:#181818;stroke-width:1.0;stroke-dasharray:2.0,2.0;" x1="855.5" x2="1017.5" y1="544.2773" y2="544.2773"/><text fill="#000000" font-family="sans-serif" font-size="13" lengthAdjust="spacing" textLength="136" x="867.5" y="539.0146">return list X'sDataModel</text><polygon fill="#181818" points="678.5,571.5684,668.5,575.5684,678.5,579.5684,674.5,575.5684" style="stroke:#181818;stroke-width:1.0;"/><line style="stroke:#181818;stroke-width:1.0;stroke-dasharray:2.0,2.0;" x1="672.5" x2="844.5" y1="575.5684" y2="575.5684"/><text fill="#000000" font-family="sans-serif" font-size="13" lengthAdjust="spacing" textLength="118" x="684.5" y="570.3057">return list with all X's</text><polygon fill="#181818" points="414,602.8594,404,606.8594,414,610.8594,410,606.8594" style="stroke:#181818;stroke-width:1.0;"/><line style="stroke:#181818;stroke-width:1.0;stroke-dasharray:2.0,2.0;" x1="408" x2="661.5" y1="606.8594" y2="606.8594"/><text fill="#000000" font-family="sans-serif" font-size="13" lengthAdjust="spacing" textLength="54" x="420" y="601.5967">return list</text><path d="M213,621.8594 L274,621.8594 L274,631.1504 L264,641.1504 L213,641.1504 L213,621.8594 " fill="#EEEEEE" style="stroke:#000000;stroke-width:1.5;"/><rect fill="none" height="228.0371" style="stroke:#000000;stroke-width:1.5;" width="523" x="213" y="621.8594"/><text fill="#000000" font-family="sans-serif" font-size="13" font-weight="bold" lengthAdjust="spacing" textLength="16" x="228" y="636.8877">alt</text><text fill="#000000" font-family="sans-serif" font-size="11" font-weight="bold" lengthAdjust="spacing" textLength="148" x="289" y="635.7295">[patients != null &amp;&amp; x.Any()]</text><path d="M354.5,648.1504 L427.5,648.1504 L427.5,657.4414 L417.5,667.4414 L354.5,667.4414 L354.5,648.1504 " fill="#EEEEEE" style="stroke:#000000;stroke-width:1.5;"/><rect fill="none" height="163.4551" style="stroke:#000000;stroke-width:1.5;" width="371.5" x="354.5" y="648.1504"/><text fill="#000000" font-family="sans-serif" font-size="13" font-weight="bold" lengthAdjust="spacing" textLength="28" x="369.5" y="663.1787">loop</text><text fill="#000000" font-family="sans-serif" font-size="11" font-weight="bold" lengthAdjust="spacing" textLength="97" x="442.5" y="662.0205">[foreach(x in X's)]</text><polygon fill="#181818" points="565,686.7324,575,690.7324,565,694.7324,569,690.7324" style="stroke:#181818;stroke-width:1.0;"/><line style="stroke:#181818;stroke-width:1.0;" x1="403" x2="571" y1="690.7324" y2="690.7324"/><text fill="#000000" font-family="sans-serif" font-size="13" lengthAdjust="spacing" textLength="155" x="410" y="685.4697">XInformationDTO.ToDTO(x)</text><path d="M592,703.7324 L592,730.7324 L716,730.7324 L716,713.7324 L706,703.7324 L592,703.7324 " fill="#FEFFDD" style="stroke:#181818;stroke-width:0.5;"/><path d="M706,703.7324 L706,713.7324 L716,713.7324 L706,703.7324 " fill="#FEFFDD" style="stroke:#181818;stroke-width:0.5;"/><text fill="#000000" font-family="sans-serif" font-size="13" lengthAdjust="spacing" textLength="103" x="598" y="722.7607">convert x in xDTO</text><polygon fill="#181818" points="414,755.3145,404,759.3145,414,763.3145,410,759.3145" style="stroke:#181818;stroke-width:1.0;"/><line style="stroke:#181818;stroke-width:1.0;stroke-dasharray:2.0,2.0;" x1="408" x2="581" y1="759.3145" y2="759.3145"/><text fill="#000000" font-family="sans-serif" font-size="13" lengthAdjust="spacing" textLength="70" x="420" y="754.0518">return xDTO</text><line style="stroke:#181818;stroke-width:1.0;" x1="403" x2="445" y1="790.6055" y2="790.6055"/><line style="stroke:#181818;stroke-width:1.0;" x1="445" x2="445" y1="790.6055" y2="803.6055"/><line style="stroke:#181818;stroke-width:1.0;" x1="404" x2="445" y1="803.6055" y2="803.6055"/><polygon fill="#181818" points="414,799.6055,404,803.6055,414,807.6055,410,803.6055" style="stroke:#181818;stroke-width:1.0;"/><text fill="#000000" font-family="sans-serif" font-size="13" lengthAdjust="spacing" textLength="110" x="410" y="785.3428">X'sDTO.Add(xDTO)</text><polygon fill="#181818" points="280,837.8965,270,841.8965,280,845.8965,276,841.8965" style="stroke:#181818;stroke-width:1.0;"/><line style="stroke:#181818;stroke-width:1.0;stroke-dasharray:2.0,2.0;" x1="274" x2="392" y1="841.8965" y2="841.8965"/><text fill="#000000" font-family="sans-serif" font-size="13" lengthAdjust="spacing" textLength="100" x="286" y="836.6338">return list X'sDTO</text><path d="M20,863.8965 L81,863.8965 L81,873.1875 L71,883.1875 L20,883.1875 L20,863.8965 " fill="#EEEEEE" style="stroke:#000000;stroke-width:1.5;"/><rect fill="none" height="98.5039" style="stroke:#000000;stroke-width:1.5;" width="295" x="20" y="863.8965"/><text fill="#000000" font-family="sans-serif" font-size="13" font-weight="bold" lengthAdjust="spacing" textLength="16" x="35" y="878.9248">alt</text><text fill="#000000" font-family="sans-serif" font-size="11" font-weight="bold" lengthAdjust="spacing" textLength="84" x="96" y="877.7666">[success case]</text><polygon fill="#181818" points="72,902.4785,62,906.4785,72,910.4785,68,906.4785" style="stroke:#181818;stroke-width:1.0;"/><line style="stroke:#181818;stroke-width:1.0;stroke-dasharray:2.0,2.0;" x1="66" x2="258" y1="906.4785" y2="906.4785"/><text fill="#000000" font-family="sans-serif" font-size="13" lengthAdjust="spacing" textLength="125" x="78" y="901.2158">Send code 200 (GET)</text><line style="stroke:#000000;stroke-width:1.0;stroke-dasharray:2.0,2.0;" x1="20" x2="315" y1="915.4785" y2="915.4785"/><text fill="#000000" font-family="sans-serif" font-size="11" font-weight="bold" lengthAdjust="spacing" textLength="72" x="25" y="927.3486">[failure case]</text><polygon fill="#181818" points="72,950.4004,62,954.4004,72,958.4004,68,954.4004" style="stroke:#181818;stroke-width:1.0;"/><line style="stroke:#181818;stroke-width:1.0;stroke-dasharray:2.0,2.0;" x1="66" x2="258" y1="954.4004" y2="954.4004"/><text fill="#000000" font-family="sans-serif" font-size="13" lengthAdjust="spacing" textLength="174" x="78" y="949.1377">Send code 404 (NOT FOUND)</text><!--SRC=[ZLHHQzim47xthxZreRCVQiBeKxSKicKhXRM1DcCPx4NOoYAG9I7BMVplToSvjfIaC4ECellklhllpcUOTQ8IXYa7Bxfp75WBbWwPYKo7BrevgwNabW2LipArltAx5vNtRlTLQbkkLtHVEvtUFxvmerlXjEt9BYp-JH4fuDp-n8m96JLuEc5bZZtfcalFtPoNmm_ErnAEMPQnoeazGmb2_VuDD_U-MhY31-usd_jVULzCI2-4joCE2m-mKnGfGaR4-2AdO8ksLrM23Ie46E87k6YCv8roRU8OPKnEHv-X8dHxvUxJPXJYFY_AtwhykUEMvmRczs3A7kPpw0kyNklledKXeU9ZLEAWpp7gpPILvQwp2YJwmL_XTi2aZ8NtTtrMyxDWJ2OT4Yqi2CB76gYVoB3MIzqmeVBD-tQ4Hshvjakj3MorHPfT7aTLaBe1Fcyom_1uvZG3rc06XvD0z2XDsei_EmTwwpr8SmvNnxp3W9QcQ-JLMmnnZkMYhi-OkAep-WM_o_B7GMB1lK11r6ZwBZOEGyIUyHoEmnqvnjWmj2IjOKvmcjDtSr0THhs-XaEvK7qUQabxDRHe4dJuId1La32F2f4DHjGATmXEABxpmuGU-McrNEu9MkvewlRSOj-9ZzRH22QYi-fI1B_8CYGQ_4Xyp2_qRhsQkZOYforosZIa8cH4Gzk2f6oxgk8jBYZMXkaCUuRwxpSJZPggiRYQmuVP3FA7h-iYuxBbi6L2TfR_b-ljx1RovzKQlgr-F2-BqspyXel7mk_6Vm00]--></g></svg>