<?xml version="1.0" encoding="us-ascii" standalone="no"?><svg xmlns="http://www.w3.org/2000/svg" xmlns:xlink="http://www.w3.org/1999/xlink" contentStyleType="text/css" height="766px" preserveAspectRatio="none" style="width:1225px;height:766px;background:#FFFFFF;" version="1.1" viewBox="0 0 1225 766" width="1225px" zoomAndPan="magnify"><defs/><g><rect fill="#FFFFFF" height="670.7422" style="stroke:#181818;stroke-width:1.0;" width="10" x="51" y="48.6211"/><rect fill="#FFFFFF" height="647.4512" style="stroke:#181818;stroke-width:1.0;" width="10" x="259" y="71.9121"/><rect fill="#FFFFFF" height="503.6563" style="stroke:#181818;stroke-width:1.0;" width="10" x="393" y="103.2031"/><rect fill="#FFFFFF" height="68.582" style="stroke:#181818;stroke-width:1.0;" width="10" x="577" y="491.9863"/><rect fill="#FFFFFF" height="299.9102" style="stroke:#181818;stroke-width:1.0;" width="10" x="657.5" y="134.4941"/><rect fill="#FFFFFF" height="237.3281" style="stroke:#181818;stroke-width:1.0;" width="10" x="840.5" y="165.7852"/><rect fill="#FFFFFF" height="31.291" style="stroke:#181818;stroke-width:1.0;" width="10" x="1180.5" y="214.3672"/><rect fill="none" height="150.4551" style="stroke:#000000;stroke-width:1.5;" width="513" x="213" y="449.4043"/><rect fill="none" height="98.5039" style="stroke:#000000;stroke-width:1.5;" width="295" x="20" y="613.8594"/><line style="stroke:#181818;stroke-width:0.5;stroke-dasharray:5.0,5.0;" x1="56" x2="56" y1="38.6211" y2="729.3633"/><line style="stroke:#181818;stroke-width:0.5;stroke-dasharray:5.0,5.0;" x1="264" x2="264" y1="38.6211" y2="729.3633"/><line style="stroke:#181818;stroke-width:0.5;stroke-dasharray:5.0,5.0;" x1="397.5" x2="397.5" y1="38.6211" y2="729.3633"/><line style="stroke:#181818;stroke-width:0.5;stroke-dasharray:5.0,5.0;" x1="582" x2="582" y1="38.6211" y2="729.3633"/><line style="stroke:#181818;stroke-width:0.5;stroke-dasharray:5.0,5.0;" x1="662" x2="662" y1="38.6211" y2="729.3633"/><line style="stroke:#181818;stroke-width:0.5;stroke-dasharray:5.0,5.0;" x1="845.5" x2="845.5" y1="38.6211" y2="729.3633"/><line style="stroke:#181818;stroke-width:0.5;stroke-dasharray:5.0,5.0;" x1="1009.5" x2="1009.5" y1="38.6211" y2="729.3633"/><line style="stroke:#181818;stroke-width:0.5;stroke-dasharray:5.0,5.0;" x1="1097.5" x2="1097.5" y1="38.6211" y2="729.3633"/><line style="stroke:#181818;stroke-width:0.5;stroke-dasharray:5.0,5.0;" x1="1185.5" x2="1185.5" y1="38.6211" y2="729.3633"/><rect fill="#E2E2F0" height="32.6211" rx="2.5" ry="2.5" style="stroke:#181818;stroke-width:0.5;" width="52" x="30" y="5"/><text fill="#000000" font-family="sans-serif" font-size="14" lengthAdjust="spacing" textLength="38" x="37" y="27.1074">Route</text><rect fill="#E2E2F0" height="32.6211" rx="2.5" ry="2.5" style="stroke:#181818;stroke-width:0.5;" width="52" x="30" y="728.3633"/><text fill="#000000" font-family="sans-serif" font-size="14" lengthAdjust="spacing" textLength="38" x="37" y="750.4707">Route</text><rect fill="#E2E2F0" height="32.6211" rx="2.5" ry="2.5" style="stroke:#181818;stroke-width:0.5;" width="82" x="223" y="5"/><text fill="#000000" font-family="sans-serif" font-size="14" lengthAdjust="spacing" textLength="68" x="230" y="27.1074">xController</text><rect fill="#E2E2F0" height="32.6211" rx="2.5" ry="2.5" style="stroke:#181818;stroke-width:0.5;" width="82" x="223" y="728.3633"/><text fill="#000000" font-family="sans-serif" font-size="14" lengthAdjust="spacing" textLength="68" x="230" y="750.4707">xController</text><rect fill="#E2E2F0" height="32.6211" rx="2.5" ry="2.5" style="stroke:#181818;stroke-width:0.5;" width="67" x="364.5" y="5"/><text fill="#000000" font-family="sans-serif" font-size="14" lengthAdjust="spacing" textLength="53" x="371.5" y="27.1074">xService</text><rect fill="#E2E2F0" height="32.6211" rx="2.5" ry="2.5" style="stroke:#181818;stroke-width:0.5;" width="67" x="364.5" y="728.3633"/><text fill="#000000" font-family="sans-serif" font-size="14" lengthAdjust="spacing" textLength="53" x="371.5" y="750.4707">xService</text><rect fill="#E2E2F0" height="32.6211" rx="2.5" ry="2.5" style="stroke:#181818;stroke-width:0.5;" width="50" x="557" y="5"/><text fill="#000000" font-family="sans-serif" font-size="14" lengthAdjust="spacing" textLength="36" x="564" y="27.1074">xDTO</text><rect fill="#E2E2F0" height="32.6211" rx="2.5" ry="2.5" style="stroke:#181818;stroke-width:0.5;" width="50" x="557" y="728.3633"/><text fill="#000000" font-family="sans-serif" font-size="14" lengthAdjust="spacing" textLength="36" x="564" y="750.4707">xDTO</text><rect fill="#E2E2F0" height="32.6211" rx="2.5" ry="2.5" style="stroke:#181818;stroke-width:0.5;" width="91" x="617" y="5"/><text fill="#000000" font-family="sans-serif" font-size="14" lengthAdjust="spacing" textLength="77" x="624" y="27.1074">xIRepository</text><rect fill="#E2E2F0" height="32.6211" rx="2.5" ry="2.5" style="stroke:#181818;stroke-width:0.5;" width="91" x="617" y="728.3633"/><text fill="#000000" font-family="sans-serif" font-size="14" lengthAdjust="spacing" textLength="77" x="624" y="750.4707">xIRepository</text><rect fill="#E2E2F0" height="32.6211" rx="2.5" ry="2.5" style="stroke:#181818;stroke-width:0.5;" width="88" x="801.5" y="5"/><text fill="#000000" font-family="sans-serif" font-size="14" lengthAdjust="spacing" textLength="74" x="808.5" y="27.1074">xRepository</text><rect fill="#E2E2F0" height="32.6211" rx="2.5" ry="2.5" style="stroke:#181818;stroke-width:0.5;" width="88" x="801.5" y="728.3633"/><text fill="#000000" font-family="sans-serif" font-size="14" lengthAdjust="spacing" textLength="74" x="808.5" y="750.4707">xRepository</text><rect fill="#E2E2F0" height="32.6211" rx="2.5" ry="2.5" style="stroke:#181818;stroke-width:0.5;" width="68" x="975.5" y="5"/><text fill="#000000" font-family="sans-serif" font-size="14" lengthAdjust="spacing" textLength="54" x="982.5" y="27.1074">xMapper</text><rect fill="#E2E2F0" height="32.6211" rx="2.5" ry="2.5" style="stroke:#181818;stroke-width:0.5;" width="68" x="975.5" y="728.3633"/><text fill="#000000" font-family="sans-serif" font-size="14" lengthAdjust="spacing" textLength="54" x="982.5" y="750.4707">xMapper</text><rect fill="#E2E2F0" height="32.6211" rx="2.5" ry="2.5" style="stroke:#181818;stroke-width:0.5;" width="88" x="1053.5" y="5"/><text fill="#000000" font-family="sans-serif" font-size="14" lengthAdjust="spacing" textLength="74" x="1060.5" y="27.1074">xDataModel</text><rect fill="#E2E2F0" height="32.6211" rx="2.5" ry="2.5" style="stroke:#181818;stroke-width:0.5;" width="88" x="1053.5" y="728.3633"/><text fill="#000000" font-family="sans-serif" font-size="14" lengthAdjust="spacing" textLength="74" x="1060.5" y="750.4707">xDataModel</text><rect fill="#E2E2F0" height="32.6211" rx="2.5" ry="2.5" style="stroke:#181818;stroke-width:0.5;" width="68" x="1151.5" y="5"/><text fill="#000000" font-family="sans-serif" font-size="14" lengthAdjust="spacing" textLength="54" x="1158.5" y="27.1074">xContext</text><rect fill="#E2E2F0" height="32.6211" rx="2.5" ry="2.5" style="stroke:#181818;stroke-width:0.5;" width="68" x="1151.5" y="728.3633"/><text fill="#000000" font-family="sans-serif" font-size="14" lengthAdjust="spacing" textLength="54" x="1158.5" y="750.4707">xContext</text><rect fill="#FFFFFF" height="670.7422" style="stroke:#181818;stroke-width:1.0;" width="10" x="51" y="48.6211"/><rect fill="#FFFFFF" height="647.4512" style="stroke:#181818;stroke-width:1.0;" width="10" x="259" y="71.9121"/><rect fill="#FFFFFF" height="503.6563" style="stroke:#181818;stroke-width:1.0;" width="10" x="393" y="103.2031"/><rect fill="#FFFFFF" height="68.582" style="stroke:#181818;stroke-width:1.0;" width="10" x="577" y="491.9863"/><rect fill="#FFFFFF" height="299.9102" style="stroke:#181818;stroke-width:1.0;" width="10" x="657.5" y="134.4941"/><rect fill="#FFFFFF" height="237.3281" style="stroke:#181818;stroke-width:1.0;" width="10" x="840.5" y="165.7852"/><rect fill="#FFFFFF" height="31.291" style="stroke:#181818;stroke-width:1.0;" width="10" x="1180.5" y="214.3672"/><polygon fill="#181818" points="247,67.9121,257,71.9121,247,75.9121,251,71.9121" style="stroke:#181818;stroke-width:1.0;"/><line style="stroke:#181818;stroke-width:1.0;" x1="61" x2="253" y1="71.9121" y2="71.9121"/><text fill="#000000" font-family="sans-serif" font-size="13" lengthAdjust="spacing" textLength="68" x="68" y="66.6494">GetXByY(y)</text><polygon fill="#181818" points="381,99.2031,391,103.2031,381,107.2031,385,103.2031" style="stroke:#181818;stroke-width:1.0;"/><line style="stroke:#181818;stroke-width:1.0;" x1="269" x2="387" y1="103.2031" y2="103.2031"/><text fill="#000000" font-family="sans-serif" font-size="13" lengthAdjust="spacing" textLength="61" x="276" y="97.9404">GetByY(y)</text><polygon fill="#181818" points="645.5,130.4941,655.5,134.4941,645.5,138.4941,649.5,134.4941" style="stroke:#181818;stroke-width:1.0;"/><line style="stroke:#181818;stroke-width:1.0;" x1="403" x2="651.5" y1="134.4941" y2="134.4941"/><text fill="#000000" font-family="sans-serif" font-size="13" lengthAdjust="spacing" textLength="105" x="410" y="129.2314">GetXByYAsync(y)</text><polygon fill="#181818" points="828.5,161.7852,838.5,165.7852,828.5,169.7852,832.5,165.7852" style="stroke:#181818;stroke-width:1.0;"/><line style="stroke:#181818;stroke-width:1.0;" x1="667.5" x2="834.5" y1="165.7852" y2="165.7852"/><text fill="#000000" font-family="sans-serif" font-size="13" lengthAdjust="spacing" textLength="154" x="674.5" y="160.5225">implemnts GetXByYAsync</text><polygon fill="#181818" points="1168.5,210.3672,1178.5,214.3672,1168.5,218.3672,1172.5,214.3672" style="stroke:#181818;stroke-width:1.0;"/><line style="stroke:#181818;stroke-width:1.0;" x1="850.5" x2="1174.5" y1="214.3672" y2="214.3672"/><text fill="#000000" font-family="sans-serif" font-size="13" lengthAdjust="spacing" textLength="117" x="857.5" y="191.8135">Set&lt;XDataModel&gt;().</text><text fill="#000000" font-family="sans-serif" font-size="13" lengthAdjust="spacing" textLength="147" x="857.5" y="209.1045">.FirstAsync(p =&gt; p.y==y)</text><polygon fill="#181818" points="861.5,241.6582,851.5,245.6582,861.5,249.6582,857.5,245.6582" style="stroke:#181818;stroke-width:1.0;"/><line style="stroke:#181818;stroke-width:1.0;stroke-dasharray:2.0,2.0;" x1="855.5" x2="1184.5" y1="245.6582" y2="245.6582"/><text fill="#000000" font-family="sans-serif" font-size="13" lengthAdjust="spacing" textLength="144" x="867.5" y="240.3955">return xDataModel with y</text><polygon fill="#181818" points="997.5,299.2402,1007.5,303.2402,997.5,307.2402,1001.5,303.2402" style="stroke:#181818;stroke-width:1.0;"/><line style="stroke:#181818;stroke-width:1.0;" x1="850.5" x2="1003.5" y1="303.2402" y2="303.2402"/><text fill="#000000" font-family="sans-serif" font-size="13" lengthAdjust="spacing" textLength="135" x="857.5" y="297.9775">ToDomain(XDataModel)</text><path d="M1014,316.2402 L1014,343.2402 L1205,343.2402 L1205,326.2402 L1195,316.2402 L1014,316.2402 " fill="#FEFFDD" style="stroke:#181818;stroke-width:0.5;"/><path d="M1195,316.2402 L1195,326.2402 L1205,326.2402 L1195,316.2402 " fill="#FEFFDD" style="stroke:#181818;stroke-width:0.5;"/><text fill="#000000" font-family="sans-serif" font-size="13" lengthAdjust="spacing" textLength="170" x="1020" y="335.2686">See "ToDomainMapper.puml"</text><polygon fill="#181818" points="861.5,367.8223,851.5,371.8223,861.5,375.8223,857.5,371.8223" style="stroke:#181818;stroke-width:1.0;"/><line style="stroke:#181818;stroke-width:1.0;stroke-dasharray:2.0,2.0;" x1="855.5" x2="1008.5" y1="371.8223" y2="371.8223"/><text fill="#000000" font-family="sans-serif" font-size="13" lengthAdjust="spacing" textLength="106" x="867.5" y="366.5596">return XDataModel</text><polygon fill="#181818" points="678.5,399.1133,668.5,403.1133,678.5,407.1133,674.5,403.1133" style="stroke:#181818;stroke-width:1.0;"/><line style="stroke:#181818;stroke-width:1.0;stroke-dasharray:2.0,2.0;" x1="672.5" x2="844.5" y1="403.1133" y2="403.1133"/><text fill="#000000" font-family="sans-serif" font-size="13" lengthAdjust="spacing" textLength="44" x="684.5" y="397.8506">return X</text><polygon fill="#181818" points="414,430.4043,404,434.4043,414,438.4043,410,434.4043" style="stroke:#181818;stroke-width:1.0;"/><line style="stroke:#181818;stroke-width:1.0;stroke-dasharray:2.0,2.0;" x1="408" x2="661.5" y1="434.4043" y2="434.4043"/><text fill="#000000" font-family="sans-serif" font-size="13" lengthAdjust="spacing" textLength="44" x="420" y="429.1416">return x</text><path d="M213,449.4043 L274,449.4043 L274,458.6953 L264,468.6953 L213,468.6953 L213,449.4043 " fill="#EEEEEE" style="stroke:#000000;stroke-width:1.5;"/><rect fill="none" height="150.4551" style="stroke:#000000;stroke-width:1.5;" width="513" x="213" y="449.4043"/><text fill="#000000" font-family="sans-serif" font-size="13" font-weight="bold" lengthAdjust="spacing" textLength="16" x="228" y="464.4326">alt</text><text fill="#000000" font-family="sans-serif" font-size="11" font-weight="bold" lengthAdjust="spacing" textLength="127" x="289" y="463.2744">[x != null &amp;&amp; x is Active]</text><polygon fill="#181818" points="565,487.9863,575,491.9863,565,495.9863,569,491.9863" style="stroke:#181818;stroke-width:1.0;"/><line style="stroke:#181818;stroke-width:1.0;" x1="403" x2="571" y1="491.9863" y2="491.9863"/><text fill="#000000" font-family="sans-serif" font-size="13" lengthAdjust="spacing" textLength="155" x="410" y="486.7236">XInformationDTO.ToDTO(x)</text><path d="M592,504.9863 L592,531.9863 L716,531.9863 L716,514.9863 L706,504.9863 L592,504.9863 " fill="#FEFFDD" style="stroke:#181818;stroke-width:0.5;"/><path d="M706,504.9863 L706,514.9863 L716,514.9863 L706,504.9863 " fill="#FEFFDD" style="stroke:#181818;stroke-width:0.5;"/><text fill="#000000" font-family="sans-serif" font-size="13" lengthAdjust="spacing" textLength="103" x="598" y="524.0146">convert x in xDTO</text><polygon fill="#181818" points="414,556.5684,404,560.5684,414,564.5684,410,560.5684" style="stroke:#181818;stroke-width:1.0;"/><line style="stroke:#181818;stroke-width:1.0;stroke-dasharray:2.0,2.0;" x1="408" x2="581" y1="560.5684" y2="560.5684"/><text fill="#000000" font-family="sans-serif" font-size="13" lengthAdjust="spacing" textLength="70" x="420" y="555.3057">return xDTO</text><polygon fill="#181818" points="280,587.8594,270,591.8594,280,595.8594,276,591.8594" style="stroke:#181818;stroke-width:1.0;"/><line style="stroke:#181818;stroke-width:1.0;stroke-dasharray:2.0,2.0;" x1="274" x2="392" y1="591.8594" y2="591.8594"/><text fill="#000000" font-family="sans-serif" font-size="13" lengthAdjust="spacing" textLength="100" x="286" y="586.5967">return list X'sDTO</text><path d="M20,613.8594 L81,613.8594 L81,623.1504 L71,633.1504 L20,633.1504 L20,613.8594 " fill="#EEEEEE" style="stroke:#000000;stroke-width:1.5;"/><rect fill="none" height="98.5039" style="stroke:#000000;stroke-width:1.5;" width="295" x="20" y="613.8594"/><text fill="#000000" font-family="sans-serif" font-size="13" font-weight="bold" lengthAdjust="spacing" textLength="16" x="35" y="628.8877">alt</text><text fill="#000000" font-family="sans-serif" font-size="11" font-weight="bold" lengthAdjust="spacing" textLength="84" x="96" y="627.7295">[success case]</text><polygon fill="#181818" points="72,652.4414,62,656.4414,72,660.4414,68,656.4414" style="stroke:#181818;stroke-width:1.0;"/><line style="stroke:#181818;stroke-width:1.0;stroke-dasharray:2.0,2.0;" x1="66" x2="258" y1="656.4414" y2="656.4414"/><text fill="#000000" font-family="sans-serif" font-size="13" lengthAdjust="spacing" textLength="125" x="78" y="651.1787">Send code 200 (GET)</text><line style="stroke:#000000;stroke-width:1.0;stroke-dasharray:2.0,2.0;" x1="20" x2="315" y1="665.4414" y2="665.4414"/><text fill="#000000" font-family="sans-serif" font-size="11" font-weight="bold" lengthAdjust="spacing" textLength="72" x="25" y="677.3115">[failure case]</text><polygon fill="#181818" points="72,700.3633,62,704.3633,72,708.3633,68,704.3633" style="stroke:#181818;stroke-width:1.0;"/><line style="stroke:#181818;stroke-width:1.0;stroke-dasharray:2.0,2.0;" x1="66" x2="258" y1="704.3633" y2="704.3633"/><text fill="#000000" font-family="sans-serif" font-size="13" lengthAdjust="spacing" textLength="174" x="78" y="699.1006">Send code 404 (NOT FOUND)</text><!--SRC=[ZLCzRzim4DtrAwuPKcc8O1IPWjf0KZT1XiH0uW8kq8MGpWa1YXH8ohN-VNcaFaXhgGQ1vBrtVE-Erp9jUSLR9YsygSuYC0EQ5baRXSu_bBHQ2O6Q09NL8es_epxnohFDgKfZs_sEpckhqlFdDsoLuLRfdk9SkssAI07B-0jhsw2eSQkBMvbbBwf6uUzkbdRmRBsNiCooZ5MMdvWhGV3l_t2pyMxX3fxG7XxwttbVp4XV21ztE6Sym2vHL14AEemtEIUxDxsi4coeGe0v_03dJIkmaTOan4WnaKREuCZHtj5-Fqo5sEH5-KUMZrmR6ovkORs1jkpNwyJKK94npysiGwFjj8oB-vVRJ-Yp6XTq9f8kS0Ft1C599_NCvTohhMeOb_cijCYa8bVyuzE2EdeakK6u6j6XzMNRDU8gyvcMCkU4iJx_L8A6g24Z9KR6hPZwEvOW1eQcUSFmPGso4mAkhzrcDWtk6zw06mINv_0iZqetp78btOIKpjX-bvyBZvmoqz3GGLeFTtf7TJwXfYkvz4FcWPHyANQAuYAp5pM_ye4XkB5m-6g8YBAEpT9h9gkcgoeqRe2O2VR2750N_EHGmsJjPDO8trOho9z-xeiCXK4uCYuwZVz5lLtTGlwwsyFZxjVhjhXKuoSmxfcVtNy0]--></g></svg>