<?xml version="1.0" encoding="us-ascii" standalone="no"?><svg xmlns="http://www.w3.org/2000/svg" xmlns:xlink="http://www.w3.org/1999/xlink" contentStyleType="text/css" height="297px" preserveAspectRatio="none" style="width:6375px;height:297px;background:#FFFFFF;" version="1.1" viewBox="0 0 6375 297" width="6375px" zoomAndPan="magnify"><defs/><g><!--entity User--><g id="elem_User"><ellipse cx="270.5" cy="14" fill="#F1F1F1" rx="8" ry="8" style="stroke:#181818;stroke-width:0.5;"/><path d="M270.5,22 L270.5,49 M257.5,30 L283.5,30 M270.5,49 L257.5,64 M270.5,49 L283.5,64 " fill="none" style="stroke:#181818;stroke-width:0.5;"/><text fill="#000000" font-family="sans-serif" font-size="14" lengthAdjust="spacing" textLength="29" x="256" y="80.6074">User</text></g><!--entity Admin--><g id="elem_Admin"><ellipse cx="2284.5" cy="14" fill="#F1F1F1" rx="8" ry="8" style="stroke:#181818;stroke-width:0.5;"/><path d="M2284.5,22 L2284.5,49 M2271.5,30 L2297.5,30 M2284.5,49 L2271.5,64 M2284.5,49 L2297.5,64 " fill="none" style="stroke:#181818;stroke-width:0.5;"/><text fill="#000000" font-family="sans-serif" font-size="14" lengthAdjust="spacing" textLength="39" x="2265" y="80.6074">Admin</text></g><!--entity Patient--><g id="elem_Patient"><ellipse cx="4681.5" cy="14" fill="#F1F1F1" rx="8" ry="8" style="stroke:#181818;stroke-width:0.5;"/><path d="M4681.5,22 L4681.5,49 M4668.5,30 L4694.5,30 M4681.5,49 L4668.5,64 M4681.5,49 L4694.5,64 " fill="none" style="stroke:#181818;stroke-width:0.5;"/><text fill="#000000" font-family="sans-serif" font-size="14" lengthAdjust="spacing" textLength="44" x="4659.5" y="80.6074">Patient</text></g><!--entity Doctor--><g id="elem_Doctor"><ellipse cx="5830.5" cy="14" fill="#F1F1F1" rx="8" ry="8" style="stroke:#181818;stroke-width:0.5;"/><path d="M5830.5,22 L5830.5,49 M5817.5,30 L5843.5,30 M5830.5,49 L5817.5,64 M5830.5,49 L5843.5,64 " fill="none" style="stroke:#181818;stroke-width:0.5;"/><text fill="#000000" font-family="sans-serif" font-size="14" lengthAdjust="spacing" textLength="42" x="5809.5" y="80.6074">Doctor</text></g><g id="elem_Register new backoffice users"><ellipse cx="714.2583" cy="248.6517" fill="#F1F1F1" rx="113.7583" ry="25.1517" style="stroke:#181818;stroke-width:0.5;"/><text fill="#000000" font-family="sans-serif" font-size="14" lengthAdjust="spacing" textLength="189" x="619.7583" y="252.4485">Register new backoffice users</text></g><g id="elem_Reset my password if I forget it"><ellipse cx="121.5762" cy="248.5152" fill="#F1F1F1" rx="115.5762" ry="25.5152" style="stroke:#181818;stroke-width:0.5;"/><text fill="#000000" font-family="sans-serif" font-size="14" lengthAdjust="spacing" textLength="193" x="25.0762" y="252.3121">Reset my password if I forget it</text></g><g id="elem_Log in to the system using my credentials"><ellipse cx="418.7469" cy="248.7494" fill="#F1F1F1" rx="146.7469" ry="31.7494" style="stroke:#181818;stroke-width:0.5;"/><text fill="#000000" font-family="sans-serif" font-size="14" lengthAdjust="spacing" textLength="260" x="288.7469" y="252.5462">Log in to the system using my credentials</text></g><g id="elem_Register for the healthcare application,\n so that I can create a user profile\n and book appointments online"><ellipse cx="4228.46" cy="248.2694" fill="#F1F1F1" rx="185.96" ry="42.7694" style="stroke:#181818;stroke-width:0.5;"/><text fill="#000000" font-family="sans-serif" font-size="14" lengthAdjust="spacing" textLength="245" x="4102.96" y="234.4521">Register for the healthcare application,</text><text fill="#000000" font-family="sans-serif" font-size="14" lengthAdjust="spacing" textLength="208" x="4123.46" y="253.0732">so that I can create a user profile</text><text fill="#000000" font-family="sans-serif" font-size="14" lengthAdjust="spacing" textLength="190" x="4132.46" y="271.6942">and book appointments online</text></g><g id="elem_Update my user profile"><ellipse cx="4542.7065" cy="248.5413" fill="#F1F1F1" rx="93.2065" ry="21.0413" style="stroke:#181818;stroke-width:0.5;"/><text fill="#000000" font-family="sans-serif" font-size="14" lengthAdjust="spacing" textLength="142" x="4468.7065" y="253.345">Update my user profile</text></g><g id="elem_Delete my account and all associated data"><ellipse cx="4820.5626" cy="248.4125" fill="#F1F1F1" rx="150.0626" ry="32.4125" style="stroke:#181818;stroke-width:0.5;"/><text fill="#000000" font-family="sans-serif" font-size="14" lengthAdjust="spacing" textLength="267" x="4687.0626" y="252.2094">Delete my account and all associated data</text></g><g id="elem_Log in to the healthcare system using\n my external IAM credentials"><ellipse cx="5164.296" cy="248.6592" fill="#F1F1F1" rx="158.796" ry="34.1592" style="stroke:#181818;stroke-width:0.5;"/><text fill="#000000" font-family="sans-serif" font-size="14" lengthAdjust="spacing" textLength="236" x="5043.296" y="244.1524">Log in to the healthcare system using</text><text fill="#000000" font-family="sans-serif" font-size="14" lengthAdjust="spacing" textLength="172" x="5077.296" y="262.7735">my external IAM credentials</text></g><g id="elem_Create a new patient profile"><ellipse cx="970.5008" cy="248.3002" fill="#F1F1F1" rx="107.0008" ry="23.8002" style="stroke:#181818;stroke-width:0.5;"/><text fill="#000000" font-family="sans-serif" font-size="14" lengthAdjust="spacing" textLength="174" x="883.5008" y="252.097">Create a new patient profile</text></g><g id="elem_Edit an existing patient profile"><ellipse cx="1224.4468" cy="248.2894" fill="#F1F1F1" rx="111.9468" ry="24.7894" style="stroke:#181818;stroke-width:0.5;"/><text fill="#000000" font-family="sans-serif" font-size="14" lengthAdjust="spacing" textLength="185" x="1131.9468" y="252.0862">Edit an existing patient profile</text></g><g id="elem_Delete a patient profile"><ellipse cx="1465.6171" cy="248.6234" fill="#F1F1F1" rx="93.6171" ry="21.1234" style="stroke:#181818;stroke-width:0.5;"/><text fill="#000000" font-family="sans-serif" font-size="14" lengthAdjust="spacing" textLength="143" x="1391.1171" y="253.4271">Delete a patient profile</text></g><g id="elem_List/search patient profiles by different attributes"><ellipse cx="1761.7154" cy="248.4431" fill="#F1F1F1" rx="167.7154" ry="35.9431" style="stroke:#181818;stroke-width:0.5;"/><text fill="#000000" font-family="sans-serif" font-size="14" lengthAdjust="spacing" textLength="304" x="1609.7154" y="252.24">List/search patient profiles by different attributes</text></g><g id="elem_Create a new staff profile"><ellipse cx="2064.4414" cy="248.3883" fill="#F1F1F1" rx="99.9414" ry="22.3883" style="stroke:#181818;stroke-width:0.5;"/><text fill="#000000" font-family="sans-serif" font-size="14" lengthAdjust="spacing" textLength="158" x="1984.3178" y="252.5954">Create a new staff profile</text></g><g id="elem_Edit a staff&#8217;s profile"><ellipse cx="2284.4261" cy="248.2852" fill="#F1F1F1" rx="84.4261" ry="19.2852" style="stroke:#181818;stroke-width:0.5;"/><text fill="#000000" font-family="sans-serif" font-size="14" lengthAdjust="spacing" textLength="120" x="2221.4261" y="253.0889">Edit a staff&#8217;s profile</text></g><g id="elem_Deactivate a staff profile"><ellipse cx="2502.2971" cy="248.4594" fill="#F1F1F1" rx="97.7971" ry="21.9594" style="stroke:#181818;stroke-width:0.5;"/><text fill="#000000" font-family="sans-serif" font-size="14" lengthAdjust="spacing" textLength="153" x="2424.019" y="252.8865">Deactivate a staff profile</text></g><g id="elem_List/search staff profiles"><ellipse cx="2732.5275" cy="248.7055" fill="#F1F1F1" rx="96.5275" ry="21.7055" style="stroke:#181818;stroke-width:0.5;"/><text fill="#000000" font-family="sans-serif" font-size="14" lengthAdjust="spacing" textLength="150" x="2655.3422" y="253.2628">List/search staff profiles</text></g><g id="elem_Request an operation"><ellipse cx="5449.6672" cy="248.6334" fill="#F1F1F1" rx="91.1672" ry="20.6334" style="stroke:#181818;stroke-width:0.5;"/><text fill="#000000" font-family="sans-serif" font-size="14" lengthAdjust="spacing" textLength="137" x="5378.1672" y="253.4372">Request an operation</text></g><g id="elem_Update an operation requisition"><ellipse cx="5693.3571" cy="248.4714" fill="#F1F1F1" rx="117.8571" ry="25.9714" style="stroke:#181818;stroke-width:0.5;"/><text fill="#000000" font-family="sans-serif" font-size="14" lengthAdjust="spacing" textLength="198" x="5594.3571" y="252.2683">Update an operation requisition</text></g><g id="elem_Remove an operation requisition"><ellipse cx="5967.5653" cy="248.6131" fill="#F1F1F1" rx="121.0653" ry="26.6131" style="stroke:#181818;stroke-width:0.5;"/><text fill="#000000" font-family="sans-serif" font-size="14" lengthAdjust="spacing" textLength="205" x="5865.0653" y="252.4099">Remove an operation requisition</text></g><g id="elem_List/search operation requisitions"><ellipse cx="6246.4058" cy="248.4812" fill="#F1F1F1" rx="122.9058" ry="26.9812" style="stroke:#181818;stroke-width:0.5;"/><text fill="#000000" font-family="sans-serif" font-size="14" lengthAdjust="spacing" textLength="209" x="6141.9058" y="252.278">List/search operation requisitions</text></g><g id="elem_Add new types of operations"><ellipse cx="2973.7422" cy="248.7484" fill="#F1F1F1" rx="109.2422" ry="24.2484" style="stroke:#181818;stroke-width:0.5;"/><text fill="#000000" font-family="sans-serif" font-size="14" lengthAdjust="spacing" textLength="179" x="2884.2422" y="252.5453">Add new types of operations</text></g><g id="elem_Edit existing operation types"><ellipse cx="3226.3442" cy="248.5688" fill="#F1F1F1" rx="108.3442" ry="24.0688" style="stroke:#181818;stroke-width:0.5;"/><text fill="#000000" font-family="sans-serif" font-size="14" lengthAdjust="spacing" textLength="177" x="3137.8442" y="252.3657">Edit existing operation types</text></g><g id="elem_Remove obsolete or no longer performed operation types"><ellipse cx="3565.7074" cy="248.5415" fill="#F1F1F1" rx="195.7074" ry="41.5415" style="stroke:#181818;stroke-width:0.5;"/><text fill="#000000" font-family="sans-serif" font-size="14" lengthAdjust="spacing" textLength="362" x="3384.7074" y="252.3384">Remove obsolete or no longer performed operation types</text></g><g id="elem_List/search operation types"><ellipse cx="3901.6616" cy="248.5323" fill="#F1F1F1" rx="105.6616" ry="23.5323" style="stroke:#181818;stroke-width:0.5;"/><text fill="#000000" font-family="sans-serif" font-size="14" lengthAdjust="spacing" textLength="171" x="3816.1616" y="252.3292">List/search operation types</text></g><!--link Admin to Register new backoffice users--><g id="link_Admin_Register new backoffice users"><path d="M2264.8,46.7 C2137.36,51.51 1417,83.36 845.5,205.5 C820.63,210.82 799.4651,217.0618 776.5851,224.7818 " fill="none" id="Admin-to-Register new backoffice users" style="stroke:#181818;stroke-width:1.0;"/><polygon fill="#181818" points="770.9,226.7,780.7065,227.6127,775.6376,225.1015,778.1488,220.0326,770.9,226.7" style="stroke:#181818;stroke-width:1.0;"/></g><!--link User to Reset my password if I forget it--><g id="link_User_Reset my password if I forget it"><path d="M255.94,65.69 C228.56,102.72 173.0065,177.835 143.1365,218.245 " fill="none" id="User-to-Reset my password if I forget it" style="stroke:#181818;stroke-width:1.0;"/><polygon fill="#181818" points="139.57,223.07,148.1364,218.2102,142.5421,219.0492,141.7031,213.4549,139.57,223.07" style="stroke:#181818;stroke-width:1.0;"/></g><!--link User to Log in to the system using my credentials--><g id="link_User_Log in to the system using my credentials"><path d="M285.23,66.06 C311.26,101.5 361.9682,170.5342 392.6182,212.2642 " fill="none" id="User-to-Log in to the system using my credentials" style="stroke:#181818;stroke-width:1.0;"/><polygon fill="#181818" points="396.17,217.1,394.0662,207.4785,393.2102,213.0702,387.6185,212.2142,396.17,217.1" style="stroke:#181818;stroke-width:1.0;"/></g><!--link Patient to Register for the healthcare application,\n so that I can create a user profile\n and book appointments online--><g id="link_Patient_Register for the healthcare application,\n so that I can create a user profile\n and book appointments online"><path d="M4659.34,55.86 C4597.35,83.43 4425.1722,160.0216 4318.3322,207.5416 " fill="none" id="Patient-to-Register for the healthcare application,\n so that I can create a user profile\n and book appointments online" style="stroke:#181818;stroke-width:1.0;"/><polygon fill="#181818" points="4312.85,209.98,4322.6989,209.9773,4317.4185,207.948,4319.4477,202.6677,4312.85,209.98" style="stroke:#181818;stroke-width:1.0;"/></g><!--link Patient to Update my user profile--><g id="link_Patient_Update my user profile"><path d="M4659.48,77.93 C4630.46,119.99 4583.7174,187.7614 4559.6174,222.6914 " fill="none" id="Patient-to-Update my user profile" style="stroke:#181818;stroke-width:1.0;"/><polygon fill="#181818" points="4556.21,227.63,4564.6135,222.4937,4559.0495,223.5145,4558.0287,217.9505,4556.21,227.63" style="stroke:#181818;stroke-width:1.0;"/></g><!--link Patient to Delete my account and all associated data--><g id="link_Patient_Delete my account and all associated data"><path d="M4703.52,77.93 C4729.63,115.77 4769.4429,173.4812 4795.4029,211.1112 " fill="none" id="Patient-to-Delete my account and all associated data" style="stroke:#181818;stroke-width:1.0;"/><polygon fill="#181818" points="4798.81,216.05,4796.9918,206.3704,4795.9707,211.9344,4790.4068,210.9133,4798.81,216.05" style="stroke:#181818;stroke-width:1.0;"/></g><!--link Patient to Log in to the healthcare system using\n my external IAM credentials--><g id="link_Patient_Log in to the healthcare system using\n my external IAM credentials"><path d="M4703.51,55.18 C4771.79,83.67 4976.5925,169.11 5088.0125,215.59 " fill="none" id="Patient-to-Log in to the healthcare system using\n my external IAM credentials" style="stroke:#181818;stroke-width:1.0;"/><polygon fill="#181818" points="5093.55,217.9,5086.7838,210.7433,5088.9354,215.975,5083.7037,218.1266,5093.55,217.9" style="stroke:#181818;stroke-width:1.0;"/></g><!--link Admin to Create a new patient profile--><g id="link_Admin_Create a new patient profile"><path d="M2264.99,47.2 C2151.16,54.47 1561.82,96.13 1094.5,205.5 C1070.38,211.15 1049.9713,217.5843 1027.9913,225.4243 " fill="none" id="Admin-to-Create a new patient profile" style="stroke:#181818;stroke-width:1.0;"/><polygon fill="#181818" points="1022.34,227.44,1032.1607,228.1839,1027.0494,225.7602,1029.4731,220.6489,1022.34,227.44" style="stroke:#181818;stroke-width:1.0;"/></g><!--link Admin to Edit an existing patient profile--><g id="link_Admin_Edit an existing patient profile"><path d="M2264.98,48.3 C2166.55,60.09 1715.2,116.78 1354.5,205.5 C1330.43,211.42 1310.0413,217.6104 1287.6013,225.1004 " fill="none" id="Admin-to-Edit an existing patient profile" style="stroke:#181818;stroke-width:1.0;"/><polygon fill="#181818" points="1281.91,227,1291.7134,227.9448,1286.6528,225.417,1289.1806,220.3563,1281.91,227" style="stroke:#181818;stroke-width:1.0;"/></g><!--link Admin to Delete a patient profile--><g id="link_Admin_Delete a patient profile"><path d="M2264.81,49.39 C2180.84,64.05 1844.7,124.98 1576.5,205.5 C1553.61,212.37 1534.2495,219.4333 1513.8195,227.5133 " fill="none" id="Admin-to-Delete a patient profile" style="stroke:#181818;stroke-width:1.0;"/><polygon fill="#181818" points="1508.24,229.72,1518.0803,230.1297,1512.8896,227.8811,1515.1381,222.6903,1508.24,229.72" style="stroke:#181818;stroke-width:1.0;"/></g><!--link Admin to List/search patient profiles by different attributes--><g id="link_Admin_List/search patient profiles by different attributes"><path d="M2264.95,53.53 C2196.48,79.91 1970.5188,166.9728 1846.7188,214.6728 " fill="none" id="Admin-to-List/search patient profiles by different attributes" style="stroke:#181818;stroke-width:1.0;"/><polygon fill="#181818" points="1841.12,216.83,1850.9563,217.3267,1845.7857,215.0323,1848.08,209.8617,1841.12,216.83" style="stroke:#181818;stroke-width:1.0;"/></g><!--link Admin to Create a new staff profile--><g id="link_Admin_Create a new staff profile"><path d="M2264.98,63.88 C2224.38,101.06 2135.4743,182.4871 2091.9943,222.3171 " fill="none" id="Admin-to-Create a new staff profile" style="stroke:#181818;stroke-width:1.0;"/><polygon fill="#181818" points="2087.57,226.37,2096.9083,223.2402,2091.2569,222.9926,2091.5045,217.3412,2087.57,226.37" style="stroke:#181818;stroke-width:1.0;"/></g><!--link Admin to Edit a staff?s profile--><g id="link_Admin_Edit a staff&#8217;s profile"><path d="M2284.5,84.85 C2284.5,128.08 2284.5,190.13 2284.5,222.79 " fill="none" id="Admin-to-Edit a staff&#8217;s profile" style="stroke:#181818;stroke-width:1.0;"/><polygon fill="#181818" points="2284.5,228.79,2288.5,219.79,2284.5,223.79,2280.5,219.79,2284.5,228.79" style="stroke:#181818;stroke-width:1.0;"/></g><!--link Admin to Deactivate a staff profile--><g id="link_Admin_Deactivate a staff profile"><path d="M2304.23,64.24 C2344.79,101.73 2432.9037,183.1776 2475.6637,222.6976 " fill="none" id="Admin-to-Deactivate a staff profile" style="stroke:#181818;stroke-width:1.0;"/><polygon fill="#181818" points="2480.07,226.77,2476.1755,217.7238,2476.3981,223.3763,2470.7456,223.5989,2480.07,226.77" style="stroke:#181818;stroke-width:1.0;"/></g><!--link Admin to List/search staff profiles--><g id="link_Admin_List/search staff profiles"><path d="M2304.04,54.79 C2371.82,85.28 2592.3479,184.4691 2685.9179,226.5491 " fill="none" id="Admin-to-List/search staff profiles" style="stroke:#181818;stroke-width:1.0;"/><polygon fill="#181818" points="2691.39,229.01,2684.8224,221.6706,2686.8299,226.9593,2681.5412,228.9667,2691.39,229.01" style="stroke:#181818;stroke-width:1.0;"/></g><!--link Doctor to Request an operation--><g id="link_Doctor_Request an operation"><path d="M5809.47,57.12 C5746.84,90.25 5566.3841,185.6852 5489.1141,226.5452 " fill="none" id="Doctor-to-Request an operation" style="stroke:#181818;stroke-width:1.0;"/><polygon fill="#181818" points="5483.81,229.35,5493.636,228.6789,5488.2301,227.0127,5489.8963,221.6068,5483.81,229.35" style="stroke:#181818;stroke-width:1.0;"/></g><!--link Doctor to Update an operation requisition--><g id="link_Doctor_Update an operation requisition"><path d="M5809.39,77.04 C5782.22,117.01 5738.9135,180.7082 5713.8935,217.5082 " fill="none" id="Doctor-to-Update an operation requisition" style="stroke:#181818;stroke-width:1.0;"/><polygon fill="#181818" points="5710.52,222.47,5718.8881,217.2763,5713.3312,218.3352,5712.2724,212.7783,5710.52,222.47" style="stroke:#181818;stroke-width:1.0;"/></g><!--link Doctor to Remove an operation requisition--><g id="link_Doctor_Remove an operation requisition"><path d="M5851.61,77.04 C5878.7,116.9 5921.826,180.3285 5946.906,217.2085 " fill="none" id="Doctor-to-Remove an operation requisition" style="stroke:#181818;stroke-width:1.0;"/><polygon fill="#181818" points="5950.28,222.17,5948.5266,212.4785,5947.4683,218.0355,5941.9113,216.9771,5950.28,222.17" style="stroke:#181818;stroke-width:1.0;"/></g><!--link Doctor to List/search operation requisitions--><g id="link_Doctor_List/search operation requisitions"><path d="M5851.7,56.27 C5915.45,87.15 6101.1601,177.1044 6192.0401,221.1244 " fill="none" id="Doctor-to-List/search operation requisitions" style="stroke:#181818;stroke-width:1.0;"/><polygon fill="#181818" points="6197.44,223.74,6191.0839,216.2167,6192.9401,221.5604,6187.5965,223.4166,6197.44,223.74" style="stroke:#181818;stroke-width:1.0;"/></g><!--link Admin to Add new types of operations--><g id="link_Admin_Add new types of operations"><path d="M2304,51.21 C2376.21,70.57 2635.14,140.59 2846.5,205.5 C2869.37,212.52 2888.6987,218.7903 2910.4487,226.0503 " fill="none" id="Admin-to-Add new types of operations" style="stroke:#181818;stroke-width:1.0;"/><polygon fill="#181818" points="2916.14,227.95,2908.8695,221.3062,2911.3972,226.3669,2906.3365,228.8946,2916.14,227.95" style="stroke:#181818;stroke-width:1.0;"/></g><!--link Admin to Edit existing operation types--><g id="link_Admin_Edit existing operation types"><path d="M2304.26,48.92 C2395.67,62.64 2786.4,123.44 3099.5,205.5 C3123.42,211.77 3143.7416,218.152 3165.9516,225.732 " fill="none" id="Admin-to-Edit existing operation types" style="stroke:#181818;stroke-width:1.0;"/><polygon fill="#181818" points="3171.63,227.67,3164.4044,220.9774,3166.898,226.055,3161.8204,228.5486,3171.63,227.67" style="stroke:#181818;stroke-width:1.0;"/></g><!--link Admin to Remove obsolete or no longer performed operation types--><g id="link_Admin_Remove obsolete or no longer performed operation types"><path d="M2304.21,48.6 C2410.94,62.72 2930.41,132.41 3352.5,205.5 C3376.55,209.66 3396.1685,213.2742 3420.8585,218.0342 " fill="none" id="Admin-to-Remove obsolete or no longer performed operation types" style="stroke:#181818;stroke-width:1.0;"/><polygon fill="#181818" points="3426.75,219.17,3418.67,213.5386,3421.8404,218.2235,3417.1555,221.3939,3426.75,219.17" style="stroke:#181818;stroke-width:1.0;"/></g><!--link Admin to List/search operation types--><g id="link_Admin_List/search operation types"><path d="M2304.14,46.45 C2434.26,49.78 3185.07,74.23 3778.5,205.5 C3803.07,210.93 3823.9338,217.5426 3846.0138,225.6026 " fill="none" id="Admin-to-List/search operation types" style="stroke:#181818;stroke-width:1.0;"/><polygon fill="#181818" points="3851.65,227.66,3844.5673,220.8164,3846.9531,225.9455,3841.824,228.3313,3851.65,227.66" style="stroke:#181818;stroke-width:1.0;"/></g><!--SRC=[ZPJ1Rjim38RlVWhUjW3BSlTXGB3kKA03YWAzxS98j2DK5bs9RfVRNcEljoSP9NkfOsH6SmWKuUFFNx-eV3YAzAdUxNgFGOREVpRSxOP4MuFwPHss4RkggXyJnHemGLvKzTvsBfJVPLNLzoYEWfIjQLtLDso4nx9nMLLLuM6xtNw1Zm_KkYGK8T0h7D0ySTCuGw3zOzfKkTMPJ2JGdQ37b5uvMd0Dt4B3iTLz9nVm7RUWFOH1ZWJff2qwrNIXpGecabLt3hssg2QlIqCgN8gFX5wE1YC1zhrtHd4Edtu4I5aTHKqO35aKHPbY7Vh8ZVEa50OB1-QdNCqkIAUz4d3mBj1cqVonjrb3BSv5bjGDUHefD8O7tSyzq7jDER5nAc51XN1PU9dAx63pWDIoAjDFpI2WXzlzzqLUy-lx-k_G-VhwgTdPzfpyPbtsgS8QRxw7LNew8gvJTogrIuJH79TWWiC9h6iQYdaNHQ8x34Ah1qY2JRDcVoJ-_FgT_cSRZRYNKN55RMxy0ilsndTo7iVdWL99ZdkAPVOsbyWqD7C2efQvvAxG3zJnoxlfkT6h_3BFlRKbIZdrUWVSl5MbAu6UX-5DknHk5lyHnJ8V4fUfK7U1mNDeynkXg2-rqubVrRX-a0dKpry0]--></g></svg>