<?xml version="1.0" encoding="us-ascii" standalone="no"?><svg xmlns="http://www.w3.org/2000/svg" xmlns:xlink="http://www.w3.org/1999/xlink" contentStyleType="text/css" height="1104px" preserveAspectRatio="none" style="width:1502px;height:1104px;background:#FFFFFF;" version="1.1" viewBox="0 0 1502 1104" width="1502px" zoomAndPan="magnify"><defs/><g><rect fill="#FFFFFF" height="1008.1191" style="stroke:#181818;stroke-width:1.0;" width="10" x="41" y="48.6211"/><rect fill="#FFFFFF" height="984.8281" style="stroke:#181818;stroke-width:1.0;" width="10" x="282" y="71.9121"/><rect fill="#FFFFFF" height="819.0332" style="stroke:#181818;stroke-width:1.0;" width="10" x="622" y="103.2031"/><rect fill="#FFFFFF" height="354.832" style="stroke:#181818;stroke-width:1.0;" width="10" x="808" y="134.4941"/><rect fill="#FFFFFF" height="300.25" style="stroke:#181818;stroke-width:1.0;" width="10" x="994" y="165.7852"/><rect fill="#FFFFFF" height="277.7461" style="stroke:#181818;stroke-width:1.0;" width="10" x="994" y="581.9082"/><rect fill="#FFFFFF" height="68.582" style="stroke:#181818;stroke-width:1.0;" width="10" x="1244" y="303.2402"/><rect fill="#FFFFFF" height="30" style="stroke:#181818;stroke-width:1.0;" width="10" x="1244" y="675.7813"/><rect fill="#FFFFFF" height="30" style="stroke:#181818;stroke-width:1.0;" width="10" x="1300" y="520.6172"/><rect fill="#FFFFFF" height="31.291" style="stroke:#181818;stroke-width:1.0;" width="10" x="1456" y="214.3672"/><rect fill="#FFFFFF" height="31.291" style="stroke:#181818;stroke-width:1.0;" width="10" x="1456" y="613.1992"/><rect fill="#FFFFFF" height="30" style="stroke:#181818;stroke-width:1.0;" width="10" x="1456" y="737.0723"/><rect fill="#FFFFFF" height="30" style="stroke:#181818;stroke-width:1.0;" width="10" x="1456" y="798.3633"/><rect fill="none" height="198.377" style="stroke:#000000;stroke-width:1.5;" width="686.5" x="773.5" y="260.6582"/><rect fill="none" height="98.5039" style="stroke:#000000;stroke-width:1.5;" width="329" x="10" y="951.2363"/><line style="stroke:#181818;stroke-width:0.5;stroke-dasharray:5.0,5.0;" x1="46" x2="46" y1="38.6211" y2="1066.7402"/><line style="stroke:#181818;stroke-width:0.5;stroke-dasharray:5.0,5.0;" x1="287" x2="287" y1="38.6211" y2="1066.7402"/><line style="stroke:#181818;stroke-width:0.5;stroke-dasharray:5.0,5.0;" x1="626.5" x2="626.5" y1="38.6211" y2="1066.7402"/><line style="stroke:#181818;stroke-width:0.5;stroke-dasharray:5.0,5.0;" x1="812.5" x2="812.5" y1="38.6211" y2="1066.7402"/><line style="stroke:#181818;stroke-width:0.5;stroke-dasharray:5.0,5.0;" x1="877.5" x2="877.5" y1="38.6211" y2="1066.7402"/><line style="stroke:#181818;stroke-width:0.5;stroke-dasharray:5.0,5.0;" x1="999" x2="999" y1="38.6211" y2="1066.7402"/><line style="stroke:#181818;stroke-width:0.5;stroke-dasharray:5.0,5.0;" x1="1249" x2="1249" y1="38.6211" y2="1066.7402"/><line style="stroke:#181818;stroke-width:0.5;stroke-dasharray:5.0,5.0;" x1="1305" x2="1305" y1="38.6211" y2="1066.7402"/><line style="stroke:#181818;stroke-width:0.5;stroke-dasharray:5.0,5.0;" x1="1371" x2="1371" y1="38.6211" y2="1066.7402"/><line style="stroke:#181818;stroke-width:0.5;stroke-dasharray:5.0,5.0;" x1="1461" x2="1461" y1="38.6211" y2="1066.7402"/><rect fill="#E2E2F0" height="32.6211" rx="2.5" ry="2.5" style="stroke:#181818;stroke-width:0.5;" width="52" x="20" y="5"/><text fill="#000000" font-family="sans-serif" font-size="14" lengthAdjust="spacing" textLength="38" x="27" y="27.1074">Route</text><rect fill="#E2E2F0" height="32.6211" rx="2.5" ry="2.5" style="stroke:#181818;stroke-width:0.5;" width="52" x="20" y="1065.7402"/><text fill="#000000" font-family="sans-serif" font-size="14" lengthAdjust="spacing" textLength="38" x="27" y="1087.8477">Route</text><rect fill="#E2E2F0" height="32.6211" rx="2.5" ry="2.5" style="stroke:#181818;stroke-width:0.5;" width="84" x="245" y="5"/><text fill="#000000" font-family="sans-serif" font-size="14" lengthAdjust="spacing" textLength="70" x="252" y="27.1074">XController</text><rect fill="#E2E2F0" height="32.6211" rx="2.5" ry="2.5" style="stroke:#181818;stroke-width:0.5;" width="84" x="245" y="1065.7402"/><text fill="#000000" font-family="sans-serif" font-size="14" lengthAdjust="spacing" textLength="70" x="252" y="1087.8477">XController</text><rect fill="#E2E2F0" height="32.6211" rx="2.5" ry="2.5" style="stroke:#181818;stroke-width:0.5;" width="69" x="592.5" y="5"/><text fill="#000000" font-family="sans-serif" font-size="14" lengthAdjust="spacing" textLength="55" x="599.5" y="27.1074">XService</text><rect fill="#E2E2F0" height="32.6211" rx="2.5" ry="2.5" style="stroke:#181818;stroke-width:0.5;" width="69" x="592.5" y="1065.7402"/><text fill="#000000" font-family="sans-serif" font-size="14" lengthAdjust="spacing" textLength="55" x="599.5" y="1087.8477">XService</text><rect fill="#E2E2F0" height="32.6211" rx="2.5" ry="2.5" style="stroke:#181818;stroke-width:0.5;" width="59" x="783.5" y="5"/><text fill="#000000" font-family="sans-serif" font-size="14" lengthAdjust="spacing" textLength="45" x="790.5" y="27.1074">IXRepo</text><rect fill="#E2E2F0" height="32.6211" rx="2.5" ry="2.5" style="stroke:#181818;stroke-width:0.5;" width="59" x="783.5" y="1065.7402"/><text fill="#000000" font-family="sans-serif" font-size="14" lengthAdjust="spacing" textLength="45" x="790.5" y="1087.8477">IXRepo</text><rect fill="#E2E2F0" height="32.6211" rx="2.5" ry="2.5" style="stroke:#181818;stroke-width:0.5;" width="50" x="852.5" y="5"/><text fill="#000000" font-family="sans-serif" font-size="14" lengthAdjust="spacing" textLength="36" x="859.5" y="27.1074">xDTO</text><rect fill="#E2E2F0" height="32.6211" rx="2.5" ry="2.5" style="stroke:#181818;stroke-width:0.5;" width="50" x="852.5" y="1065.7402"/><text fill="#000000" font-family="sans-serif" font-size="14" lengthAdjust="spacing" textLength="36" x="859.5" y="1087.8477">xDTO</text><rect fill="#E2E2F0" height="32.6211" rx="2.5" ry="2.5" style="stroke:#181818;stroke-width:0.5;" width="56" x="971" y="5"/><text fill="#000000" font-family="sans-serif" font-size="14" lengthAdjust="spacing" textLength="42" x="978" y="27.1074">XRepo</text><rect fill="#E2E2F0" height="32.6211" rx="2.5" ry="2.5" style="stroke:#181818;stroke-width:0.5;" width="56" x="971" y="1065.7402"/><text fill="#000000" font-family="sans-serif" font-size="14" lengthAdjust="spacing" textLength="42" x="978" y="1087.8477">XRepo</text><rect fill="#E2E2F0" height="32.6211" rx="2.5" ry="2.5" style="stroke:#181818;stroke-width:0.5;" width="70" x="1214" y="5"/><text fill="#000000" font-family="sans-serif" font-size="14" lengthAdjust="spacing" textLength="56" x="1221" y="27.1074">XMapper</text><rect fill="#E2E2F0" height="32.6211" rx="2.5" ry="2.5" style="stroke:#181818;stroke-width:0.5;" width="70" x="1214" y="1065.7402"/><text fill="#000000" font-family="sans-serif" font-size="14" lengthAdjust="spacing" textLength="56" x="1221" y="1087.8477">XMapper</text><rect fill="#E2E2F0" height="32.6211" rx="2.5" ry="2.5" style="stroke:#181818;stroke-width:0.5;" width="22" x="1294" y="5"/><text fill="#000000" font-family="sans-serif" font-size="14" lengthAdjust="spacing" textLength="8" x="1301" y="27.1074">X</text><rect fill="#E2E2F0" height="32.6211" rx="2.5" ry="2.5" style="stroke:#181818;stroke-width:0.5;" width="22" x="1294" y="1065.7402"/><text fill="#000000" font-family="sans-serif" font-size="14" lengthAdjust="spacing" textLength="8" x="1301" y="1087.8477">X</text><rect fill="#E2E2F0" height="32.6211" rx="2.5" ry="2.5" style="stroke:#181818;stroke-width:0.5;" width="90" x="1326" y="5"/><text fill="#000000" font-family="sans-serif" font-size="14" lengthAdjust="spacing" textLength="76" x="1333" y="27.1074">XDataModel</text><rect fill="#E2E2F0" height="32.6211" rx="2.5" ry="2.5" style="stroke:#181818;stroke-width:0.5;" width="90" x="1326" y="1065.7402"/><text fill="#000000" font-family="sans-serif" font-size="14" lengthAdjust="spacing" textLength="76" x="1333" y="1087.8477">XDataModel</text><rect fill="#E2E2F0" height="32.6211" rx="2.5" ry="2.5" style="stroke:#181818;stroke-width:0.5;" width="70" x="1426" y="5"/><text fill="#000000" font-family="sans-serif" font-size="14" lengthAdjust="spacing" textLength="56" x="1433" y="27.1074">XContext</text><rect fill="#E2E2F0" height="32.6211" rx="2.5" ry="2.5" style="stroke:#181818;stroke-width:0.5;" width="70" x="1426" y="1065.7402"/><text fill="#000000" font-family="sans-serif" font-size="14" lengthAdjust="spacing" textLength="56" x="1433" y="1087.8477">XContext</text><rect fill="#FFFFFF" height="1008.1191" style="stroke:#181818;stroke-width:1.0;" width="10" x="41" y="48.6211"/><rect fill="#FFFFFF" height="984.8281" style="stroke:#181818;stroke-width:1.0;" width="10" x="282" y="71.9121"/><rect fill="#FFFFFF" height="819.0332" style="stroke:#181818;stroke-width:1.0;" width="10" x="622" y="103.2031"/><rect fill="#FFFFFF" height="354.832" style="stroke:#181818;stroke-width:1.0;" width="10" x="808" y="134.4941"/><rect fill="#FFFFFF" height="300.25" style="stroke:#181818;stroke-width:1.0;" width="10" x="994" y="165.7852"/><rect fill="#FFFFFF" height="277.7461" style="stroke:#181818;stroke-width:1.0;" width="10" x="994" y="581.9082"/><rect fill="#FFFFFF" height="68.582" style="stroke:#181818;stroke-width:1.0;" width="10" x="1244" y="303.2402"/><rect fill="#FFFFFF" height="30" style="stroke:#181818;stroke-width:1.0;" width="10" x="1244" y="675.7813"/><rect fill="#FFFFFF" height="30" style="stroke:#181818;stroke-width:1.0;" width="10" x="1300" y="520.6172"/><rect fill="#FFFFFF" height="31.291" style="stroke:#181818;stroke-width:1.0;" width="10" x="1456" y="214.3672"/><rect fill="#FFFFFF" height="31.291" style="stroke:#181818;stroke-width:1.0;" width="10" x="1456" y="613.1992"/><rect fill="#FFFFFF" height="30" style="stroke:#181818;stroke-width:1.0;" width="10" x="1456" y="737.0723"/><rect fill="#FFFFFF" height="30" style="stroke:#181818;stroke-width:1.0;" width="10" x="1456" y="798.3633"/><polygon fill="#181818" points="270,67.9121,280,71.9121,270,75.9121,274,71.9121" style="stroke:#181818;stroke-width:1.0;"/><line style="stroke:#181818;stroke-width:1.0;" x1="51" x2="276" y1="71.9121" y2="71.9121"/><text fill="#000000" font-family="sans-serif" font-size="13" lengthAdjust="spacing" textLength="78" x="58" y="66.6494">SoftDelete(id)</text><polygon fill="#181818" points="610,99.2031,620,103.2031,610,107.2031,614,103.2031" style="stroke:#181818;stroke-width:1.0;"/><line style="stroke:#181818;stroke-width:1.0;" x1="292" x2="616" y1="103.2031" y2="103.2031"/><text fill="#000000" font-family="sans-serif" font-size="13" lengthAdjust="spacing" textLength="210" x="299" y="97.9404">InactivateAsync(id, _errorMessages)</text><polygon fill="#181818" points="796,130.4941,806,134.4941,796,138.4941,800,134.4941" style="stroke:#181818;stroke-width:1.0;"/><line style="stroke:#181818;stroke-width:1.0;" x1="632" x2="802" y1="134.4941" y2="134.4941"/><text fill="#000000" font-family="sans-serif" font-size="13" lengthAdjust="spacing" textLength="109" x="639" y="129.2314">GetXByIdAsync(id)</text><polygon fill="#181818" points="982,161.7852,992,165.7852,982,169.7852,986,165.7852" style="stroke:#181818;stroke-width:1.0;"/><line style="stroke:#181818;stroke-width:1.0;" x1="818" x2="988" y1="165.7852" y2="165.7852"/><text fill="#000000" font-family="sans-serif" font-size="13" lengthAdjust="spacing" textLength="155" x="825" y="160.5225">implemnts GetXByIdAsync</text><polygon fill="#181818" points="1444,210.3672,1454,214.3672,1444,218.3672,1448,214.3672" style="stroke:#181818;stroke-width:1.0;"/><line style="stroke:#181818;stroke-width:1.0;" x1="1004" x2="1450" y1="214.3672" y2="214.3672"/><text fill="#000000" font-family="sans-serif" font-size="13" lengthAdjust="spacing" textLength="113" x="1011" y="191.8135">Set&lt;XDataModel&gt;()</text><text fill="#000000" font-family="sans-serif" font-size="13" lengthAdjust="spacing" textLength="153" x="1011" y="209.1045">.FirstAsync(p =&gt; p.id==id)</text><polygon fill="#181818" points="1015,241.6582,1005,245.6582,1015,249.6582,1011,245.6582" style="stroke:#181818;stroke-width:1.0;"/><line style="stroke:#181818;stroke-width:1.0;stroke-dasharray:2.0,2.0;" x1="1009" x2="1460" y1="245.6582" y2="245.6582"/><text fill="#000000" font-family="sans-serif" font-size="13" lengthAdjust="spacing" textLength="147" x="1021" y="240.3955">return xDataModel with Id</text><path d="M773.5,260.6582 L834.5,260.6582 L834.5,269.9492 L824.5,279.9492 L773.5,279.9492 L773.5,260.6582 " fill="#EEEEEE" style="stroke:#000000;stroke-width:1.5;"/><rect fill="none" height="198.377" style="stroke:#000000;stroke-width:1.5;" width="686.5" x="773.5" y="260.6582"/><text fill="#000000" font-family="sans-serif" font-size="13" font-weight="bold" lengthAdjust="spacing" textLength="16" x="788.5" y="275.6865">alt</text><text fill="#000000" font-family="sans-serif" font-size="11" font-weight="bold" lengthAdjust="spacing" textLength="121" x="849.5" y="274.5283">[xDataModel is Active]</text><polygon fill="#181818" points="1232,299.2402,1242,303.2402,1232,307.2402,1236,303.2402" style="stroke:#181818;stroke-width:1.0;"/><line style="stroke:#181818;stroke-width:1.0;" x1="1004" x2="1238" y1="303.2402" y2="303.2402"/><text fill="#000000" font-family="sans-serif" font-size="13" lengthAdjust="spacing" textLength="135" x="1011" y="297.9775">ToDomain(xDataModel)</text><path d="M1259,316.2402 L1259,343.2402 L1450,343.2402 L1450,326.2402 L1440,316.2402 L1259,316.2402 " fill="#FEFFDD" style="stroke:#181818;stroke-width:0.5;"/><path d="M1440,316.2402 L1440,326.2402 L1450,326.2402 L1440,316.2402 " fill="#FEFFDD" style="stroke:#181818;stroke-width:0.5;"/><text fill="#000000" font-family="sans-serif" font-size="13" lengthAdjust="spacing" textLength="170" x="1265" y="335.2686">See "ToDomainMapper.puml"</text><polygon fill="#181818" points="1015,367.8223,1005,371.8223,1015,375.8223,1011,371.8223" style="stroke:#181818;stroke-width:1.0;"/><line style="stroke:#181818;stroke-width:1.0;stroke-dasharray:2.0,2.0;" x1="1009" x2="1248" y1="371.8223" y2="371.8223"/><text fill="#000000" font-family="sans-serif" font-size="13" lengthAdjust="spacing" textLength="44" x="1021" y="366.5596">return x</text><polygon fill="#181818" points="829,399.1133,819,403.1133,829,407.1133,825,403.1133" style="stroke:#181818;stroke-width:1.0;"/><line style="stroke:#181818;stroke-width:1.0;stroke-dasharray:2.0,2.0;" x1="823" x2="993" y1="403.1133" y2="403.1133"/><text fill="#000000" font-family="sans-serif" font-size="13" lengthAdjust="spacing" textLength="44" x="835" y="397.8506">return x</text><line style="stroke:#000000;stroke-width:1.0;stroke-dasharray:2.0,2.0;" x1="773.5" x2="1460" y1="412.1133" y2="412.1133"/><text fill="#000000" font-family="sans-serif" font-size="11" font-weight="bold" lengthAdjust="spacing" textLength="129" x="778.5" y="423.9834">[xDataModel is Inactive]</text><polygon fill="#181818" points="829,447.0352,819,451.0352,829,455.0352,825,451.0352" style="stroke:#181818;stroke-width:1.0;"/><line style="stroke:#181818;stroke-width:1.0;stroke-dasharray:2.0,2.0;" x1="823" x2="993" y1="451.0352" y2="451.0352"/><text fill="#000000" font-family="sans-serif" font-size="13" lengthAdjust="spacing" textLength="57" x="835" y="445.7725">return null</text><polygon fill="#181818" points="643,485.3262,633,489.3262,643,493.3262,639,489.3262" style="stroke:#181818;stroke-width:1.0;"/><line style="stroke:#181818;stroke-width:1.0;stroke-dasharray:2.0,2.0;" x1="637" x2="812" y1="489.3262" y2="489.3262"/><text fill="#000000" font-family="sans-serif" font-size="13" lengthAdjust="spacing" textLength="85" x="649" y="484.0635">return x with id</text><polygon fill="#181818" points="1288,516.6172,1298,520.6172,1288,524.6172,1292,520.6172" style="stroke:#181818;stroke-width:1.0;"/><line style="stroke:#181818;stroke-width:1.0;" x1="632" x2="1294" y1="520.6172" y2="520.6172"/><text fill="#000000" font-family="sans-serif" font-size="13" lengthAdjust="spacing" textLength="96" x="639" y="515.3545">MarkAsInactive()</text><polygon fill="#181818" points="982,577.9082,992,581.9082,982,585.9082,986,581.9082" style="stroke:#181818;stroke-width:1.0;"/><line style="stroke:#181818;stroke-width:1.0;" x1="632" x2="988" y1="581.9082" y2="581.9082"/><text fill="#000000" font-family="sans-serif" font-size="13" lengthAdjust="spacing" textLength="106" x="639" y="576.6455">InactivateAsync(x)</text><polygon fill="#181818" points="1444,609.1992,1454,613.1992,1444,617.1992,1448,613.1992" style="stroke:#181818;stroke-width:1.0;"/><line style="stroke:#181818;stroke-width:1.0;" x1="1004" x2="1450" y1="613.1992" y2="613.1992"/><text fill="#000000" font-family="sans-serif" font-size="13" lengthAdjust="spacing" textLength="321" x="1011" y="607.9365">Set&lt;StaffDataModel&gt;().FirstAsync(s =&gt; s.Id == staff.Id)</text><polygon fill="#181818" points="1015,640.4902,1005,644.4902,1015,648.4902,1011,644.4902" style="stroke:#181818;stroke-width:1.0;"/><line style="stroke:#181818;stroke-width:1.0;stroke-dasharray:2.0,2.0;" x1="1009" x2="1460" y1="644.4902" y2="644.4902"/><text fill="#000000" font-family="sans-serif" font-size="13" lengthAdjust="spacing" textLength="106" x="1021" y="639.2275">return xDataModel</text><polygon fill="#181818" points="1232,671.7813,1242,675.7813,1232,679.7813,1236,675.7813" style="stroke:#181818;stroke-width:1.0;"/><line style="stroke:#181818;stroke-width:1.0;" x1="1004" x2="1238" y1="675.7813" y2="675.7813"/><text fill="#000000" font-family="sans-serif" font-size="13" lengthAdjust="spacing" textLength="221" x="1011" y="670.5186">DeactivatedDataModel(xDataModel, x)</text><polygon fill="#181818" points="1444,733.0723,1454,737.0723,1444,741.0723,1448,737.0723" style="stroke:#181818;stroke-width:1.0;"/><line style="stroke:#181818;stroke-width:1.0;" x1="1004" x2="1450" y1="737.0723" y2="737.0723"/><text fill="#000000" font-family="sans-serif" font-size="13" lengthAdjust="spacing" textLength="99" x="1011" y="731.8096">save xDataModel</text><polygon fill="#181818" points="1444,794.3633,1454,798.3633,1444,802.3633,1448,798.3633" style="stroke:#181818;stroke-width:1.0;"/><line style="stroke:#181818;stroke-width:1.0;" x1="1004" x2="1450" y1="798.3633" y2="798.3633"/><text fill="#000000" font-family="sans-serif" font-size="13" lengthAdjust="spacing" textLength="124" x="1011" y="793.1006">SaveChangesAsync()</text><polygon fill="#181818" points="824,855.6543,814,859.6543,824,863.6543,820,859.6543" style="stroke:#181818;stroke-width:1.0;"/><line style="stroke:#181818;stroke-width:1.0;stroke-dasharray:2.0,2.0;" x1="818" x2="998" y1="859.6543" y2="859.6543"/><text fill="#000000" font-family="sans-serif" font-size="13" lengthAdjust="spacing" textLength="157" x="830" y="854.3916">return success or insucess</text><polygon fill="#181818" points="643,886.9453,633,890.9453,643,894.9453,639,890.9453" style="stroke:#181818;stroke-width:1.0;"/><line style="stroke:#181818;stroke-width:1.0;stroke-dasharray:2.0,2.0;" x1="637" x2="812" y1="890.9453" y2="890.9453"/><text fill="#000000" font-family="sans-serif" font-size="13" lengthAdjust="spacing" textLength="157" x="649" y="885.6826">return success or insucess</text><polygon fill="#181818" points="303,918.2363,293,922.2363,303,926.2363,299,922.2363" style="stroke:#181818;stroke-width:1.0;"/><line style="stroke:#181818;stroke-width:1.0;" x1="297" x2="626" y1="922.2363" y2="922.2363"/><text fill="#000000" font-family="sans-serif" font-size="13" lengthAdjust="spacing" textLength="306" x="309" y="916.9736">message "X deactivated successfully." or x not found</text><polygon fill="#181818" points="62,932.2363,52,936.2363,62,940.2363,58,936.2363" style="stroke:#181818;stroke-width:1.0;"/><line style="stroke:#181818;stroke-width:1.0;stroke-dasharray:2.0,2.0;" x1="56" x2="281" y1="936.2363" y2="936.2363"/><path d="M10,951.2363 L71,951.2363 L71,960.5273 L61,970.5273 L10,970.5273 L10,951.2363 " fill="#EEEEEE" style="stroke:#000000;stroke-width:1.5;"/><rect fill="none" height="98.5039" style="stroke:#000000;stroke-width:1.5;" width="329" x="10" y="951.2363"/><text fill="#000000" font-family="sans-serif" font-size="13" font-weight="bold" lengthAdjust="spacing" textLength="16" x="25" y="966.2646">alt</text><text fill="#000000" font-family="sans-serif" font-size="11" font-weight="bold" lengthAdjust="spacing" textLength="102" x="86" y="965.1064">[caso de sucesso]</text><polygon fill="#181818" points="62,989.8184,52,993.8184,62,997.8184,58,993.8184" style="stroke:#181818;stroke-width:1.0;"/><line style="stroke:#181818;stroke-width:1.0;stroke-dasharray:2.0,2.0;" x1="56" x2="281" y1="993.8184" y2="993.8184"/><text fill="#000000" font-family="sans-serif" font-size="13" lengthAdjust="spacing" textLength="182" x="68" y="988.5557">Envia um c&#243;digo 200 (DELETE)</text><line style="stroke:#000000;stroke-width:1.0;stroke-dasharray:2.0,2.0;" x1="10" x2="339" y1="1002.8184" y2="1002.8184"/><text fill="#000000" font-family="sans-serif" font-size="11" font-weight="bold" lengthAdjust="spacing" textLength="112" x="15" y="1014.6885">[caso de insucesso]</text><polygon fill="#181818" points="62,1037.7402,52,1041.7402,62,1045.7402,58,1041.7402" style="stroke:#181818;stroke-width:1.0;"/><line style="stroke:#181818;stroke-width:1.0;stroke-dasharray:2.0,2.0;" x1="56" x2="281" y1="1041.7402" y2="1041.7402"/><text fill="#000000" font-family="sans-serif" font-size="13" lengthAdjust="spacing" textLength="207" x="68" y="1036.4775">Envia um c&#243;digo 404 (NOT FOUND)</text><!--SRC=[dLNDZjem4BxdAKQS4caNeMfFg23H3LiXbKLQgCIXKcKb4x2Qs97jK7YkFa9VhFv9WhrP8LGEo7Zc6yytyyrG4w5eHcl25BpnHY4G2S8SejepxPyvKuAN9GhZa2bHXlOjYXFDB5gUii2sshzXpOs52dq8RETqjp6MN8NtFMI0sAz9NRiiAdiAhJO1HOeYl4w98ckUOsdjsH4hCkI7PsN9kMCKaKpH4z4bSVMmt_0uj-nX2bjUg1HBL1ZJFBbws-9O7-shYw5TLwopBkI5PTh_0NwY45oiKKfoGEdXJVqCJADjmJJ-Awhzbyigxz2UjwkfSzI85a2hkiIAAHb2FKe6rO5QneOJgi_NOitZv0SRlr0XbNkvXjaSwZ7DPxEGSbkoBj3ZDHE1gX5CDxhlm6-gZh3Aenm7U58gtvDAM1WNZ41_kcnTstNe7KzvHIYBhv34UlPnMuMOEyODQteuAk15Qp1y4KPT7AUiSTrKvSXYsfS-O6FD7W7l8PUcrxmUWwN4T_HQOU1D96lACa8MLCplUY-pxYLNOXe0d4vQNTa9cSAQY5yBsUKG-ngq8-J1tKKBDw66eZudj-NbrBKrWNo5-VgIHbzolCfXDdDFwlD_wkmZVOKIcaBQk-GzpbFJ0_YSsXuFkpuS8qbEVgU716xavWsZZl9y94ol1rUUvAv0KHGAgQ-DRB9ChnlW0YZJF_Hvg90xDNPNh5OkPXTEeNAR3aPxRt3oBb2XDNuPZqoyivbLA7WJAjwiHRTLJTFjHZRh8YEIwu3WSk1sa48tdVIIdIY1feBixv-S7ZXycamWJfVVbhjbukQoYzEnkJVIq-G9ujVD3bustr_JvFsSsZy3lwOsyNy0]--></g></svg>